<?xml version='1.0' encoding='iso-8859-1'?>
<svg version="1.1" xmlns="http://www.w3.org/2000/svg" viewBox="0 0 463 463" xmlns:xlink="http://www.w3.org/1999/xlink" enable-background="new 0 0 463 463">
  <g>
    <path d="m400.638,109.853c-10.037-9.623-16.225-22.594-17.413-36.163 9.173-3.204 15.775-11.938 15.775-22.19 0-12.958-10.542-23.5-23.5-23.5h-288c-12.958,0-23.5,10.542-23.5,23.5 0,10.252 6.602,18.986 15.775,22.189-1.187,13.569-7.375,26.54-17.413,36.163-40.215,38.551-62.362,88.856-62.362,141.648 0,36.015 10.452,71.492 30.226,102.597 19.1,30.044 46.535,55.571 79.339,73.82 8.33,4.634 17.744,7.083 27.226,7.083h189.419c9.482,0 18.896-2.449 27.226-7.083 32.805-18.249 60.24-43.776 79.339-73.82 19.773-31.105 30.225-66.582 30.225-102.597 0-52.792-22.147-103.097-62.362-141.647zm-313.138-66.853h288c4.687,0 8.5,3.813 8.5,8.5s-3.813,8.5-8.5,8.5h-288c-4.687,0-8.5-3.813-8.5-8.5s3.813-8.5 8.5-8.5zm-14.757,77.681c12.656-12.133 20.463-28.517 21.97-45.681h273.574c1.507,17.164 9.314,33.548 21.971,45.681 7.19,6.893 13.749,14.19 19.664,21.824-3.598-1.375-8.157-2.505-14.659-2.505-9.938,0-15.351,2.639-19.7,4.758-3.717,1.812-6.652,3.242-13.129,3.242-6.48,0-9.417-1.431-13.134-3.242-4.351-2.12-9.765-4.758-19.704-4.758-9.951,0-15.372,2.637-19.729,4.756-3.727,1.813-6.67,3.244-13.167,3.244-6.497,0-9.44-1.432-13.167-3.244-4.355-2.119-9.777-4.756-19.728-4.756-9.94,0-15.355,2.638-19.706,4.758-3.719,1.812-6.656,3.242-13.202,3.242-6.478,0-9.414-1.431-13.131-3.242-4.35-2.12-9.764-4.758-19.703-4.758-9.938,0-15.351,2.639-19.7,4.758-3.717,1.812-6.652,3.242-13.129,3.242-6.48,0-9.417-1.431-13.134-3.242-4.351-2.12-9.765-4.758-19.705-4.758-9.951,0-15.372,2.637-19.728,4.756-3.727,1.813-6.671,3.244-13.167,3.244s-9.44-1.432-13.167-3.244c-4.354-2.119-9.775-4.756-19.726-4.756-5.595,0-9.756,0.836-13.101,1.945 5.802-7.432 12.222-14.54 19.237-21.264zm273.4,294.128c-6.104,3.396-12.998,5.191-19.934,5.191h-189.418c-6.936,0-13.829-1.795-19.934-5.19-20.209-11.243-38.201-25.434-53.219-41.805 2.392-1.3 5.079-2.005 7.862-2.005 6.83,0 13.023,4.352 15.411,10.828 0.012,0.032 0.029,0.062 0.042,0.094 0.093,0.242 0.197,0.478 0.314,0.707 0.019,0.037 0.034,0.075 0.053,0.111 0.138,0.261 0.291,0.512 0.458,0.753 0.035,0.051 0.074,0.098 0.11,0.148 0.133,0.183 0.274,0.36 0.423,0.53 0.059,0.068 0.119,0.134 0.181,0.199 0.151,0.16 0.308,0.312 0.472,0.458 0.051,0.046 0.1,0.094 0.152,0.138 0.22,0.186 0.45,0.359 0.69,0.519 0.038,0.025 0.077,0.046 0.115,0.07 0.208,0.133 0.424,0.255 0.645,0.367 0.066,0.034 0.133,0.065 0.201,0.097 0.215,0.101 0.436,0.192 0.662,0.272 0.055,0.02 0.108,0.041 0.163,0.06 0.287,0.095 0.58,0.176 0.882,0.236 0.001,0 0.002,0.001 0.003,0.001 0.007,0.001 0.014,0.001 0.021,0.003 0.273,0.053 0.552,0.089 0.835,0.112 0.099,0.008 0.198,0.011 0.297,0.015 0.106,0.004 0.21,0.016 0.316,0.016 0.09,0 0.178-0.01 0.267-0.013 0.107-0.004 0.214-0.008 0.32-0.016 0.216-0.017 0.428-0.044 0.638-0.079 0.072-0.012 0.144-0.019 0.215-0.033 0.288-0.056 0.569-0.128 0.844-0.216 0.042-0.013 0.082-0.031 0.124-0.045 0.233-0.079 0.461-0.169 0.683-0.27 0.075-0.034 0.149-0.071 0.223-0.107 0.196-0.097 0.386-0.202 0.571-0.314 0.067-0.041 0.135-0.079 0.202-0.123 0.241-0.157 0.476-0.325 0.697-0.508 0.024-0.02 0.045-0.042 0.069-0.063 0.199-0.169 0.387-0.349 0.567-0.538 0.026-0.027 0.055-0.049 0.08-0.076 3.188-3.439 7.468-5.333 12.052-5.333s8.864,1.894 12.052,5.333c1.773,1.913 4.415,2.77 6.97,2.256 2.558-0.511 4.666-2.313 5.568-4.761 2.389-6.476 8.582-10.828 15.412-10.828s13.023,4.352 15.411,10.828c0.902,2.447 3.01,4.25 5.568,4.761 2.56,0.513 5.197-0.343 6.97-2.256 3.188-3.439 7.468-5.333 12.052-5.333s8.864,1.894 12.052,5.333c1.773,1.913 4.415,2.77 6.97,2.256 2.558-0.511 4.666-2.313 5.568-4.761 2.386-6.476 8.579-10.828 15.409-10.828s13.023,4.352 15.411,10.828c0.902,2.447 3.01,4.25 5.568,4.761 2.56,0.513 5.197-0.343 6.97-2.256 3.188-3.439 7.468-5.333 12.052-5.333s8.864,1.894 12.052,5.333c1.773,1.913 4.415,2.77 6.97,2.256 2.558-0.511 4.666-2.313 5.568-4.761 2.386-6.476 8.579-10.828 15.409-10.828s13.023,4.352 15.411,10.828c0.902,2.447 3.01,4.25 5.568,4.761 2.56,0.513 5.197-0.343 6.97-2.256 3.188-3.439 7.468-5.333 12.052-5.333s8.864,1.894 12.052,5.333c0.03,0.032 0.064,0.06 0.094,0.092 0.101,0.106 0.207,0.206 0.315,0.306 0.077,0.072 0.154,0.144 0.234,0.213 0.116,0.098 0.237,0.19 0.358,0.282 0.077,0.058 0.152,0.118 0.232,0.173 0.14,0.097 0.287,0.186 0.434,0.274 0.065,0.039 0.128,0.081 0.194,0.118 0.18,0.1 0.367,0.19 0.556,0.276 0.037,0.017 0.073,0.037 0.111,0.053 0.912,0.395 1.917,0.616 2.974,0.616 0.247,0 0.496-0.013 0.744-0.038 0.211-0.021 0.417-0.055 0.622-0.093 0.034-0.006 0.069-0.009 0.103-0.015 0.001,0 0.002-0.001 0.003-0.001 0.301-0.06 0.594-0.141 0.882-0.236 0.055-0.018 0.108-0.04 0.163-0.06 0.226-0.081 0.447-0.171 0.662-0.272 0.068-0.032 0.135-0.063 0.201-0.097 0.222-0.112 0.437-0.234 0.645-0.367 0.038-0.024 0.078-0.045 0.115-0.07 0.24-0.16 0.47-0.333 0.69-0.519 0.052-0.044 0.101-0.093 0.152-0.138 0.164-0.146 0.322-0.298 0.472-0.458 0.062-0.065 0.122-0.132 0.181-0.199 0.149-0.17 0.29-0.347 0.423-0.53 0.036-0.05 0.075-0.097 0.11-0.148 0.167-0.241 0.32-0.493 0.458-0.753 0.019-0.036 0.035-0.074 0.053-0.111 0.117-0.229 0.221-0.465 0.314-0.707 0.012-0.032 0.03-0.062 0.042-0.094 2.387-6.478 8.58-10.83 15.41-10.83 2.8,0 5.488,0.69 7.875,1.991-15.021,16.376-33.017,30.572-53.232,41.818zm73.973-68.76c-3.36,5.286-7.002,10.421-10.903,15.391-5.178-3.538-11.291-5.44-17.713-5.44-4.252,0-8.374,0.876-12.157,2.482 3.064-5.511 7.292-9.916 11.672-14.458 7.266-7.536 14.78-15.329 15.952-27.824 1.906-20.335 6.229-33.521 14.453-44.096 2.543-3.27 1.954-7.981-1.315-10.524-3.27-2.544-7.982-1.955-10.524,1.315-10.107,12.994-15.354,28.517-17.547,51.904-0.681,7.266-5.595,12.361-11.815,18.813-2.222,2.304-4.591,4.774-6.904,7.511-0.988-7.83-2.261-13.74-3.396-19.005-1.63-7.566-2.918-13.543-2.918-22.619 0-4.143-3.358-7.5-7.5-7.5s-7.5,3.357-7.5,7.5c0,10.674 1.581,18.011 3.254,25.778 1.345,6.243 2.797,12.995 3.737,22.703-2.196-1.641-4.412-3.15-6.527-4.586-10.128-6.882-16.393-11.568-17.519-20.803-0.501-4.111-4.238-7.029-8.353-6.537-4.112,0.502-7.039,4.241-6.537,8.354 2.008,16.465 13.68,24.396 23.979,31.393 4.41,2.997 8.112,5.618 10.972,8.405-1.156-0.128-2.324-0.206-3.506-0.206-5.478,0-10.715,1.393-15.35,4.018-5.872-7.43-14.92-12.018-24.651-12.018s-18.779,4.588-24.65,12.018c-4.635-2.625-9.873-4.018-15.35-4.018s-10.715,1.393-15.35,4.018c-5.871-7.43-14.919-12.018-24.65-12.018s-18.779,4.588-24.65,12.018c-4.635-2.625-9.873-4.018-15.35-4.018s-10.715,1.393-15.35,4.018c-5.871-7.43-14.919-12.018-24.65-12.018s-18.779,4.588-24.65,12.018c-4.635-2.625-9.873-4.018-15.35-4.018-2.892,0-5.714,0.399-8.419,1.152 0.809-31.683 7.647-48.17 13.725-62.82 5.242-12.637 10.194-24.573 10.194-42.832 0-4.143-3.358-7.5-7.5-7.5s-7.5,3.357-7.5,7.5c0,15.271-3.994,24.897-9.05,37.085-1.48,3.569-3.041,7.333-4.574,11.454-2.328-32.674-2.261-67.95 11.67-92.88 2.021-3.616 0.728-8.186-2.888-10.206-3.617-2.023-8.186-0.727-10.206,2.888-18.772,33.591-15.563,80.558-12.013,119.768-6.494-13.244-12.501-28.161-13.953-52.554-1.941-32.604-17.4-44.437-19.157-45.679l-8.66,12.248-.105-.076c0.466,0.355 11.436,8.993 12.948,34.397 1.879,31.567 10.875,49.309 18.813,64.961 3.07,6.055 5.827,11.511 7.889,17.207-3.522-1.364-7.31-2.113-11.214-2.113-6.383,0-12.515,1.914-17.705,5.45-3.904-4.973-7.549-10.112-10.911-15.401-18.242-28.695-27.884-61.39-27.884-94.549 0-31.304 8.498-61.689 24.463-88.89 0.364,0.001 0.73-0.015 1.101-0.069 5.814-0.843 9.582-2.679 12.907-4.299 3.718-1.812 6.655-3.242 13.136-3.242 6.497,0 9.44,1.432 13.167,3.244 4.356,2.119 9.777,4.756 19.728,4.756 9.951,0 15.373-2.637 19.729-4.756 3.727-1.813 6.67-3.244 13.167-3.244 6.48,0 9.417,1.431 13.134,3.242 4.351,2.12 9.765,4.758 19.705,4.758 9.938,0 15.351-2.639 19.7-4.758 3.717-1.812 6.652-3.242 13.129-3.242 6.479,0 9.415,1.431 13.131,3.242 4.35,2.12 9.764,4.758 19.768,4.758 9.94,0 15.355-2.638 19.706-4.758 3.719-1.812 6.656-3.242 13.136-3.242 6.497,0 9.44,1.432 13.167,3.244 4.356,2.119 9.777,4.756 19.729,4.756 9.951,0 15.372-2.637 19.728-4.756 3.727-1.813 6.671-3.244 13.167-3.244 6.479,0 9.416,1.431 13.134,3.242 4.351,2.12 9.765,4.758 19.705,4.758 9.938,0 15.351-2.639 19.7-4.758 3.717-1.812 6.652-3.242 13.129-3.242 6.479,0 9.415,1.431 13.132,3.242 3.422,1.668 7.681,3.743 14.278,4.474 0.319,0.035 0.635,0.043 0.948,0.039 15.908,27.163 24.376,57.496 24.376,88.745 0,33.159-9.642,65.854-27.884,94.549z"/>
    <path d="m274.518,220.261c-21.493-19.26-50.612-16.14-51.884-15.992-2.243,0.261-4.25,1.519-5.461,3.424-1.212,1.905-1.501,4.256-0.788,6.398l5.966,17.898c-0.959,0.5-1.91,1.014-2.851,1.544-15.485-8.724-33.362-13.314-52-13.314-6.984,0-14.201,0.724-21.45,2.152-3.516,0.692-6.05,3.775-6.05,7.358s2.535,6.666 6.05,7.358c17.3,3.408 32.492,11.36 43.442,22.631-10.95,11.271-26.142,19.223-43.442,22.632-3.516,0.692-6.05,3.775-6.05,7.358s2.535,6.666 6.05,7.358c7.246,1.428 14.462,2.151 21.45,2.151 18.638,0 36.515-4.591 52-13.314 0.952,0.536 1.913,1.056 2.882,1.561l-5.984,17.628c-0.729,2.148-0.447,4.511 0.767,6.426 1.214,1.916 3.23,3.18 5.484,3.437 0.327,0.038 2.496,0.269 5.903,0.269 9.85,0 30.046-1.939 46.01-16.048 30.027-0.821 57.806-13.679 74.779-34.752 2.211-2.746 2.211-6.662 0-9.408-16.981-21.085-44.778-33.946-74.823-34.755zm-40.601-1.007c4.325,0.372 9.705,1.269 15.246,3.243-4.424,0.916-8.758,2.105-12.979,3.561l-2.267-6.804zm-18.401,51.572c-9.179,5.755-19.491,9.728-30.429,11.776 7.775-5.069 14.619-11.183 20.254-18.18 2.211-2.746 2.211-6.662 0-9.408-5.635-6.996-12.481-13.111-20.255-18.18 10.938,2.049 21.251,6.021 30.43,11.776 2.437,1.527 5.531,1.527 7.968,0 13.975-8.762 30.579-13.393 48.016-13.393 4.823,0 9.576,0.37 14.223,1.062-3.603,7.258-5.487,15.212-5.487,23.438 0,8.225 1.884,16.18 5.487,23.438-4.647,0.692-9.4,1.062-14.223,1.062-17.437,0-34.041-4.631-48.016-13.393-1.218-0.764-2.601-1.146-3.984-1.146s-2.766,0.385-3.984,1.148zm20.696,22.563c4.128,1.422 8.362,2.59 12.684,3.496-5.421,1.86-10.673,2.72-14.917,3.081l2.233-6.577zm64.665-13.802c-3.697-5.996-5.641-12.796-5.641-19.868 0-7.072 1.944-13.872 5.641-19.868 12.668,4.142 23.94,10.926 32.617,19.868-8.676,8.942-19.949,15.726-32.617,19.868z"/>
    <path d="m306.2,265.02c1.39,1.4 3.32,2.2 5.3,2.2 1.97,0 3.91-0.8 5.3-2.2 1.4-1.39 2.2-3.33 2.2-5.3 0-1.979-0.8-3.91-2.2-5.3-1.39-1.4-3.33-2.2-5.3-2.2-1.98,0-3.91,0.8-5.3,2.2-1.4,1.39-2.2,3.32-2.2,5.3 0,1.969 0.8,3.91 2.2,5.3z"/>
  </g>
</svg>
