<?xml version="1.0" encoding="iso-8859-1"?>
<!-- Generator: Adobe Illustrator 18.0.0, SVG Export Plug-In . SVG Version: 6.00 Build 0)  -->
<!DOCTYPE svg PUBLIC "-//W3C//DTD SVG 1.1//EN" "http://www.w3.org/Graphics/SVG/1.1/DTD/svg11.dtd">
<svg version="1.1" id="Capa_1" xmlns="http://www.w3.org/2000/svg" xmlns:xlink="http://www.w3.org/1999/xlink" x="0px" y="0px"
	 viewBox="0 0 416.909 416.909" style="enable-background:new 0 0 416.909 416.909;" xml:space="preserve">
<g>
	<path d="M229.755,183.351c-3.313,0-6,2.686-6,6c0,2.563-2.086,4.649-4.652,4.649c-2.562,0-4.646-2.086-4.646-4.649v-7.572
		c7.228-2.168,12.443-8.12,12.443-15.122c0-8.827-8.273-16.008-18.443-16.008c-10.17,0-18.443,7.181-18.443,16.008
		c0,7.002,5.214,12.954,12.443,15.122v7.572c0,2.563-2.086,4.649-4.65,4.649c-2.564,0-4.65-2.086-4.65-4.649c0-3.314-2.686-6-6-6
		c-3.313,0-6,2.686-6,6c0,9.181,7.469,16.649,16.65,16.649c4.048,0,7.76-1.455,10.649-3.865c2.889,2.41,6.601,3.865,10.647,3.865
		c9.182,0,16.652-7.469,16.652-16.649C235.755,186.038,233.069,183.351,229.755,183.351z M208.456,162.649
		c3.687,0,6.443,2.116,6.443,4.008c0,1.666-2.135,3.503-5.162,3.92c-0.413-0.09-0.842-0.141-1.281-0.141
		c-0.441,0-0.869,0.051-1.283,0.141c-3.025-0.417-5.16-2.254-5.16-3.92C202.012,164.765,204.766,162.649,208.456,162.649z"/>
	<path d="M129.259,352.849c-3.727,0-7.217,1.339-10.1,3.873c-7.516,6.616-8.865,19.975-3.072,30.411
		c3.91,7.049,10.221,11.257,16.877,11.257c3.727,0,7.219-1.339,10.098-3.871c7.518-6.612,8.869-19.971,3.076-30.411
		C142.225,357.058,135.917,352.849,129.259,352.849z M135.136,385.508c-0.676,0.594-1.385,0.882-2.172,0.882
		c-1.646,0-4.305-1.33-6.385-5.08c-3.326-5.99-2.4-13.02,0.506-15.578c0.676-0.594,1.387-0.883,2.174-0.883
		c1.646,0,4.305,1.331,6.385,5.081C138.969,375.922,138.046,382.95,135.136,385.508z"/>
	<path d="M297.749,356.72c-2.879-2.532-6.371-3.871-10.098-3.871c-6.658,0-12.967,4.209-16.879,11.259
		c-5.793,10.44-4.441,23.799,3.076,30.41c2.881,2.533,6.371,3.872,10.098,3.872c0.002,0,0.002,0,0.002,0
		c6.654,0,12.963-4.208,16.875-11.256C306.616,376.699,305.268,363.34,297.749,356.72z M290.331,381.311
		c-2.08,3.749-4.738,5.079-6.383,5.079c-0.787,0-1.498-0.289-2.174-0.883c-2.908-2.558-3.834-9.585-0.508-15.577
		c2.08-3.75,4.738-5.081,6.385-5.081c0.787,0,1.498,0.289,2.17,0.88C292.731,368.292,293.657,375.32,290.331,381.311z"/>
	<path d="M300.915,348.382c0.922,0.512,1.92,0.755,2.906,0.755c2.109,0,4.154-1.114,5.25-3.089l5.568-10.031
		c1.607-2.897,0.563-6.55-2.334-8.158c-2.897-1.607-6.551-0.563-8.158,2.334l-5.568,10.031
		C296.971,343.122,298.016,346.774,300.915,348.382z"/>
	<path d="M208.456,347.989c-3.315,0-6,2.686-6,6v9.535c0,3.314,2.685,6,6,6c3.312,0,6-2.686,6-6v-9.535
		C214.456,350.675,211.768,347.989,208.456,347.989z"/>
	<path d="M225.661,259.625c-6.282-1.251-12.349,0.525-17.211,4.805c-4.86-4.282-10.928-6.06-17.213-4.805
		c-8.959,1.783-15.961,9.41-17.422,18.978c-1.078,7.069-0.306,24.957,28.641,41.915v9.239c0,3.314,2.685,6,6,6c3.312,0,6-2.686,6-6
		v-9.248c28.933-16.955,29.706-34.838,28.627-41.906C241.624,269.035,234.622,261.408,225.661,259.625z M208.45,310.118
		c-15.75-9.27-24.217-20.238-22.771-29.704c0.811-5.306,4.553-8.354,7.902-9.021c3.707-0.735,7.162,1.198,9.736,5.45
		c1.715,2.835,5.404,3.742,8.24,2.025c0.858-0.52,1.537-1.223,2.023-2.026l0.001,0.001c2.574-4.251,6.033-6.183,9.738-5.45
		c3.35,0.667,7.092,3.715,7.9,9.021C232.665,289.879,224.198,300.848,208.45,310.118z"/>
	<path d="M115.995,348.382c2.898-1.607,3.943-5.26,2.334-8.157l-5.566-10.031c-1.607-2.898-5.26-3.943-8.158-2.335
		c-2.896,1.607-3.941,5.26-2.334,8.157l5.566,10.031c1.098,1.976,3.143,3.09,5.252,3.09
		C114.073,349.137,115.073,348.894,115.995,348.382z"/>
	<path d="M342.643,64.369c-4.803-17.779-10.574-33.06-10.818-33.701c0,0-0.001-0.003-0.002-0.004
		c-0.189-0.497-0.448-0.972-0.772-1.411c-0.039-0.054-0.074-0.111-0.115-0.162c-0.009-0.012-0.018-0.021-0.027-0.032
		c-0.244-0.308-0.516-0.587-0.81-0.837c-0.003-0.002-0.005-0.004-0.008-0.007c-15.922-13.476-33.168-22.894-51.26-27.99
		c-2.463-0.691-5.094,0.251-6.555,2.353c-4.441,6.397-8.684,13.153-12.607,20.081c-12.963,22.882-21.648,45.981-24.352,64.124
		c-8.317-4.463-17.375-7.048-26.861-7.048c-9.486,0-18.543,2.585-26.859,7.046c-2.703-18.143-11.393-41.242-24.355-64.121
		c-3.928-6.937-8.17-13.692-12.607-20.082c-1.461-2.102-4.094-3.044-6.555-2.353c-18.094,5.098-35.34,14.515-51.262,27.99
		l-0.002,0.002c-0.4,0.339-0.756,0.735-1.061,1.18c-0.042,0.062-0.089,0.12-0.129,0.184c-0.001,0.002-0.002,0.004-0.004,0.006
		c-0.216,0.342-0.394,0.702-0.535,1.073c-0.001,0.004-0.002,0.006-0.004,0.009c-0.244,0.642-6.014,15.922-10.816,33.701
		c-6.822,25.258-8.07,41.883-3.814,50.824c2.271,4.773,5.738,6.766,8.248,7.598c2.047,0.679,4.236,1.012,6.529,1.012
		c6.668,0,14.191-2.823,21.486-8.191c4.471-3.29,10.02-8.396,15.554-16.106c8.64,9.893,17.551,17.021,26.026,20.829
		c-8.596,14.7-13.643,31.507-13.643,47.051c0,18.013,7.006,34.471,18.514,47.012c-18.57,6.296-56.286,23.62-67.559,62.879
		c-0.014,0.045-0.025,0.089-0.037,0.133c-0.605,2.307-5.637,22.886,3.9,35.244c1.19,1.542,2.82,3.196,4.986,4.64
		c-14.863,15.3-15.816,45.843-1.816,71.069c9.772,17.609,25.014,28.548,39.777,28.548c7.061,0,13.646-2.509,19.043-7.256
		c3.205-2.819,5.846-6.291,7.925-10.239c14.842,5.213,31.673,7.958,49.066,7.959c0.001,0,0.001,0,0.002,0h0.004l0,0
		c17.393-0.001,34.224-2.746,49.066-7.959c2.079,3.948,4.72,7.42,7.925,10.239c5.396,4.747,11.982,7.256,19.043,7.256
		c0,0,0,0,0.002,0c14.762,0,30.004-10.939,39.775-28.548c14.001-25.227,13.047-55.772-1.816-71.069
		c2.167-1.443,3.796-3.098,4.986-4.64c9.537-12.358,4.508-32.938,3.902-35.243c-0.012-0.045-0.023-0.089-0.037-0.134
		c-11.273-39.253-48.982-56.579-67.559-62.88c11.507-12.541,18.512-28.998,18.512-47.011c0-15.552-5.053-32.368-13.655-47.073
		c8.48-3.805,17.392-10.917,26.035-20.813c5.535,7.715,11.087,12.822,15.558,16.112c7.295,5.369,14.816,8.191,21.486,8.191
		c2.291,0,4.482-0.333,6.529-1.012c2.508-0.832,5.977-2.824,8.248-7.598C350.712,106.252,349.466,89.627,342.643,64.369z
		 M99.602,105.946c-7.689,5.657-13.891,6.527-17.127,5.454c-0.176-0.058-0.641-0.212-1.187-1.362
		c-5.341-11.221,5.828-50.457,14.465-73.643c11.984-9.938,24.717-17.369,37.959-22.162
		C132.766,76.563,107.577,100.078,99.602,105.946z M128.913,88.793c1.831-3.413,3.609-7.167,5.287-11.303
		c6.093-15.011,9.786-32.309,11.048-51.602c0.52,0.893,1.044,1.785,1.554,2.685c13.568,23.951,22.419,48.707,23.59,65.67
		c-5.643,4.538-10.792,9.94-15.314,15.916C147.089,107.217,137.856,99.69,128.913,88.793z M97.125,280.675
		c6.65-0.205,21.19,0.973,30.859,13.647c-1.479,6.003-2.377,11.355-2.915,15.48c-3.225-1.009-6.488-1.536-9.729-1.536
		c-2.5,0-4.937,0.32-7.286,0.938c-4.166-0.128-7.149-1.388-9.073-3.872C93.987,298.882,95.905,285.551,97.125,280.675z
		 M143.536,400.643c-3.219,2.83-6.959,4.266-11.117,4.266c-10.248,0-21.744-8.781-29.285-22.371
		c-4.594-8.277-7.271-17.47-8.074-26.212l5.398,4.069c1.082,0.816,2.35,1.209,3.607,1.209c1.818,0,3.617-0.824,4.795-2.389
		c1.996-2.646,1.467-6.408-1.18-8.402l-8.34-6.286c-1.199-0.904-2.629-1.285-4.019-1.19c1.13-7.861,4.101-14.58,8.901-18.803
		c3.217-2.831,6.959-4.267,11.117-4.267c1.289,0,2.598,0.14,3.916,0.41c-1.191,1.293-1.811,3.093-1.527,4.967l1.822,12.022
		c0.449,2.972,3.008,5.103,5.924,5.103c0.299,0,0.602-0.022,0.906-0.068c3.275-0.497,5.529-3.555,5.033-6.831l-1.566-10.336
		c5.527,3.909,10.724,9.803,14.774,17.104C156.157,363.417,155.659,389.979,143.536,400.643z M284.491,404.909
		c-4.158,0-7.898-1.435-11.117-4.266c-12.123-10.664-12.621-37.227-1.086-58.006c4.05-7.301,9.245-13.193,14.771-17.103
		l-1.564,10.335c-0.498,3.276,1.756,6.334,5.033,6.831c0.305,0.046,0.608,0.068,0.906,0.068c2.916,0,5.475-2.131,5.924-5.103
		l1.822-12.022c0.284-1.874-0.335-3.674-1.527-4.967c1.318-0.271,2.627-0.41,3.916-0.41c4.158,0,7.898,1.436,11.119,4.268
		c4.801,4.222,7.771,10.94,8.9,18.803c-1.391-0.096-2.82,0.284-4.02,1.189l-8.34,6.286c-2.647,1.994-3.176,5.756-1.18,8.402
		c1.18,1.564,2.977,2.389,4.795,2.389c1.258,0,2.525-0.393,3.607-1.209l5.398-4.069c-0.802,8.742-3.48,17.936-8.074,26.213
		C306.235,396.128,294.739,404.91,284.491,404.909z M319.783,280.663c1.224,4.883,3.143,18.218-1.855,24.67
		c-1.924,2.484-4.907,3.744-9.073,3.872c-2.349-0.616-4.786-0.938-7.286-0.938c-3.24,0-6.504,0.527-9.728,1.536
		c-0.54-4.137-1.442-9.505-2.928-15.527C298.641,281.544,313.145,280.423,319.783,280.663z M315.045,268.753
		c-8.296,0.488-20.183,3.012-30.169,12.184c-3.894-10.736-9.725-22.149-18.471-31.86c-2.219-2.461-6.014-2.66-8.475-0.442
		c-2.463,2.218-2.66,6.011-0.443,8.474c17.751,19.708,21.968,48.717,22.906,58.425c-7.105,4.947-13.576,12.23-18.6,21.282
		c-9.311,16.774-12.001,35.898-8.395,51.333c-11.832,4.138-25.103,6.564-38.942,7.107v-7.497c0-3.313-2.688-6-6-6
		c-3.315,0-6,2.687-6,6v7.497c-13.842-0.544-27.112-2.97-38.945-7.108c3.605-15.435,0.916-34.558-8.395-51.331
		c-5.023-9.053-11.493-16.336-18.6-21.282c0.94-9.709,5.156-38.718,22.906-58.426c2.217-2.463,2.02-6.256-0.443-8.474
		s-6.256-2.02-8.475,0.442c-8.758,9.725-14.594,21.154-18.486,31.901c-9.972-9.179-21.844-11.723-30.146-12.22
		c15.67-30.315,51.795-42.227,61.719-44.987c10.953,8.104,24.316,13.324,38.865,14.459v9.097c0,3.314,2.685,6,6,6
		c3.312,0,6-2.686,6-6v-9.097c14.551-1.136,27.919-6.358,38.874-14.467C263.277,226.51,299.37,238.362,315.045,268.753z
		 M270.257,167.384c0,32.578-27.725,59.083-61.801,59.083c-34.078,0-61.803-26.505-61.803-59.083
		c0-16.59,6.959-35.521,18.611-50.642c12.43-16.127,27.77-25.009,43.191-25.009s30.76,8.882,43.189,25.009
		C263.298,131.863,270.257,150.794,270.257,167.384z M261.834,110.16c-4.522-5.976-9.672-11.377-15.314-15.915
		c1.17-16.962,10.019-41.719,23.591-65.672c0.509-0.898,1.031-1.79,1.552-2.682c1.262,19.291,4.955,36.588,11.048,51.599
		c1.679,4.136,3.456,7.888,5.286,11.302C279.053,99.69,269.822,107.217,261.834,110.16z M335.622,110.037
		c-0.549,1.151-1.014,1.306-1.188,1.363c-3.238,1.074-9.439,0.204-17.127-5.454c-7.975-5.868-33.164-29.381-34.11-91.713
		c13.241,4.793,25.974,12.225,37.958,22.162C329.792,59.581,340.963,98.817,335.622,110.037z"/>
	<path d="M188.011,150.507c3.313,0,6-2.686,6-6c0-10.275-8.359-18.635-18.635-18.635s-18.635,8.359-18.635,18.635
		c0,3.314,2.686,6,6,6c3.313,0,6-2.686,6-6c0-3.658,2.977-6.635,6.635-6.635s6.635,2.977,6.635,6.635
		C182.011,147.821,184.696,150.507,188.011,150.507z"/>
	<path d="M222.901,144.507c0,3.314,2.685,6,6,6c3.313,0,6-2.686,6-6c0-3.658,2.975-6.635,6.633-6.635
		c3.658,0,6.635,2.977,6.635,6.635c0,3.314,2.688,6,6,6c3.314,0,6-2.686,6-6c0-10.275-8.359-18.635-18.635-18.635
		C231.261,125.873,222.901,134.232,222.901,144.507z"/>
</g>
<g>
</g>
<g>
</g>
<g>
</g>
<g>
</g>
<g>
</g>
<g>
</g>
<g>
</g>
<g>
</g>
<g>
</g>
<g>
</g>
<g>
</g>
<g>
</g>
<g>
</g>
<g>
</g>
<g>
</g>
</svg>
