<?xml version='1.0' encoding='utf-8'?>
<!DOCTYPE svg PUBLIC '-//W3C//DTD SVG 1.1//EN' 'http://www.w3.org/Graphics/SVG/1.1/DTD/svg11.dtd'>
<svg version="1.1" xmlns="http://www.w3.org/2000/svg" viewBox="0 0 512 512" xmlns:xlink="http://www.w3.org/1999/xlink" enable-background="new 0 0 512 512">
  <g>
    <path d="m448.6,188.1c11.2,1.4 21.4-6.5 22.8-17.7 1.4-11.2-6.5-21.4-17.7-22.8-45.1-5.8-77.2,21.3-94.6,41.8-6.1-5.2-12.6-9.8-19.6-13.9 5.5-11.9 8.4-24.9 8.4-38.3 0-30.1-14.7-56.8-37.2-73.4 4.6-6.1 13.1-12.9 27.9-11.9 11.2,0.8 21-7.7 21.8-19 0.8-11.3-7.7-21-19-21.8-36.5-2.5-58.3,18.4-68.6,36.4-5.2-0.9-10.5-1.4-16-1.4-5.4,0-10.8,0.5-16,1.4-10.3-18-32.1-38.9-68.6-36.4-11.2,0.9-19.7,10.6-18.9,21.9 0.8,11.2 10.5,19.8 21.8,19 14.8-1 23.3,5.7 27.9,12-22.5,16.6-37.2,43.3-37.2,73.4 0,13.4 2.9,26.4 8.4,38.3-7.4,4.3-14.3,9.3-20.7,14.8-17.3-20.6-49.7-48.5-95.3-42.7-11.2,1.4-19.1,11.7-17.7,22.8 1.4,11.2 11.6,19.1 22.8,17.7 30.5-3.9 53.1,20.4 63.1,33.9-14.8,23.9-23.1,53-23.1,85.6 0,31.1 7.6,63.4 21.1,92.5-26.3,5.6-66.5,21.3-82.6,64.7-3.9,10.6 1.3,22.7 12,26.2 14.1,4.7 23.2-3.8 26.2-12 12.9-34.2 55.4-40.2 66.8-41.2 27.4,37.2 65.9,63 110,63 43.8,0 82.1-25.4 109.5-62.2 16.3,2.4 49.2,11 60.1,40.3 3.1,8.2 13.6,16.6 26.2,12 10.6-3.8 16-15.7 12-26.2-14.9-40.1-50.2-56.5-76.2-63.2 13.9-29.5 21.8-62.4 21.8-94 0-33.3-8.6-62.9-23.9-87 10.4-13.7 32.4-36.5 62.3-32.6zm-242-50.8c0-27.7 22.5-50.2 50.2-50.2 27.7,0 50.2,22.5 50.2,50.2 0,8-1.8,15.7-5.4,22.6-14-3.7-29-5.6-44.9-5.6-15.9,0-30.9,2-44.9,5.7-3.3-7.1-5.2-14.8-5.2-22.7zm70.7,319.8v-189.1c0-10.9-9.1-19.7-20.4-19.7-11.3,0-20.4,8.8-20.4,19.7v189.1c-49.7-14.7-92.2-80.4-92.2-149.5 0-77.8 56.5-112.6 112.6-112.6 56,0 112.6,34.8 112.6,112.6 0,69.1-42.5,134.9-92.2,149.5z"/>
  </g>
</svg>
