<?xml version='1.0' encoding='iso-8859-1'?>
<!DOCTYPE svg PUBLIC '-//W3C//DTD SVG 1.1//EN' 'http://www.w3.org/Graphics/SVG/1.1/DTD/svg11.dtd'>
<svg version="1.1" xmlns="http://www.w3.org/2000/svg" viewBox="0 0 461.637 461.637" xmlns:xlink="http://www.w3.org/1999/xlink" enable-background="new 0 0 461.637 461.637">
  <g>
    <path d="m206.542,355.501c0.01,0 0.02,0 0.028,0 2.209-0.015 3.987-1.818 3.973-4.027-0.059-8.493 0.612-16.911 1.993-25.02l3.44-20.173c4.104-24.16 6.017-69.646 6.017-92.78 0-2.209-1.791-4-4-4s-4,1.791-4,4c0,22.862-1.876,67.733-5.903,91.437l-3.44,20.171c-1.459,8.571-2.168,17.459-2.106,26.419 0.015,2.201 1.802,3.973 3.998,3.973z"/>
    <path d="m249.1,326.453c1.382,8.116 2.053,16.534 1.993,25.021-0.016,2.209 1.763,4.012 3.972,4.028 0.01,0 0.02,0 0.029,0 2.195,0 3.983-1.773 3.999-3.972 0.063-8.954-0.646-17.843-2.106-26.418l-3.43-20.171c-4.034-23.68-5.913-68.562-5.913-91.438 0-2.209-1.791-4-4-4s-4,1.791-4,4c0,23.149 1.915,68.646 6.026,92.78l3.43,20.17z"/>
    <path d="m254.818,390.523c-8.822,0-16,7.177-16,16 0,4.411-3.589,8-8,8s-8-3.589-8-8c0-8.823-7.178-16-16-16s-16,7.177-16,16c0,2.209 1.791,4 4,4s4-1.791 4-4c0-4.411 3.589-8 8-8s8,3.589 8,8c0,8.823 7.178,16 16,16s16-7.177 16-16c0-4.411 3.589-8 8-8s8,3.589 8,8c0,2.209 1.791,4 4,4s4-1.791 4-4c0-8.823-7.177-16-16-16z"/>
    <path d="m214.091,351.179c0,1.061 0.422,2.078 1.172,2.828l12.729,12.728c0.75,0.75 1.768,1.172 2.828,1.172s2.078-0.421 2.828-1.172l12.728-12.728c1.563-1.562 1.563-4.095 0-5.657l-12.728-12.728c-1.563-1.563-4.096-1.562-5.656,0l-12.729,12.728c-0.75,0.751-1.172,1.768-1.172,2.829zm16.728-7.071l7.07,7.071-7.07,7.071-7.071-7.071 7.071-7.071z"/>
    <path d="m230.819,410.523c2.209,0 4-1.791 4-4v-26.969c6.889-0.707 13.624-3.237 19.398-7.607 1.761-1.333 2.108-3.842 0.775-5.603-1.332-1.761-3.841-2.108-5.604-0.776-10.932,8.274-26.206,8.275-37.142,0-1.764-1.333-4.271-0.986-5.604,0.776-1.333,1.761-0.986,4.27 0.775,5.603 5.774,4.369 12.509,6.9 19.399,7.607v26.969c0.003,2.209 1.794,4 4.003,4z"/>
    <path d="m430.188,4.511c-1.605-2.31-4.014-3.854-6.78-4.346-2.757-0.491-5.544,0.124-7.827,1.724-2.308,1.603-3.851,4.008-4.346,6.772-0.495,2.759 0.115,5.543 1.716,7.839 8.938,12.832 13.662,27.893 13.662,43.554 0,6.381-0.813,12.789-2.413,19.041-7.246,28.095-23.725,52.547-46.503,69.785 9.117-12.856 15.845-27.272 19.81-42.621 0.008-0.026 0.016-0.053 0.022-0.08 0.018-0.057 0.034-0.114 0.049-0.172 6.669-26.013 3.998-53.716-7.522-78.01-2.481-5.223-8.758-7.454-13.989-4.976-5.223,2.482-7.456,8.756-4.978,13.987 9.421,19.866 11.6,42.527 6.139,63.82-0.016,0.053-0.031,0.107-0.046,0.162-0.011,0.037-0.021,0.073-0.03,0.111-7.992,30.842-29.177,56.509-57.179,70.505 5.399-6.124 9.854-12.823 13.325-20.047 16.816-34.946 4.69-70.092 4.163-71.579-0.944-2.645-2.858-4.763-5.389-5.964-2.532-1.202-5.383-1.344-8.014-0.402-2.646,0.937-4.768,2.849-5.972,5.383-1.205,2.536-1.347,5.39-0.415,7.991 0.396,1.164 9.534,28.805-3.292,55.47-4.9,10.171-12.451,19.008-22.521,26.436 1.927-6.269 1.799-13.146-0.672-19.478l-9.828-25.187c-0.654-1.677-2.16-2.873-3.941-3.131-1.785-0.259-3.564,0.461-4.668,1.884-1.136,1.465-26.471,34.562-24.493,65.517-11.618-0.773-23.258-0.773-34.875,0 1.979-30.955-23.357-64.052-24.493-65.517-1.104-1.423-2.883-2.141-4.668-1.884-1.781,0.258-3.287,1.454-3.941,3.131l-9.829,25.187c-2.471,6.333-2.599,13.212-0.67,19.481-10.025-7.396-17.554-16.193-22.457-26.315-13.029-26.928-3.446-55.295-3.349-55.575 1.925-5.448-0.934-11.455-6.367-13.389-2.65-0.947-5.508-0.803-8.046,0.402-2.53,1.202-4.44,3.317-5.373,5.944-0.528,1.472-12.748,36.46 4.15,71.595 3.472,7.218 7.927,13.913 13.321,20.034-28.006-14.008-49.175-39.666-57.165-70.492-0.011-0.043-0.023-0.086-0.035-0.128-0.01-0.035-0.021-0.074-0.033-0.114-5.472-21.301-3.295-43.973 6.131-63.852 2.479-5.229 0.245-11.503-4.981-13.988-2.543-1.205-5.399-1.346-8.046-0.4-2.638,0.944-4.749,2.857-5.941,5.381-11.52,24.292-14.19,51.992-7.521,77.998 0.01,0.037 0.021,0.074 0.03,0.111 0.009,0.033 0.02,0.07 0.03,0.109 3.964,15.369 10.696,29.8 19.827,42.671-22.79-17.239-39.272-41.695-46.51-69.793-1.607-6.24-2.423-12.647-2.423-19.042 0-15.652 4.725-30.713 13.656-43.545 1.608-2.296 2.224-5.081 1.731-7.841-0.492-2.766-2.035-5.174-4.333-6.77-2.292-1.606-5.074-2.222-7.831-1.735-2.769,0.49-5.181,2.031-6.797,4.345-11.4,16.375-17.427,35.583-17.427,55.545 0,8.191 1.039,16.36 3.087,24.278 13.133,50.964 52.755,91.524 103.404,105.851l57.76,16.342-.711,8.103c-0.946,10.776-4.929,21.007-11.518,29.586l-4.109,5.351c-5.132,6.684-6.57,15.434-3.847,23.408l5.65,16.546-4.813,44.41c-0.777,7.163 1.15,14.301 5.426,20.099l16.796,22.779-7.767,19.043c-4.736,11.614-2.632,24.764 5.492,34.319l6.592,7.752c2.64,3.104 6.629,4.704 10.686,4.278 0.86-0.09 1.692-0.287 2.498-0.547 7.743,12.602 19.458,19.985 32.174,19.985 12.72,0 24.433-7.383 32.167-19.985 0.805,0.26 1.636,0.456 2.495,0.547 0.433,0.045 0.863,0.068 1.292,0.068 3.597,0 7.038-1.572 9.396-4.346l6.591-7.752c8.124-9.554 10.229-22.705 5.492-34.319l-7.767-19.044 16.796-22.779c4.274-5.798 6.202-12.936 5.426-20.098l-4.814-44.41 5.65-16.546c2.724-7.975 1.285-16.725-3.847-23.408l-4.108-5.351c-6.589-8.579-10.571-18.81-11.518-29.586l-.712-8.104 57.768-16.341c50.642-14.325 90.26-54.885 103.395-105.848 2.048-7.925 3.087-16.094 3.087-24.281 0.003-19.971-6.023-39.178-17.422-55.542zm-138.418,251.144c2.582,3.362 3.604,7.592 2.914,11.693l-7.742,2.242c-2.539,0.735-4.547,2.57-5.508,5.033s-0.726,5.172 0.645,7.432l6.057,10.196 .784,7.233c-6.36-2.445-15.668-7.002-21.435-14.242-1.948-8.043-3.443-16.178-4.468-24.382l26.158-8.585 2.595,3.38zm-15.19,59.181l-3.668-10.833c-0.513-1.516-1.007-3.037-1.487-4.562 6.826,4.63 14.079,7.448 18.452,8.884l1.529,14.105c-4.09-1.511-9.711-3.983-14.826-7.594zm7.702-69.376l-22.123,7.261c-0.177-2.035-0.33-4.072-0.451-6.114l19.54-6.416c0.927,1.799 1.943,3.554 3.034,5.269zm-11.404-44.029l1.236,14.071c0.061,0.691 0.136,1.38 0.218,2.067-9.204-1.436-16.424-8.942-17.373-18.297 5.316,0.552 10.624,1.27 15.919,2.159zm2.593-64.784l6.4,16.403c2.941,7.536 0.885,16.244-5.116,21.669l-16.334,14.764c-0.033,0.03-0.056,0.066-0.088,0.097-0.661-0.075-1.324-0.134-1.986-0.203-1.972-19.475 9.933-41.463 17.124-52.73zm-86.745,167.356l-3.668,10.833c-5.114,3.61-10.735,6.083-14.826,7.594l1.529-14.105c4.373-1.436 11.626-4.254 18.452-8.884-0.48,1.525-0.974,3.046-1.487,4.562zm-18.858-48.348l2.597-3.381 26.158,8.585c-1.024,8.203-2.52,16.338-4.468,24.38-5.754,7.215-15.069,11.779-21.435,14.233l.827-7.631 6.013-9.788c1.37-2.261 1.604-4.97 0.643-7.433-0.961-2.462-2.968-4.296-5.507-5.031l-7.742-2.242c-0.689-4.1 0.333-8.33 2.914-11.692zm29.612-2.934l-22.123-7.261c1.091-1.714 2.107-3.469 3.033-5.268l19.541,6.415c-0.121,2.042-0.274,4.079-0.451,6.114zm5.197-53.449c-0.948,9.354-8.167,16.86-17.371,18.297 0.082-0.687 0.158-1.376 0.218-2.067l1.235-14.071c5.296-0.889 10.603-1.607 15.918-2.159zm-24.91-46.221l6.401-16.403c7.192,11.267 19.095,33.255 17.123,52.729-0.662,0.07-1.324,0.129-1.986,0.203-0.032-0.031-0.055-0.067-0.088-0.097l-16.335-14.764c-6-5.425-8.057-14.133-5.115-21.668zm-57.075,29.434c-47.921-13.556-85.409-51.93-97.836-100.153-1.88-7.268-2.833-14.763-2.833-22.279 0-18.32 5.53-35.947 15.989-50.97 0.388-0.555 0.966-0.925 1.628-1.042 0.648-0.115 1.307,0.03 1.86,0.418 0.55,0.382 0.918,0.955 1.034,1.611 0.116,0.651-0.028,1.308-0.415,1.859-9.876,14.19-15.097,30.831-15.097,48.125 0,7.068 0.9,14.146 2.676,21.038 9.961,38.674 36.396,70.853 72.525,88.285 1.777,0.858 3.918,0.29 5.036-1.338 1.117-1.628 0.88-3.828-0.56-5.18-17.017-15.979-29.063-36.268-34.835-58.672-0.011-0.043-0.022-0.086-0.035-0.128-0.006-0.024-0.014-0.05-0.021-0.077-6.196-24.19-3.709-49.956 7.01-72.559 0.281-0.596 0.78-1.047 1.404-1.271 0.632-0.226 1.316-0.192 1.922,0.095 1.243,0.591 1.773,2.087 1.183,3.333-10.238,21.59-12.593,46.22-6.629,69.353 0.017,0.067 0.036,0.134 0.057,0.201 0.002,0.005 0.004,0.011 0.005,0.017 10.436,40.194 41.75,72.193 81.757,83.52l.58,.16c1.862,0.514 3.828-0.377 4.668-2.119 0.839-1.741 0.313-3.834-1.25-4.971-11.988-8.721-21.062-19.37-26.969-31.649-15.463-32.152-4.313-64.082-3.825-65.438 0.221-0.623 0.673-1.123 1.271-1.407 0.605-0.288 1.288-0.321 1.927-0.093 1.292,0.46 1.97,1.891 1.52,3.164-0.111,0.31-11.022,31.362 3.683,61.752 7.99,16.494 22.038,29.745 41.778,39.436l6.484,5.861c-1.725,0.281-3.449,0.571-5.172,0.887-2.214,0.405-3.884,2.239-4.08,4.481l-.147,1.679-56.293-15.929zm46.176,152.521l.411-3.787c2.762-0.866 7.132-2.417 11.909-4.807-2.869,9.351-4.028,19.152-3.485,28.871l-5.302-7.191c-2.784-3.775-4.039-8.422-3.533-13.086zm61.955,116.631c-9.575,0-18.555-6.149-24.465-16.583 0.516-0.393 1.183-0.562 1.859-0.423 14.998,3.09 30.207,3.09 45.205,0 0.673-0.138 1.341,0.03 1.859,0.423-5.903,10.433-14.88,16.583-24.458,16.583zm44.323-27.946l-6.59,7.751c-0.694,0.817-1.564,0.86-2.025,0.811-0.458-0.048-1.303-0.27-1.813-1.213-2.603-4.816-7.962-7.307-13.313-6.204-13.66,2.815-27.51,2.815-41.17,0-5.356-1.103-10.711,1.388-13.313,6.203-0.511,0.944-1.354,1.166-1.813,1.214-0.459,0.047-1.329,0.008-2.024-0.811l-6.591-7.752c-5.697-6.7-7.174-15.922-3.852-24.065l8.826-21.641c0.459-1.126 0.492-2.382 0.093-3.531-5.272-15.153-5.342-31.867-0.195-47.064l6.833-20.179c8.041-23.746 12.118-48.5 12.118-73.574 0-2.761-2.238-5-5-5s-5,2.239-5,5c0,1.555-0.018,3.108-0.051,4.66l-16.642-5.464c0.853-2.304 1.578-4.655 2.173-7.045 14.563-0.848 26.243-12.612 26.951-27.212 4.688-0.336 9.379-0.544 14.072-0.619v127.544c0,2.209 1.791,4 4,4s4-1.791 4-4v-127.543c4.692,0.074 9.383,0.283 14.07,0.618 0.708,14.601 12.389,26.366 26.953,27.212 0.594,2.39 1.32,4.741 2.173,7.045l-16.642,5.464c-0.033-1.552-0.051-3.106-0.051-4.66 0-2.761-2.238-5-5-5s-5,2.239-5,5c0,25.073 4.077,49.826 12.117,73.573l6.833,20.18c5.146,15.197 5.077,31.911-0.194,47.064-0.399,1.149-0.366,2.405 0.093,3.531l8.826,21.641c3.32,8.145 1.845,17.366-3.852,24.066zm14.091-75.598l-5.303,7.192c0.543-9.719-0.616-19.521-3.485-28.872 4.777,2.391 9.148,3.942 11.91,4.807l.411,3.787c0.505,4.663-0.749,9.31-3.533,13.086zm147.543-265.758c-12.428,48.221-49.912,86.596-97.826,100.149l-56.303,15.927-.147-1.679c-0.196-2.242-1.866-4.076-4.08-4.481-1.722-0.315-3.447-0.606-5.172-0.887l6.492-5.868c19.8-9.724 33.87-23.018 41.844-39.569 13.988-29.081 4.757-58.28 3.631-61.592-0.225-0.628-0.191-1.306 0.095-1.907 0.284-0.599 0.787-1.052 1.429-1.279 0.626-0.224 1.301-0.191 1.9,0.093 0.602,0.286 1.058,0.792 1.28,1.418 0.479,1.351 11.554,33.451-3.835,65.431-5.901,12.284-14.974,22.932-26.967,31.646-1.562,1.135-2.09,3.222-1.256,4.963 0.834,1.741 2.794,2.637 4.654,2.133l.634-.172c39.979-11.316 71.289-43.304 81.727-83.493 0.004-0.015 0.008-0.03 0.012-0.045 0.021-0.064 0.038-0.128 0.055-0.192 5.963-23.134 3.608-47.764-6.629-69.351-0.591-1.248-0.061-2.743 1.179-3.332 1.249-0.591 2.744-0.061 3.333,1.179 10.709,22.582 13.201,48.331 7.019,72.516-0.007,0.025-0.014,0.05-0.021,0.075-0.018,0.055-0.033,0.111-0.047,0.167-5.773,22.405-17.819,42.694-34.835,58.672-1.439,1.352-1.677,3.552-0.559,5.181 1.118,1.628 3.256,2.197 5.035,1.338 36.116-17.43 62.551-49.608 72.526-88.29 1.769-6.906 2.665-13.983 2.665-21.032 0-17.304-5.221-33.946-15.099-48.127-0.378-0.543-0.522-1.201-0.405-1.854 0.118-0.658 0.486-1.231 1.05-1.623 0.54-0.379 1.195-0.524 1.848-0.408 0.657,0.117 1.229,0.484 1.614,1.039 10.462,15.019 15.992,32.645 15.992,50.974-5.68434e-14,7.51-0.953,15.006-2.833,22.28z"/>
  </g>
</svg>
