<?xml version='1.0' encoding='iso-8859-1'?>
<svg version="1.1" xmlns="http://www.w3.org/2000/svg" viewBox="0 0 470 470" xmlns:xlink="http://www.w3.org/1999/xlink" enable-background="new 0 0 470 470">
  <g>
    <path d="m406.027,194.776h-57.155v-74.965c16.187-7.47 26.724-23.659 26.724-41.85 0-25.429-20.688-46.117-46.117-46.117-4.62,0-9.138,0.687-13.496,2.025-3.941-4.002-8.167-7.728-12.667-11.107-19.829-14.891-43.453-22.762-68.316-22.762s-48.487,7.871-68.316,22.762c-4.5,3.379-8.726,7.105-12.667,11.107-4.358-1.338-8.876-2.025-13.496-2.025-25.429,0-46.117,20.688-46.117,46.117 0,18.19 10.537,34.38 26.724,41.85v74.965h-57.155c-25.551,0-46.338,20.787-46.338,46.338s20.787,46.338 46.338,46.338h57.155v21.048c-22.567,10.433-38.271,33.272-38.271,59.724v36.005c0,36.267 29.505,65.771 65.771,65.771 26.382,0 49.173-15.621 59.643-38.094 8.717,2.098 17.676,3.177 26.729,3.177 9.053,0 18.012-1.079 26.729-3.177 10.47,22.473 33.261,38.094 59.643,38.094 36.267,0 65.771-29.505 65.771-65.771v-36.005c0-26.452-15.704-49.291-38.271-59.724v-21.048h57.155c25.551,0 46.338-20.787 46.338-46.338s-20.787-46.338-46.338-46.338zm-257.399,260.224c-27.996,0-50.771-22.776-50.771-50.771v-36.005c0-27.996 22.776-50.771 50.771-50.771s50.771,22.776 50.771,50.771v36.005c0,27.995-22.775,50.771-50.771,50.771zm223.516-86.777v36.005c0,27.996-22.776,50.771-50.771,50.771s-50.771-22.776-50.771-50.771v-36.005c0-27.996 22.776-50.771 50.771-50.771s50.771,22.776 50.771,50.771zm33.883-95.771h-64.655c-4.142,0-7.5,3.358-7.5,7.5v23.706c-4.049-0.782-8.225-1.206-12.5-1.206-36.267,0-65.771,29.505-65.771,65.771v36.005c0,4.592 0.477,9.073 1.376,13.402-7.176,1.628-14.54,2.453-21.977,2.453-7.437,0-14.801-0.824-21.977-2.452 0.9-4.329 1.376-8.811 1.376-13.402v-36.005c0-36.267-29.505-65.771-65.771-65.771-4.275,0-8.451,0.424-12.5,1.206v-23.706c0-4.142-3.358-7.5-7.5-7.5h-64.655c-17.28,0-31.338-14.058-31.338-31.338s14.058-31.338 31.338-31.338h64.655c4.142,0 7.5-3.358 7.5-7.5v-87.573c0-3.253-2.097-6.135-5.191-7.136-12.879-4.167-21.533-16.064-21.533-29.606 0-17.158 13.959-31.117 31.117-31.117 0.81,0 1.614,0.041 2.414,0.102-7.397,10.166-13.145,21.51-16.823,33.508-1.214,3.96 1.012,8.155 4.972,9.369 3.961,1.213 8.155-1.012 9.369-4.972 4.228-13.793 11.215-26.078 20.234-36.366 0.654-0.516 1.223-1.15 1.684-1.881 18.236-19.752 44.216-31.605 72.629-31.605 28.414,0 54.394,11.853 72.629,31.605 0.46,0.729 1.028,1.361 1.68,1.876 9.021,10.289 16.009,22.576 20.238,36.37 0.989,3.228 3.958,5.304 7.168,5.304 0.728,0 1.469-0.107 2.201-0.332 3.96-1.214 6.187-5.408 4.972-9.369-3.678-11.998-9.426-23.343-16.823-33.508 0.8-0.061 1.604-0.102 2.414-0.102 17.158,0 31.117,13.959 31.117,31.117 0,13.542-8.653,25.44-21.533,29.606-3.095,1.001-5.191,3.883-5.191,7.136v87.573c0,4.142 3.358,7.5 7.5,7.5h64.655c17.28,0 31.338,14.058 31.338,31.338s-14.058,31.338-31.338,31.338z"/>
    <path d="m305.992,182.689c-18.791,19.381-44.003,30.054-70.992,30.054-26.989,0-52.202-10.674-70.993-30.055-2.884-2.974-7.632-3.047-10.605-0.164-2.974,2.883-3.047,7.631-0.164,10.605 21.641,22.321 50.678,34.614 81.762,34.614 31.083,0 60.12-12.292 81.761-34.613 2.883-2.974 2.81-7.722-0.164-10.605-2.973-2.883-7.722-2.81-10.605,0.164z"/>
    <path d="m234.999,157.744c16.159,0 26.676-8.358 31.507-13.341 2.884-2.974 2.811-7.722-0.164-10.605-2.974-2.884-7.722-2.81-10.605,0.164-2.358,2.432-6.778,6.08-13.237,7.807v-18.241c0-4.142-3.358-7.5-7.5-7.5s-7.5,3.358-7.5,7.5v18.24c-6.459-1.727-10.879-5.375-13.236-7.807-2.883-2.974-7.631-3.047-10.605-0.164-2.974,2.883-3.047,7.631-0.164,10.605 4.83,4.984 15.345,13.342 31.504,13.342z"/>
    <path d="m285.601,404.229c0,19.725 16.047,35.771 35.772,35.771 2.677,0 5.374-0.308 8.015-0.916 4.037-0.928 6.557-4.954 5.628-8.99-0.928-4.037-4.954-6.559-8.99-5.628-1.54,0.354-3.105,0.534-4.653,0.534-11.454,0-20.772-9.318-20.772-20.771s9.318-20.771 20.772-20.771 20.771,9.318 20.771,20.771c0,1.547-0.18,3.113-0.534,4.653-0.929,4.037 1.591,8.062 5.628,8.99 4.039,0.931 8.062-1.591 8.99-5.628 0.607-2.641 0.916-5.338 0.916-8.015 0-19.725-16.047-35.771-35.771-35.771s-35.772,16.046-35.772,35.771z"/>
    <path d="m235,242.744c-26.505,0-49.414,19.761-53.288,45.966-0.605,4.098 2.225,7.91 6.323,8.516 4.103,0.604 7.91-2.226 8.516-6.323 2.795-18.903 19.324-33.159 38.449-33.159 19.125,0 35.654,14.255 38.448,33.159 0.551,3.726 3.753,6.404 7.41,6.404 0.365,0 0.734-0.027 1.106-0.082 4.098-0.606 6.928-4.418 6.323-8.516-3.873-26.204-26.782-45.965-53.287-45.965z"/>
    <path d="m148.628,368.457c-19.725,0-35.771,16.047-35.771,35.771s16.046,35.772 35.771,35.772c2.678,0 5.375-0.308 8.016-0.916 4.037-0.929 6.556-4.954 5.627-8.991-0.928-4.037-4.955-6.557-8.991-5.627-1.539,0.354-3.104,0.534-4.652,0.534-11.454,0-20.771-9.318-20.771-20.771s9.318-20.771 20.771-20.771 20.771,9.318 20.771,20.771c0,1.549-0.179,3.114-0.533,4.653-0.929,4.037 1.591,8.062 5.628,8.99 4.039,0.931 8.062-1.591 8.99-5.628 0.607-2.64 0.915-5.336 0.915-8.015-2.84217e-14-19.725-16.046-35.772-35.771-35.772z"/>
  </g>
</svg>
