<?xml version="1.0" encoding="iso-8859-1"?>
<!-- Generator: Adobe Illustrator 18.0.0, SVG Export Plug-In . SVG Version: 6.00 Build 0)  -->
<!DOCTYPE svg PUBLIC "-//W3C//DTD SVG 1.1//EN" "http://www.w3.org/Graphics/SVG/1.1/DTD/svg11.dtd">
<svg version="1.1" id="Capa_1" xmlns="http://www.w3.org/2000/svg" xmlns:xlink="http://www.w3.org/1999/xlink" x="0px" y="0px"
	 viewBox="0 0 454.236 454.236" style="enable-background:new 0 0 454.236 454.236;" xml:space="preserve">
<g>
	<path d="M238.346,324.383h-22.453c-3.313,0-6,2.687-6,6c0,3.314,2.687,6,6,6h22.453c3.313,0,6-2.686,6-6
		C244.346,327.07,241.659,324.383,238.346,324.383z"/>
	<path d="M322.713,324.383h-55.049c-3.314,0-6,2.687-6,6c0,3.314,2.686,6,6,6h55.049c3.314,0,6-2.686,6-6
		C328.713,327.07,326.026,324.383,322.713,324.383z"/>
	<path d="M186.574,324.383h-55.049c-3.314,0-6,2.687-6,6c0,3.314,2.687,6,6,6h55.049c3.313,0,6-2.686,6-6
		C192.574,327.07,189.888,324.383,186.574,324.383z"/>
	<path d="M354.315,324.383h-7.4c-3.314,0-6,2.687-6,6c0,3.314,2.686,6,6,6h7.4c3.313,0,6-2.686,6-6
		C360.315,327.07,357.628,324.383,354.315,324.383z"/>
	<path d="M107.324,324.383h-7.402c-3.313,0-6,2.687-6,6c0,3.314,2.687,6,6,6h7.402c3.313,0,6-2.686,6-6
		C113.324,327.07,110.638,324.383,107.324,324.383z"/>
	<path d="M272.895,314.154c3.314,0,6-2.686,6-6c0-3.313-2.686-6-6-6h-91.551c-3.313,0-6,2.687-6,6c0,3.314,2.687,6,6,6H272.895z"/>
	<path d="M151.857,314.154c3.313,0,6-2.686,6-6c0-3.313-2.687-6-6-6h-7.4c-3.313,0-6,2.687-6,6c0,3.314,2.687,6,6,6H151.857z"/>
	<path d="M309.781,314.154c3.313,0,6-2.686,6-6c0-3.313-2.687-6-6-6h-7.4c-3.313,0-6,2.687-6,6c0,3.314,2.687,6,6,6H309.781z"/>
	<path d="M113.217,302.154H67.441c-3.313,0-6,2.687-6,6c0,3.314,2.687,6,6,6h45.775c3.313,0,6-2.686,6-6
		C119.217,304.841,116.53,302.154,113.217,302.154z"/>
	<path d="M386.797,302.154H341.02c-3.313,0-6,2.687-6,6c0,3.314,2.687,6,6,6h45.777c3.314,0,6-2.686,6-6
		C392.797,304.841,390.11,302.154,386.797,302.154z"/>
	<path d="M448.236,277.591h-36.837c2.969-4.764,5.813-11.124,7.096-19.132c0.318-1.991-0.385-4.009-1.87-5.37
		c-1.487-1.363-3.56-1.89-5.514-1.398c-0.079,0.02-4.017,0.998-9.407,1.988c14.612-14.706,33.546-41.145,28.22-76.018
		c-0.392-2.569-2.396-4.594-4.961-5.015c-0.32-0.053-7.99-1.288-19.767-1.288c-28.724,0-78.696,7.211-108.532,52.52
		c-0.049-6.546,1.337-15.125,6.314-25.154c9.345-18.831,8.65-41.857-1.77-58.662c-8.881-14.321-23.527-22.209-41.242-22.209
		c-3.839,0-7.857,0.373-11.944,1.11c-1.748,0.315-3.268,1.389-4.148,2.933l-16.755,29.381l-16.755-29.381
		c-0.88-1.544-2.399-2.618-4.148-2.933c-4.087-0.736-8.105-1.11-11.944-1.11c-17.715,0-32.361,7.887-41.242,22.207
		c-10.421,16.805-11.117,39.831-1.771,58.663c4.979,10.033,6.365,18.614,6.316,25.157c-29.834-45.318-79.808-52.523-108.533-52.523
		c-11.776,0-19.446,1.235-19.767,1.288c-2.565,0.421-4.568,2.445-4.961,5.015c-5.328,34.874,13.606,61.311,28.219,76.017
		c-5.39-0.989-9.327-1.968-9.406-1.987c-1.953-0.49-4.026,0.035-5.514,1.398c-1.485,1.361-2.188,3.379-1.87,5.37
		c1.281,8.008,4.127,14.368,7.096,19.132H6c-3.313,0-6,2.686-6,6c0,3.313,2.687,6,6,6h200.678c1.505,0,2.954-0.566,4.062-1.584
		c7.65-7.036,13.113-14.296,16.379-21.737c3.266,7.441,8.729,14.701,16.379,21.737c1.107,1.018,2.557,1.584,4.061,1.584h200.678
		c3.314,0,6-2.687,6-6C454.236,280.277,451.55,277.591,448.236,277.591z M204.294,277.591H58.024
		c-1.922-1.869-5.442-5.879-7.982-12.164c6.147,1.138,14.198,2.313,21.229,2.313c2.643,0,4.971-1.731,5.738-4.26
		c0.768-2.527-0.214-5.264-2.41-6.732c-0.44-0.295-42.592-29.031-38.952-72.783c3.124-0.295,7.749-0.606,13.395-0.606
		c28.666,0,80.519,7.776,105.715,59.849c0.985,2.035,3.03,3.344,5.29,3.386c2.227,0.018,4.352-1.189,5.412-3.188
		c0.45-0.85,10.876-21.146-3.451-50.016c-7.426-14.964-6.936-33.853,1.221-47.005c4.677-7.542,13.858-16.532,31.044-16.532
		c2.283,0,4.661,0.165,7.097,0.492l6.329,11.1c-2.636-0.98-5.319-1.573-7.952-1.573c-0.333,0-0.658,0.036-0.987,0.054
		c0.551-0.927,0.858-1.993,0.858-3.077c0-1.58-0.641-3.12-1.76-4.24c-1.11-1.12-2.66-1.76-4.24-1.76c-1.58,0-3.12,0.64-4.24,1.76
		c-1.12,1.12-1.76,2.67-1.76,4.24c0,1.58,0.64,3.13,1.76,4.25c0.439,0.436,0.945,0.796,1.491,1.077
		c-5.604,2.817-11.531,8.207-14.541,15.798c-2.909,7.337-4.159,19.395,6.407,35.168c2.958,4.417,7.291,9.174,11.878,14.209
		C216.408,231.278,230.974,251.723,204.294,277.591z M203.484,199.27c-4.278-4.697-8.319-9.133-10.78-12.807
		c-6.067-9.058-7.873-17.381-5.222-24.068c2.361-5.957,7.929-9.67,11.128-10.405c0.345-0.079,0.727-0.119,1.136-0.119
		c6.387,0,17.215,9.049,22.86,15.471l0.016-0.011c0.301,0.342,0.629,0.665,1.014,0.939c2.507,1.789,5.961,1.387,7.993-0.925
		c5.648-6.425,16.476-15.474,22.863-15.474c0.409,0,0.791,0.04,1.136,0.119c3.198,0.735,8.766,4.448,11.127,10.404
		c2.651,6.688,0.846,15.011-5.222,24.069c-2.462,3.674-6.503,8.11-10.78,12.807c-8.289,9.1-18.369,20.186-23.635,32.92
		C221.854,219.456,211.773,208.37,203.484,199.27z M259.624,207.35c4.587-5.035,8.92-9.792,11.879-14.209
		c10.565-15.774,9.316-27.832,6.407-35.17c-3.009-7.59-8.937-12.979-14.539-15.796c0.548-0.281,1.056-0.641,1.496-1.077
		c1.109-1.12,1.75-2.67,1.75-4.25c0-1.57-0.641-3.12-1.75-4.24c-1.12-1.12-2.67-1.76-4.25-1.76c-1.58,0-3.13,0.64-4.24,1.76
		c-1.12,1.12-1.76,2.66-1.76,4.24c0,1.09,0.307,2.152,0.856,3.076c-0.327-0.018-0.65-0.054-0.981-0.054
		c-2.634,0-5.316,0.593-7.952,1.573l6.329-11.099c2.436-0.327,4.813-0.492,7.097-0.492c17.185,0,26.367,8.991,31.044,16.533
		c8.155,13.151,8.645,32.04,1.219,47.004c-14.325,28.869-3.899,49.166-3.449,50.016c1.06,1.997,3.181,3.207,5.412,3.188
		c2.26-0.042,4.305-1.351,5.29-3.386c25.196-52.073,77.049-59.849,105.715-59.849c5.646,0,10.272,0.311,13.395,0.606
		c3.639,43.752-38.512,72.488-38.945,72.779c-2.203,1.465-3.188,4.199-2.423,6.731c0.766,2.532,3.099,4.265,5.744,4.265
		c7.031,0,15.082-1.175,21.229-2.313c-2.54,6.285-6.06,10.295-7.982,12.164H249.942C223.265,251.722,237.829,231.277,259.624,207.35
		z"/>
</g>
<g>
</g>
<g>
</g>
<g>
</g>
<g>
</g>
<g>
</g>
<g>
</g>
<g>
</g>
<g>
</g>
<g>
</g>
<g>
</g>
<g>
</g>
<g>
</g>
<g>
</g>
<g>
</g>
<g>
</g>
</svg>
