<?xml version="1.0" encoding="iso-8859-1"?>
<!-- Generator: Adobe Illustrator 18.0.0, SVG Export Plug-In . SVG Version: 6.00 Build 0)  -->
<!DOCTYPE svg PUBLIC "-//W3C//DTD SVG 1.1//EN" "http://www.w3.org/Graphics/SVG/1.1/DTD/svg11.dtd">
<svg version="1.1" id="Capa_1" xmlns="http://www.w3.org/2000/svg" xmlns:xlink="http://www.w3.org/1999/xlink" x="0px" y="0px"
	 viewBox="0 0 297 297" style="enable-background:new 0 0 297 297;" xml:space="preserve">
<g>
	<path d="M149.46,292.369c-1.037,2.547,0.365,4.631,3.115,4.631h59.717c2.75,0,4.133-2.076,3.074-4.614l-31.447-75.338
		c-1.059-2.538-2.773-2.53-3.811,0.017L149.46,292.369z"/>
	<path d="M197.615,200.284c-2.75,0-4.133,2.076-3.074,4.614l30.264,72.504c1.059,2.538,2.98,2.627,4.268,0.197l38.666-72.898
		c1.288-2.43,0.093-4.417-2.657-4.417H197.615z"/>
	<path d="M98.839,200.284c-2.75,0-3.93,1.98-2.621,4.397l39.443,72.93c1.309,2.419,3.227,2.315,4.264-0.232l29.492-72.464
		c1.037-2.547-0.365-4.631-3.115-4.631H98.839z"/>
	<path d="M88.037,297h36.648c2.75,0,3.93-1.979,2.621-4.398l-42.58-78.729c-1.309-2.418-2.379-2.147-2.379,0.603v76.836
		C82.347,294.453,84.894,297,88.037,297z"/>
	<path d="M275.781,297c3.141,0,5.69-2.547,5.69-5.689v-76.591c0-2.75-1.055-3.013-2.343-0.583l-41.609,78.445
		c-1.288,2.43-0.093,4.417,2.657,4.417H275.781z"/>
	<path d="M142.935,88.272c20.893,0,25.221-19.761,25.221-44.136C168.156,19.76,163.828,0,142.935,0
		c-20.895,0-37.832,19.76-37.832,44.137C105.103,68.512,122.041,88.272,142.935,88.272z"/>
	<path d="M38.953,87.103c-5.244,0-10.813-2.813-10.813-2.813c-2.455-1.24-6.115-0.728-8.134,1.14l-4.508,4.17
		c-2.019,1.867-2.062,4.968-0.097,6.891c0,0,13.584,13.29,27.023,13.289c6.811,0,13.627-2.757,20.258-8.191
		c0.334-0.274,0.943-0.808,1.973-1.808l8.131-8.565c2.725-2.871,7.252-3.021,10.16-0.338c2.91,2.686,3.125,7.209,0.482,10.156
		c-0.193,0.216-4.725,5.265-8.461,8.919c0,0-1.111,1.17-2.469,2.601c-1.357,1.43-0.283,3.134,2.388,3.787
		c0,0,2.427,0.594,6.976,0.594c7.037,0,13.943-1.9,20.523-5.647c1.934-1.1,4.262-1.249,6.316-0.413
		c2.713,1.105,12.197,6.677,20.357,31.918c5.543,17.146,4.174,37.498,4.174,37.498c-0.185,2.743,1.914,4.988,4.664,4.988h34.293
		c2.75,0,5.378-2.218,5.839-4.929c0,0,1.077-6.329-4.062-24.799c-0.605-2.18-0.158-4.519,1.211-6.32
		c1.369-1.803,3.502-2.861,5.766-2.861h9.498c3.998,0,7.24,3.242,7.24,7.241c0,13.058,1.464,26.696,1.464,26.696
		c0.294,2.734,2.784,4.972,5.534,4.972h29.76c2.75,0,5.557-2.18,6.237-4.845c0,0,5.31-20.787,16.493-37.564
		c19.207-28.81,29.73-69.349,14.607-100.19c5.842-3.896,9.707-10.081,11.107-18.028c0.107-0.607,0.158-1.211,0.158-1.807
		c0-4.926-3.531-9.291-8.551-10.176c-5.627-0.991-10.99,2.766-11.982,8.392c-0.199,1.134-0.625,3.478-2.742,4.729
		c-0.105-0.108-0.207-0.218-0.314-0.324c-9.41-9.413-28.873-14.389-56.281-14.389c-9.586,0-18.305,0.637-24.506,1.252
		c2.695,8.224,3.969,18.518,3.969,31.809c0,16.42-1.941,28.268-6.111,37.287c-6.361,13.755-18.291,21.33-33.59,21.33
		c-14.4,0-27.805-6.387-37.746-17.984c-9.395-10.959-14.566-25.39-14.566-40.633c0-7.029,1.113-13.88,3.219-20.302
		c-8.068,5.299-15.678,13.284-19.699,25.349C63.695,80.524,49.24,87.103,38.953,87.103z"/>
</g>
<g>
</g>
<g>
</g>
<g>
</g>
<g>
</g>
<g>
</g>
<g>
</g>
<g>
</g>
<g>
</g>
<g>
</g>
<g>
</g>
<g>
</g>
<g>
</g>
<g>
</g>
<g>
</g>
<g>
</g>
</svg>
