<?xml version='1.0' encoding='iso-8859-1'?>
<svg version="1.1" xmlns="http://www.w3.org/2000/svg" viewBox="0 0 463.072 463.072" xmlns:xlink="http://www.w3.org/1999/xlink" enable-background="new 0 0 463.072 463.072">
  <g>
    <path d="m167.977,143c4.143,0 7.5-3.358 7.5-7.5v-8c0-4.142-3.357-7.5-7.5-7.5s-7.5,3.358-7.5,7.5v8c0,4.142 3.357,7.5 7.5,7.5z"/>
    <path d="m295.977,143c4.143,0 7.5-3.358 7.5-7.5v-8c0-4.142-3.357-7.5-7.5-7.5s-7.5,3.358-7.5,7.5v8c0,4.142 3.357,7.5 7.5,7.5z"/>
    <path d="m182.473,248.793c13.326,9.162 30.906,14.207 49.504,14.207 18.597,0 36.178-5.045 49.504-14.207 14.185-9.752 21.996-22.996 21.996-37.293 0-20.042-15.543-37.791-40.064-46.327 0.038-0.554 0.064-1.111 0.064-1.673 0-15.164-14.131-27.5-31.5-27.5s-31.5,12.336-31.5,27.5c0,0.562 0.026,1.119 0.064,1.673-24.521,8.536-40.064,26.283-40.064,46.327 2.84217e-14,14.297 7.811,27.541 21.996,37.293zm49.504-97.793c8.944,0 16.5,5.724 16.5,12.5s-7.556,12.5-16.5,12.5-16.5-5.724-16.5-12.5 7.555-12.5 16.5-12.5zm-25.896,28.131c4.32,5.438 10.823,9.453 18.396,11.075v9.294c0,4.687-3.813,8.5-8.5,8.5s-8.5-3.813-8.5-8.5c0-4.142-3.357-7.5-7.5-7.5s-7.5,3.358-7.5,7.5c0,12.958 10.542,23.5 23.5,23.5 6.177,0 11.801-2.399 16-6.31 4.199,3.911 9.823,6.31 16,6.31 12.958,0 23.5-10.542 23.5-23.5 0-4.142-3.357-7.5-7.5-7.5s-7.5,3.358-7.5,7.5c0,4.687-3.813,8.5-8.5,8.5s-8.5-3.813-8.5-8.5v-9.294c7.573-1.621 14.076-5.637 18.396-11.075 18.465,6.282 30.604,18.956 30.604,32.369 0,19.785-25.874,36.5-56.5,36.5s-56.5-16.715-56.5-36.5c2.84217e-14-13.414 12.139-26.087 30.604-32.369z"/>
    <path d="m342.486,242.94c20.595-24.846 32.99-56.722 32.99-91.44 0-22.788-5.348-44.347-14.841-63.502 14.08-8.515 22.841-23.705 22.841-40.498 0-26.191-21.309-47.5-47.5-47.5-16.793,0-31.984,8.761-40.498,22.841-19.155-9.493-40.714-14.841-63.501-14.841-22.788,0-44.347,5.348-63.502,14.841-8.515-14.08-23.706-22.841-40.498-22.841-26.191,0-47.5,21.309-47.5,47.5 0,16.792 8.761,31.983 22.841,40.498-9.493,19.155-14.841,40.714-14.841,63.502 0,34.563 12.284,66.31 32.714,91.108-15.225,8.331-74.222,43.692-64.529,86.547 5.436,24.03 27.731,30.111 42.54,30.111 0.344,0 0.677-0.008 1.013-0.014 1.927,8.02 4.596,15.856 8.002,23.47-3.709,7.093-4.718,15.845-2.797,25.452 2.424,12.121 9.322,24.358 19.423,34.46 13.357,13.357 29.479,20.438 43.589,20.438 7.944,0 15.249-2.247 21.068-6.879 13.667,4.508 27.953,6.807 42.478,6.807 14.539,0 28.819-2.287 42.489-6.798 5.817,4.627 13.116,6.871 21.056,6.871 14.11,0 30.233-7.082 43.59-20.438 10.101-10.102 16.999-22.339 19.423-34.46 1.922-9.609 0.912-18.362-2.798-25.456 3.402-7.61 6.073-15.441 8-23.455 0.046,0 0.089,0.002 0.135,0.002 14.808,0 37.104-6.082 42.539-30.111 9.569-42.314-47.819-77.318-63.926-86.215zm1.951,127.911c-7.307-4.284-16.539-5.541-26.728-3.503-2.372,0.474-4.748,1.126-7.112,1.934-17.873-25.897-47.067-41.282-78.62-41.282-31.551,0-60.747,15.386-78.62,41.282-2.364-0.808-4.74-1.459-7.113-1.934-10.196-2.038-19.425-0.78-26.729,3.503-5.331-13.785-8.038-28.327-8.038-43.352 0-25.806 7.938-50.167 22.999-70.815 25.616,23.763 59.888,38.316 97.501,38.316 37.612,0 71.885-14.553 97.501-38.314 15.061,20.648 22.999,45.009 22.999,70.814-5.68434e-14,15.017-2.708,29.562-8.04,43.351zm-8.46-355.851c17.921,0 32.5,14.58 32.5,32.5 0,11.297-5.827,21.526-15.209,27.399-11.404-17.993-26.697-33.286-44.691-44.691 5.873-9.381 16.102-15.208 27.4-15.208zm-240.5,32.5c0-17.92 14.579-32.5 32.5-32.5 11.297,0 21.525,5.827 27.399,15.209-17.994,11.404-33.286,26.697-44.691,44.691-9.381-5.874-15.208-16.103-15.208-27.4zm136.5-24.5c70.855,0 128.5,57.645 128.5,128.5s-57.645,128.5-128.5,128.5-128.5-57.645-128.5-128.5 57.644-128.5 128.5-128.5zm-160.685,302.845c-5.005-22.129 18.929-44.861 39.692-59.319-9.455,18.803-14.508,39.738-14.508,60.974 0,5.623 0.349,11.185 1.019,16.679-8.194-0.34-22.765-3.134-26.203-18.334zm64.157,106.182c-8.031-8.031-13.473-17.546-15.322-26.795-0.943-4.718-1.677-13.481 4.009-19.167 3.652-3.653 8.575-4.656 12.88-4.656 2.396,0 4.6,0.311 6.286,0.648 9.249,1.85 18.765,7.291 26.795,15.321 8.031,8.031 13.473,17.546 15.322,26.795 0.943,4.718 1.677,13.482-4.008,19.167-9.393,9.391-30.439,4.21-45.962-11.313zm63.38,11.347c2.452-6.436 2.93-13.981 1.298-22.142-2.424-12.121-9.322-24.358-19.423-34.46-4.225-4.225-8.827-7.88-13.634-10.891 15.166-20.668 39.101-32.881 64.907-32.881 25.806,0 49.74,12.213 64.906,32.881-4.807,3.011-9.409,6.666-13.634,10.891-17.716,17.716-24.38,40.287-18.137,56.589-10.729,3.063-21.838,4.638-33.135,4.638-11.293,0.001-22.416-1.561-33.148-4.625zm144.997-38.142c-1.85,9.249-7.291,18.764-15.322,26.795-15.523,15.524-36.573,20.705-45.962,11.314-9.391-9.391-4.209-30.439 11.314-45.962 10.263-10.263 22.939-16.005 33.066-16.005 5.19,0 9.713,1.509 12.896,4.691 5.685,5.686 4.952,14.45 4.008,19.167zm47.953-79.387c-3.318,14.672-17.008,17.783-25.317,18.288 0.667-5.48 1.014-11.026 1.014-16.633 0-20.879-4.886-41.466-14.037-60.023 20.434,14.491 43.238,36.718 38.34,58.368z"/>
  </g>
</svg>
