<?xml version='1.0' encoding='iso-8859-1'?>
<!DOCTYPE svg PUBLIC '-//W3C//DTD SVG 1.1//EN' 'http://www.w3.org/Graphics/SVG/1.1/DTD/svg11.dtd'>
<svg version="1.1" xmlns="http://www.w3.org/2000/svg" viewBox="0 0 471.119 471.119" xmlns:xlink="http://www.w3.org/1999/xlink" enable-background="new 0 0 471.119 471.119">
  <g>
    <path d="m181.371,153.35l4.908,.393c1.543,0.12 3.015-0.653 3.786-1.992 0.771-1.339 0.701-3.003-0.179-4.274l-30.5-44c-1.258-1.815-3.75-2.266-5.566-1.009-1.815,1.259-2.267,3.75-1.009,5.566l25.781,37.192c-1.817-0.01-3.621,0.095-5.408,0.291l-14.163-17.871c-1.372-1.731-3.888-2.021-5.619-0.65-1.731,1.372-2.022,3.888-0.65,5.619l11.665,14.718c-1.87,0.581-3.699,1.283-5.481,2.095l-13.202-16.658c-1.372-1.731-3.888-2.022-5.619-0.65-1.731,1.372-2.022,3.888-0.65,5.619l12.425,15.678c-1.403,0.964-2.764,2-4.066,3.124l-16.258-17.97c-1.482-1.638-4.012-1.765-5.65-0.283-1.638,1.482-1.765,4.012-0.283,5.65l19,21c0.743,0.821 1.794,1.298 2.901,1.316 0.022,0 0.043,0 0.065,0 1.084,0 2.123-0.44 2.877-1.222 8.063-8.349 19.32-12.609 30.895-11.682z"/>
    <path d="m284.84,153.742l4.908-.393c11.582-0.925 22.833,3.333 30.896,11.684 0.754,0.781 1.793,1.222 2.877,1.222 0.021,0 0.043,0 0.065,0 1.107-0.018 2.158-0.495 2.901-1.316l19-21c1.482-1.638 1.355-4.167-0.283-5.65-1.639-1.482-4.168-1.354-5.65,0.283l-16.259,17.97c-1.301-1.124-2.663-2.159-4.067-3.123l12.427-15.679c1.372-1.731 1.081-4.247-0.65-5.619-1.73-1.372-4.247-1.081-5.619,0.65l-13.206,16.663c-1.783-0.811-3.612-1.513-5.482-2.094l11.67-14.724c1.372-1.731 1.081-4.247-0.65-5.619-1.73-1.372-4.247-1.081-5.619,0.65l-14.166,17.874c-1.787-0.197-3.591-0.304-5.405-0.295l25.781-37.192c1.258-1.816 0.807-4.308-1.009-5.566-1.815-1.259-4.308-0.807-5.566,1.009l-30.5,44c-0.88,1.271-0.95,2.935-0.179,4.274 0.77,1.339 2.243,2.112 3.785,1.991z"/>
    <path d="m235.56,193.255c11.214,0 20.442-8.47 21.464-19.702 3.397-37.307 29.948-72.521 30.215-72.872 1.339-1.757 1.001-4.266-0.755-5.606-1.756-1.34-4.265-1.003-5.604,0.752-1.15,1.507-28.212,37.356-31.823,77-0.645,7.085-6.448,12.427-13.498,12.427s-12.853-5.342-13.498-12.427c-3.61-39.644-30.673-75.493-31.823-77-1.34-1.755-3.849-2.092-5.605-0.752-1.756,1.339-2.093,3.849-0.754,5.606 0.268,0.351 26.818,35.565 30.216,72.872 1.022,11.232 10.25,19.702 21.465,19.702z"/>
    <path d="m226.923,173.287c0.053,2.176 1.833,3.903 3.997,3.903 0.033,0 0.066,0 0.099-0.001 2.208-0.054 3.956-1.887 3.902-4.096-0.939-38.854-8.234-75.27-8.308-75.633-0.438-2.166-2.547-3.564-4.714-3.126-2.165,0.438-3.565,2.549-3.126,4.714 0.072,0.357 7.228,36.081 8.15,74.239z"/>
    <path d="m240.1,177.19c0.033,0 0.066,0.001 0.099,0.001 2.164,0 3.944-1.728 3.997-3.903 0.921-38.126 8.078-73.882 8.15-74.239 0.438-2.165-0.961-4.276-3.127-4.714-2.162-0.439-4.275,0.961-4.714,3.126-0.074,0.363-7.368,36.778-8.308,75.633-0.052,2.208 1.695,4.042 3.903,4.096z"/>
    <path d="m121.034,187.484c0.126-2.203-1.555-4.091-3.758-4.222-2.213-0.121-4.099,1.552-4.229,3.757-0.048,0.821-1.05,20.279 10.826,35.679 0.788,1.021 1.973,1.557 3.17,1.557 0.853,0 1.712-0.271 2.44-0.833 1.749-1.349 2.074-3.861 0.725-5.61-10.009-12.978-9.184-30.157-9.174-30.328z"/>
    <path d="m103.121,207.661c-0.327-2.183-2.359-3.687-4.546-3.362-2.185,0.326-3.691,2.362-3.365,4.547 0.069,0.466 1.765,11.5 6.955,18.74 0.781,1.09 2.009,1.67 3.254,1.67 0.807,0 1.622-0.244 2.327-0.75 1.795-1.287 2.208-3.786 0.92-5.582-4.041-5.637-5.522-15.109-5.545-15.263z"/>
    <path d="m83.618,225.466c-0.988-1.976-3.391-2.777-5.367-1.789-1.976,0.988-2.776,3.391-1.789,5.367l2,4c0.701,1.401 2.113,2.212 3.581,2.212 0.601,0 1.212-0.136 1.786-0.423 1.976-0.988 2.776-3.391 1.789-5.367l-2-4z"/>
    <path d="m341.636,223.423c0.728,0.561 1.587,0.833 2.44,0.833 1.198,0 2.382-0.536 3.17-1.557 11.876-15.399 10.874-34.858 10.826-35.679-0.13-2.205-2.034-3.875-4.229-3.757-2.205,0.13-3.887,2.023-3.757,4.229 0.01,0.171 0.894,17.266-9.174,30.321-1.35,1.749-1.025,4.26 0.724,5.61z"/>
    <path d="m363.373,228.506c0.706,0.506 1.521,0.75 2.327,0.75 1.246,0 2.473-0.58 3.254-1.67 5.19-7.24 6.886-18.273 6.955-18.74 0.326-2.183-1.179-4.216-3.362-4.544-2.18-0.327-4.219,1.176-4.55,3.359-0.015,0.095-1.491,9.609-5.545,15.264-1.286,1.795-0.874,4.294 0.921,5.581z"/>
    <path d="m387.29,234.833c0.575,0.287 1.185,0.423 1.786,0.423 1.467,0 2.88-0.811 3.581-2.212l2-4c0.988-1.976 0.187-4.379-1.789-5.367-1.977-0.987-4.378-0.188-5.367,1.789l-2,4c-0.988,1.976-0.187,4.379 1.789,5.367z"/>
    <path d="m281.686,349.815c-8.067-6.204-17.852,0.788-27.315,7.548-6.527,4.663-13.274,9.482-18.812,9.884-5.538-0.402-12.284-5.222-18.811-9.884-9.463-6.76-19.249-13.752-27.315-7.548-4.104,3.157-4.271,6.716-4.006,8.557 1.183,8.204 15.071,14.182 19.299,15.819 2.061,0.796 4.375-0.226 5.172-2.285 0.798-2.059-0.224-4.376-2.282-5.175-8.972-3.485-14.341-8.151-14.274-9.528 0.001-0.004 0.109-0.386 0.969-1.047 3.361-2.586 10.696,2.652 17.788,7.717 7.543,5.388 15.344,10.96 23.25,11.376 0.07,0.003 0.14,0.005 0.21,0.005s0.14-0.002 0.21-0.005c7.907-0.417 15.708-5.988 23.251-11.376 7.092-5.066 14.425-10.302 17.788-7.717 0.86,0.662 0.968,1.043 0.969,1.044 0.067,1.38-5.302,6.046-14.274,9.531-2.059,0.798-3.081,3.114-2.284,5.173 0.798,2.061 3.114,3.083 5.174,2.287 4.229-1.637 18.116-7.615 19.299-15.819 0.266-1.841 0.098-5.4-4.006-8.557z"/>
    <path d="m173.241,163.59c-9.925,0-18,8.075-18,18s8.075,18 18,18h14c2.209,0 4-1.791 4-4v-14c0-9.925-8.075-18-18-18zm10,28h-10c-5.514,0-10-4.486-10-10s4.486-10 10-10 10,4.486 10,10v10z"/>
    <path d="m297.878,199.59c9.925,0 18-8.075 18-18s-8.075-18-18-18-18,8.075-18,18v14c0,2.209 1.791,4 4,4h14zm-10-18c0-5.514 4.486-10 10-10s10,4.486 10,10-4.486,10-10,10h-10v-10z"/>
    <path d="m469.466,279.352c-9.755-7.072-19.625-13.117-29.403-18.304-3.51-9.935-8.918-19.324-16.21-27.588l-20.796-23.569c-9.633-10.918-17.522-23.197-23.448-36.497l-17.983-40.361 10.373-17.036c6.698-11.001 5.681-25.059-2.53-34.981-5.609-6.778-14.188-10.299-22.937-9.419-7.874,0.791-14.888,5.05-19.24,11.543-14.987-9.99-33.616-14.231-52.391-10.842-26.106,4.714-52.578,4.713-78.683,0-18.776-3.391-37.405,0.851-52.391,10.841-4.352-6.492-11.366-10.751-19.24-11.542-8.751-0.878-17.328,2.642-22.937,9.419-8.212,9.923-9.229,23.981-2.53,34.981l10.373,17.036-17.983,40.361c-5.925,13.299-13.814,25.578-23.448,36.497l-20.796,23.569c-7.292,8.264-12.7,17.654-16.21,27.588-9.779,5.187-19.649,11.232-29.403,18.304-1.789,1.296-2.188,3.798-0.891,5.586 0.782,1.08 2.003,1.653 3.242,1.653 0.813,0 1.635-0.248 2.344-0.762 7.194-5.216 14.454-9.851 21.692-13.989-2.77,13.232-2.336,27.032 1.381,40.178-6.915,5.243-13.787,11.009-20.512,17.369-1.605,1.518-1.675,4.05-0.158,5.655 0.787,0.832 1.846,1.251 2.907,1.251 0.987,0 1.975-0.363 2.748-1.094 5.814-5.499 11.743-10.542 17.714-15.175 2.194,5.548 4.996,10.928 8.432,16.034 5.116,7.602 11.32,14.181 18.35,19.625-11.037,10.871-21.869,23.482-31.726,38.047-1.238,1.83-0.759,4.316 1.07,5.555 0.688,0.465 1.467,0.688 2.239,0.688 1.283,0 2.543-0.616 3.316-1.758 9.856-14.563 20.722-27.109 31.776-37.869 8.825,5.54 18.696,9.445 29.263,11.425 18.32,3.432 36.792,0.779 53.133-7.447 24.493,20.608 55.426,31.916 87.587,31.916 32.161,0 63.094-11.308 87.587-31.916 11.671,5.875 24.427,8.913 37.442,8.912 5.207,0 10.457-0.485 15.691-1.466 10.567-1.98 20.437-5.885 29.263-11.425 11.054,10.76 21.92,23.306 31.776,37.869 0.773,1.142 2.033,1.758 3.316,1.758 0.772,0 1.552-0.223 2.239-0.688 1.83-1.238 2.309-3.725 1.07-5.555-9.858-14.565-20.689-27.176-31.727-38.047 7.03-5.443 13.234-12.022 18.35-19.625 3.436-5.106 6.239-10.486 8.432-16.034 5.971,4.633 11.899,9.676 17.714,15.175 0.773,0.731 1.761,1.094 2.748,1.094 1.061,0 2.12-0.42 2.907-1.251 1.518-1.605 1.447-4.137-0.158-5.655-6.725-6.361-13.597-12.126-20.512-17.369 3.719-13.151 4.151-26.956 1.378-40.193 7.256,4.151 14.513,8.797 21.695,14.004 0.709,0.515 1.53,0.762 2.344,0.762 1.238,0 2.459-0.573 3.242-1.653 1.297-1.787 0.898-4.288-0.891-5.585zm-121.734-195.816c4.838-0.486 9.392,1.384 12.492,5.13 4.951,5.982 5.564,14.457 1.525,21.09l-6.06,9.952-2.729-6.124c-3.948-8.862-9.515-16.575-16.219-22.916 2.331-4.061 6.302-6.661 10.991-7.132zm-238.363,26.22c-4.038-6.632-3.425-15.107 1.526-21.09 3.1-3.746 7.653-5.615 12.492-5.13 4.689,0.471 8.66,3.071 10.989,7.132-6.704,6.341-12.27,14.054-16.218,22.917l-2.729,6.124-6.06-9.953zm49.546,248.005l47.069-32.758 4.474,24.109c0.352,1.895 2.005,3.27 3.933,3.27h42.337c1.928,0 3.581-1.375 3.933-3.27l4.474-24.109 47.069,32.758c-21.792,17.126-48.71,26.479-76.645,26.479-27.934,0-54.852-9.352-76.644-26.479zm80.644-59.252c4.265,8.487 10.545,15.87 18.373,21.464l-4.531,24.411h-13.843v-45.875zm-7.999,45.874h-13.842l-4.531-24.411c7.828-5.594 14.108-12.976 18.373-21.463v45.874zm199.669-39.89c-28.409-19.344-56.683-30.209-77.762-36.217-31.257-8.908-53.353-9.382-54.278-9.398-2.193-0.075-4.028,1.721-4.067,3.929-0.039,2.208 1.72,4.03 3.928,4.07 0.218,0.004 22.179,0.497 52.487,9.167 20.938,5.99 49.206,16.921 77.408,36.578-2.006,5.816-4.773,11.447-8.333,16.736-4.754,7.065-10.591,13.12-17.254,17.998-18.654-16.738-37.317-28.7-52.349-36.831-28.586-15.463-50.056-20.709-50.956-20.925-2.147-0.515-4.304,0.809-4.821,2.955-0.516,2.147 0.807,4.307 2.954,4.824 0.212,0.051 21.544,5.287 49.257,20.313 14.082,7.635 31.458,18.748 48.926,34.154-6.838,3.869-14.337,6.638-22.298,8.13-19.141,3.585-38.485-0.564-54.469-11.688l-54.22-37.734c-9.309-6.478-15.95-16.105-18.7-27.107l-5.3-21.199c-0.667-2.671-3.068-4.545-5.821-4.545-2.753,0-5.153,1.874-5.821,4.545l-5.299,21.199c-2.75,11.002-9.392,20.629-18.7,27.107l-54.22,37.734c-15.985,11.124-35.33,15.274-54.469,11.688-7.961-1.492-15.46-4.261-22.298-8.13 17.468-15.406 34.844-26.519 48.926-34.154 27.712-15.026 49.045-20.262 49.257-20.313 2.147-0.516 3.47-2.674 2.955-4.822-0.515-2.148-2.674-3.471-4.822-2.957-0.9,0.216-22.37,5.462-50.956,20.925-15.031,8.131-33.694,20.093-52.349,36.831-6.663-4.877-12.5-10.932-17.254-17.997-3.559-5.289-6.326-10.92-8.332-16.736 28.201-19.657 56.469-30.589 77.408-36.578 30.308-8.67 52.269-9.164 52.487-9.167 2.208-0.039 3.966-1.86 3.929-4.068-0.038-2.209-1.89-3.966-4.068-3.931-0.925,0.016-23.021,0.49-54.278,9.398-21.08,6.007-49.353,16.873-77.762,36.217-2.929-13.439-1.952-27.479 2.814-40.39 28.391-13.779 55.464-20.255 75.613-23.266 31.177-4.659 53.016-2.296 53.232-2.272 2.191,0.243 4.175-1.329 4.424-3.523 0.249-2.195-1.328-4.177-3.523-4.426-0.919-0.104-22.89-2.503-55.039,2.268-18.735,2.781-43.268,8.46-69.384,19.944 2.336-4.011 5.075-7.846 8.236-11.429l20.793-23.57c10.44-11.833 18.99-25.14 25.411-39.552l8.502-19.082 .172,.037c11.495,2.459 19.688,12.775 19.482,24.528-0.167,9.542 3.83,18.649 10.967,24.984 6.016,5.34 13.72,8.231 21.655,8.231 1.479,0 2.967-0.101 4.453-0.305l17.882-2.454c2.188-0.3 3.719-2.318 3.419-4.507s-2.316-3.72-4.507-3.419l-17.882,2.454c-7.137,0.978-14.321-1.202-19.709-5.984-5.388-4.783-8.406-11.657-8.279-18.861 0.264-15.064-9.889-28.345-24.34-32.141l14.833-33.292c6.739-15.126 19.11-26.261 33.794-31.665l29.966,59.77c12.55,25.032 14.04,54.401 4.086,80.575-2.396,6.3-0.964,13.214 3.735,18.046 3.308,3.401 7.692,5.211 12.218,5.211 1.903,0 3.831-0.32 5.714-0.978l.177-.062c4.77-1.664 8.333-5.395 9.776-10.235 1.443-4.841 0.504-9.913-2.576-13.917-1.347-1.75-3.858-2.078-5.609-0.731s-2.079,3.858-0.731,5.609c1.495,1.943 1.95,4.404 1.25,6.754-0.701,2.349-2.43,4.159-4.742,4.966l-.177,.062c-3.446,1.201-7.021,0.358-9.564-2.258-2.544-2.616-3.289-6.213-1.992-9.624 10.748-28.263 9.14-59.975-4.412-87.005l-29.313-58.467c4.127-0.903 8.38-1.373 12.694-1.373 3.529,0 7.1,0.313 10.676,0.959 27.519,4.969 55.427,4.969 82.947,0 7.948-1.435 15.862-1.218 23.365,0.424l-29.308,58.458c-13.552,27.031-15.16,58.743-4.412,87.005 1.297,3.411 0.552,7.008-1.992,9.624-2.544,2.616-6.121,3.458-9.566,2.257l-.173-.061c-2.314-0.808-4.043-2.618-4.744-4.967-0.7-2.35-0.245-4.811 1.25-6.754 1.347-1.751 1.02-4.263-0.731-5.609-1.751-1.346-4.263-1.019-5.609,0.731-3.08,4.004-4.019,9.076-2.576,13.917 1.443,4.841 5.006,8.571 9.778,10.236l.173,.061c1.884,0.657 3.813,0.978 5.717,0.978 4.525,0 8.91-1.811 12.217-5.211 4.699-4.832 6.13-11.746 3.735-18.046-9.954-26.174-8.464-55.542 4.086-80.575l29.965-59.767c14.684,5.403 27.056,16.535 33.795,31.661l14.833,33.292c-14.452,3.796-24.604,17.077-24.34,32.141 0.126,7.204-2.891,14.078-8.279,18.861-5.387,4.783-12.57,6.963-19.709,5.984l-17.882-2.454c-2.19-0.3-4.207,1.23-4.507,3.419s1.23,4.207 3.419,4.507l17.882,2.454c1.486,0.204 2.973,0.305 4.453,0.305 7.935,0 15.64-2.892 21.655-8.231 7.137-6.335 11.134-15.442 10.967-24.984-0.206-11.753 7.987-22.069 19.482-24.528l.172-.037 8.502,19.082c6.421,14.413 14.971,27.72 25.411,39.552l20.796,23.569c3.161,3.583 5.9,7.417 8.236,11.429-26.117-11.484-50.649-17.163-69.384-19.944-32.148-4.772-54.119-2.372-55.039-2.268-2.195,0.25-3.772,2.231-3.523,4.426 0.25,2.195 2.23,3.765 4.426,3.523 0.73-0.084 62.667-6.578 128.836,25.52 4.766,12.917 5.745,26.964 2.815,40.409z"/>
    <path d="m253.512,217.025c1.289,0 2.554-0.622 3.326-1.772 1.23-1.834 0.741-4.319-1.093-5.55-12.262-8.227-28.108-8.227-40.37,0-1.834,1.231-2.324,3.716-1.093,5.55 1.23,1.834 3.715,2.325 5.55,1.093 9.554-6.41 21.9-6.411 31.456,0 0.683,0.459 1.458,0.679 2.224,0.679z"/>
  </g>
</svg>
