<?xml version='1.0' encoding='iso-8859-1'?>
<!DOCTYPE svg PUBLIC '-//W3C//DTD SVG 1.1//EN' 'http://www.w3.org/Graphics/SVG/1.1/DTD/svg11.dtd'>
<svg version="1.1" xmlns="http://www.w3.org/2000/svg" viewBox="0 0 458.978 458.978" xmlns:xlink="http://www.w3.org/1999/xlink" enable-background="new 0 0 458.978 458.978">
  <g>
    <path d="m458.847,297.294c-5.016-23.577-20.055-54.596-38.068-85.732-1.501-3.456-2.632-12.005 3.666-32.388 4.619-14.947 12.521-33.937 23.488-56.442 9.591-19.683 5.854-42.468-9.522-58.048-15.367-15.571-38.085-19.606-57.878-10.282l-53.086,25.007-32.124-3.407c-43.684-4.633-87.983-4.633-131.667,0l-32.124,3.407-53.086-25.007c-19.792-9.324-42.512-5.289-57.878,10.282-15.376,15.58-19.113,38.365-9.522,58.048 30.976,63.566 29.645,83.101 27.15,88.836-18.011,31.133-33.049,62.15-38.065,85.726-0.377,1.771 0.066,3.617 1.206,5.024 1.139,1.407 2.853,2.225 4.663,2.225 15.399,0 53.55,22.632 90.445,44.519 50.119,29.732 101.945,60.476 133.043,60.476 31.099,0 82.925-30.744 133.044-60.476 36.895-21.887 75.046-44.519 90.445-44.519 1.811,0 3.524-0.817 4.663-2.225 1.14-1.407 1.584-3.253 1.207-5.024zm-85.293-159.668c-0.029-0.838-0.026-1.654-0.038-2.481 16.732,7.18 31.191,19.114 41.439,34.254-2.864,8.389-4.876,15.789-6.06,22.263-11.774-19.155-24.115-37.752-35.341-54.036zm19.964-59.163c17.339,6.928 33.106,16.81 46.953,29.437-0.662,3.12-1.74,6.321-3.326,9.576-0.425,0.871-0.837,1.727-1.252,2.587-14.364-13.975-31.531-24.841-50.255-31.774 2.302-3.507 4.927-6.784 7.88-9.826zm-11.917,16.875c19.019,6.826 36.39,17.929 50.651,32.373-1.9,4.05-3.689,7.967-5.366,11.747-13.66-14.932-30.642-26.196-49.692-32.936 1.183-3.924 2.656-7.65 4.407-11.184zm36.646,64.96c-11.46-15.067-26.914-26.805-44.54-33.722 0.266-4.252 0.775-8.346 1.544-12.264 18.64,6.735 35.131,18.13 48.123,33.241-1.879,4.451-3.586,8.696-5.127,12.745zm22.971-62.38c-12.422-10.509-26.207-19.019-41.148-25.401 5.891-4.638 11.46-7.419 15.024-8.917 5.888,2.15 10.938,5.625 14.775,9.513 5.845,5.923 10.702,14.641 11.349,24.805zm-55.571-32.66c5.712-2.691 11.246-3.862 16.442-3.915-4.031,2.497-8.499,5.793-12.901,10.093-10.244,10.005-21.727,27.238-23.47,54.932-12.209-17.374-22.388-31.107-27.979-38.542l47.908-22.568zm-60.371,25.989c12.832,16.956 101.145,135.179 119.932,200.999-4.336-1.035-10.056-2.204-16.814-3.125-0.86-31.31-17.137-76.873-87.266-121.08-11.818-7.459-20.828-18.713-25.36-31.66l-1.402-4.105c-3.693-10.813-12.59-18.6-23.797-20.83-6.429-1.279-12.852-0.568-18.589,1.882l9.97-26.539c4.04,0.347 8.078,0.721 12.108,1.148l31.218,3.31zm-124.802-6.021l25.274,67.269c0.586,1.56 2.078,2.593 3.745,2.593s3.158-1.033 3.745-2.593l25.274-67.269c5.051,0.239 10.097,0.541 15.138,0.905l-44.156,117.547-44.159-117.547c5.042-0.364 10.088-0.666 15.139-0.905zm64.096,238.14c-0.378-1.344-0.998-2.632-1.854-3.81-2.273-3.129-5.794-4.924-9.662-4.924h-19.562v-29.558l49.771,31.608-18.693,6.684zm-35.081,24.267c-12.478,0-23.454-7.972-27.314-19.838-0.395-1.214-0.191-2.503 0.56-3.536 0.75-1.033 1.913-1.625 3.189-1.625h47.13c1.276,0 2.439,0.593 3.189,1.625 0.75,1.033 0.954,2.322 0.56,3.536-3.86,11.865-14.836,19.838-27.314,19.838zm-33.227-28.076c-0.855,1.177-1.475,2.464-1.853,3.808l-18.687-6.682 49.771-31.608v29.558h-19.568c-3.869,0-7.39,1.794-9.663,4.924zm-112.159-84.382l-1.982-25.974 22.212,5.758c-6.735,5.759-12.764,11.655-18.05,17.656-0.749,0.852-1.462,1.706-2.18,2.56zm38.965-57.942l20.289,9.299c-3.009,2.484-6.183,4.786-9.508,6.883-5.354,3.376-10.437,6.823-15.258,10.331l4.477-26.513zm35.478-44.24l12.265,15.2c-3.595,9.563-8.81,18.445-15.348,26.276l3.083-41.476zm101.898,11.039l1.486,35.22-22.681,21.204 21.195-56.424zm-26.952,78.751l23.554,16.663-23.554,27.523v-44.186zm-8,44.187l-23.554-27.523 23.554-16.663v44.186zm-28.437-87.718l1.486-35.219 21.195,56.423-22.681-21.204zm-7.286-17.102c-3.454-6.94-6.839-11.961-8.988-14.858l10.11-11.737-1.122,26.595zm33.406,52.473l-21.858,15.464c1.6-14.149 0.715-26.623-1.229-37.047l23.087,21.583zm-24.956,32.78l25.236,29.488-49.793,31.622c2.782-8.219 6.072-15.94 9.866-23.103 7.125-13.453 11.803-26.178 14.691-38.007zm37.311,29.489l25.231-29.483c2.888,11.827 7.565,24.55 14.69,38.001 3.793,7.162 7.082,14.881 9.864,23.098l-49.785-31.616zm.28-62.269l23.08-21.577c-1.943,10.422-2.827,22.892-1.228,37.035l-21.852-15.458zm33.405-52.485l-1.121-26.583 10.106,11.733c-2.147,2.896-5.531,7.913-8.985,14.85zm34.307,12.34c-6.542-7.834-11.76-16.719-15.353-26.28l12.27-15.205 3.083,41.485zm36.873,29.273c-4.824-3.509-9.909-6.959-15.265-10.336-3.324-2.096-6.497-4.397-9.506-6.881l20.293-9.301 4.478,26.518zm34.486,31.43c-0.719-0.856-1.435-1.712-2.187-2.566-5.285-6.001-11.314-11.896-18.048-17.655l22.217-5.759-1.982,25.98zm7.416,7.965l2.305-30.222c13.994,14.712 22.875,28.954 28.293,42.092l-30.598-11.87zm30.708,20.494l-15.326,18.134c-1.364-9.32-4.615-18.624-9.74-27.858l25.066,9.724zm-63.763-55.544l-4.787-28.348c11.049,7.404 20.567,14.808 28.746,22.137l-23.959,6.211zm-37.33-28.661l-2.832-38.108c4.506,11.492 12.136,21.661 21.943,29.348l-19.111,8.76zm-28.386-38.222l-14.443-16.769c5.473-4.672 12.695-6.591 19.924-5.154 3.35,0.667 6.417,2.007 9.077,3.882l-14.558,18.041zm-108.067,0l-14.564-18.049c2.66-1.875 5.727-3.216 9.079-3.882 7.253-1.442 14.496,0.493 19.936,5.153l-14.451,16.778zm-28.387,38.222l-19.115-8.761c9.814-7.689 17.445-17.864 21.949-29.377l-2.834,38.138zm-37.33,28.661l-23.961-6.211c8.181-7.331 17.7-14.737 28.75-22.143l-4.789,28.354zm-35.359,4.828l2.305,30.222-30.596,11.869c5.42-13.138 14.301-27.38 28.291-42.091zm-3.345,40.995c-5.122,9.23-8.372,18.531-9.737,27.85l-15.321-18.129 25.058-9.721zm-29.913,16.371l14.555,17.223c-2.592-0.022-5.199-0.006-7.836,0.096-3.2,0.123-6.281,0.332-9.225,0.599 0.225-5.538 0.981-11.54 2.506-17.918zm96.99-70.108c17.103-10.782 30.571-26.551 38.482-44.904 3.897,5.882 9.717,16.246 13.581,30.314 5.791,21.08 8.11,54.859-13.721,96.075-7.822,14.769-13.609,31.721-17.252,50.461-7.525-5.915-16.013-12.562-26.311-20.286-17.876-13.407-39.804-21.428-64.236-23.678 2.446-39.885 44.242-72.084 69.457-87.982zm31.322,122.749l25.809,9.229c4.896,12.685 16.301,21.521 29.649,23.185-0.704,2.177-2.013,4.132-3.836,5.62-2.819,2.301-6.481,3.203-10.048,2.475-14.857-3.036-25.614-10.783-44.7-25.732 0.885-5.062 1.928-9.99 3.126-14.777zm56.681,44.231c1.277-1.042 2.405-2.221 3.371-3.507 0.966,1.286 2.095,2.465 3.372,3.507 3.624,2.958 8.085,4.526 12.662,4.526 1.111,0 2.228-0.116 3.342-0.303-3.715,7.01-11.063,11.653-19.372,11.653-8.307,0-15.653-4.636-19.372-11.636 5.701,0.956 11.495-0.565 15.997-4.24zm21.849-3.722c-3.566,0.729-7.228-0.173-10.048-2.475-1.823-1.488-3.133-3.443-3.837-5.62 13.347-1.664 24.751-10.499 29.648-23.183l25.811-9.23c1.198,4.786 2.241,9.714 3.126,14.775-19.086,14.95-29.842,22.697-44.7,25.733zm51.806-31.312c-3.643-18.74-9.43-35.692-17.252-50.461-17.449-32.942-22.101-65.137-13.827-95.689 3.846-14.2 9.751-24.727 13.691-30.686 7.906,18.34 21.374,34.107 38.478,44.89 56.649,35.715 68.199,69.212 69.449,87.983-24.426,2.253-46.355,10.272-64.228,23.676-10.298,7.724-18.787,14.372-26.311,20.287zm118.085-61.837c1.524,6.378 2.276,12.38 2.499,17.917-2.944-0.268-6.023-0.476-9.223-0.599-2.636-0.101-5.24-0.118-7.831-0.095l14.555-17.223zm-167.766-185.405l-20.6,54.829-20.6-54.829c13.728-0.46 27.473-0.46 41.2,0zm-85.17,3.05c4.033-0.428 8.072-0.802 12.114-1.149l9.966,26.529c-5.736-2.45-12.16-3.158-18.588-1.88-11.207,2.229-20.103,10.014-23.799,20.826l-1.398,4.092c-4.531,12.974-13.54,24.227-25.367,31.685-70.101,44.195-86.392,89.761-87.268,121.082-6.757,0.921-12.476,2.09-16.811,3.125 18.785-65.807 107.099-184.041 119.932-200.999l31.219-3.311zm-129.273,59.729c12.976-15.13 29.456-26.542 48.086-33.301 0.767,3.92 1.275,8.013 1.539,12.266-17.617,6.944-33.057,18.707-44.496,33.795-1.539-4.052-3.248-8.303-5.129-12.76zm-13.816-30.19c-1.568-3.217-2.638-6.382-3.302-9.467 13.848-12.653 29.622-22.557 46.969-29.503 2.949,3.043 5.571,6.322 7.87,9.829-18.722,6.951-35.883,17.834-50.237,31.826-0.43-0.891-0.86-1.782-1.3-2.685zm4.941,10.332c14.249-14.461 31.612-25.581 50.625-32.426 1.747,3.535 3.217,7.262 4.399,11.186-19.042,6.761-36.011,18.049-49.657,33-1.678-3.787-3.465-7.703-5.367-11.76zm46.558-62.549l47.908,22.568c-5.591,7.435-15.77,21.168-27.979,38.542-1.742-27.694-13.226-44.927-23.47-54.932-4.402-4.3-8.87-7.595-12.901-10.093 5.196,0.053 10.73,1.224 16.442,3.915zm-44.223,7.855c3.837-3.888 8.887-7.363 14.775-9.513 3.574,1.502 9.166,4.295 15.075,8.957-14.965,6.403-28.769,14.944-41.205,25.489 0.615-10.218 5.486-18.986 11.355-24.933zm14.96,96.429c10.224-15.164 24.669-27.123 41.392-34.333-0.012,0.806-0.009,1.601-0.037,2.417-11.225,16.283-23.565,34.879-35.339,54.033-1.177-6.434-3.18-13.793-6.016-22.117zm312.342,169.199c-46.458,27.56-99.114,58.797-126.922,58.797-27.807,0-80.463-31.237-126.921-58.796-29.32-17.393-55.827-33.113-75.495-40.951 24.249-3.946 66.381-5.529 101.022,20.452 11.032,8.274 20.009,15.333 27.93,21.561 18.89,14.853 30.749,24.172 44.532,29.027 3.45,13.003 15.253,22.209 28.936,22.209 13.677,0 25.476-9.206 28.926-22.208 13.785-4.854 25.643-14.173 44.535-29.027 7.921-6.228 16.899-13.288 27.931-21.562 34.575-25.931 76.718-24.368 100.989-20.438-19.666,7.84-46.16,23.552-75.463,40.936z"/>
    <path d="m323.788,216.833c-1.468-3.721-3.482-6.005-6.157-6.982-4.21-1.538-8.374,0.71-12.782,3.089-2.083,1.124-4.237,2.286-6.59,3.215-2.353,0.928-4.72,1.55-7.01,2.15-4.846,1.272-9.423,2.473-11.449,6.47-1.287,2.54-1.199,5.583 0.269,9.305 2.303,5.839 6.743,10.431 12.5,12.931 3.002,1.304 6.176,1.957 9.354,1.957 2.916,0 5.835-0.55 8.629-1.652 12.053-4.755 17.991-18.43 13.236-30.483zm-16.172,23.041c-3.851,1.519-8.063,1.448-11.861-0.201-3.797-1.649-6.726-4.678-8.245-8.529-0.825-2.091-0.578-2.746-0.575-2.752 0.4-0.789 4.121-1.766 6.344-2.349 2.399-0.63 5.118-1.344 7.915-2.447 2.796-1.103 5.271-2.438 7.453-3.616 1.871-1.01 4.908-2.648 6.011-2.648 0.09,0 0.167,0.011 0.229,0.033 0.006,0.002 0.634,0.312 1.458,2.403 3.137,7.951-0.779,16.97-8.729,20.106z"/>
    <path d="m148.426,247.316c2.822,1.113 5.731,1.64 8.596,1.64 9.37,0 18.246-5.645 21.887-14.876 1.468-3.722 1.556-6.765 0.269-9.305-2.026-3.997-6.603-5.198-11.449-6.47-2.29-0.601-4.657-1.222-7.01-2.151s-4.506-2.091-6.59-3.215c-4.408-2.379-8.572-4.626-12.782-3.089-2.675,0.977-4.688,3.26-6.157,6.982-4.754,12.054 1.183,25.729 13.236,30.484zm-5.794-27.547c0.825-2.092 1.453-2.401 1.459-2.403 0.062-0.023 0.139-0.033 0.229-0.033 1.103,0 4.14,1.639 6.011,2.648 2.183,1.178 4.657,2.513 7.453,3.616 2.796,1.103 5.515,1.817 7.915,2.447 2.223,0.583 5.944,1.56 6.344,2.349 0.003,0.006 0.25,0.661-0.575,2.752-1.52,3.851-4.448,6.88-8.245,8.529-3.798,1.648-8.01,1.72-11.861,0.201-7.95-3.137-11.866-12.156-8.73-20.106z"/>
    <path d="m338.273,249.626c1.32,0 2.61-0.53 3.54-1.46s1.46-2.22 1.46-3.54c0-1.31-0.53-2.6-1.46-3.53s-2.22-1.46-3.54-1.46c-1.32,0-2.61,0.53-3.53,1.46-0.93,0.93-1.47,2.22-1.47,3.53 0,1.32 0.54,2.61 1.47,3.54 0.92,0.93 2.21,1.46 3.53,1.46z"/>
    <path d="m332.113,257.296c0-1.71-0.7-3.38-1.91-4.59-1.21-1.21-2.88-1.91-4.6-1.91-1.71,0-3.38,0.7-4.59,1.91-1.21,1.2-1.91,2.88-1.91,4.59 0,1.71 0.7,3.39 1.91,4.6 1.21,1.21 2.88,1.9 4.59,1.9 1.72,0 3.39-0.69 4.6-1.9 1.21-1.21 1.91-2.89 1.91-4.6z"/>
    <path d="m308.943,259.296c-2.11,0-4.17,0.86-5.66,2.34-1.49,1.49-2.34,3.56-2.34,5.66 0,2.11 0.85,4.17 2.34,5.66 1.49,1.49 3.55,2.34 5.66,2.34 2.1,0 4.17-0.85 5.65-2.34 1.49-1.49 2.35-3.55 2.35-5.66 0-2.1-0.86-4.17-2.35-5.66-1.48-1.48-3.55-2.34-5.65-2.34z"/>
    <path d="m150.035,259.296c-2.1,0-4.16,0.86-5.65,2.35-1.49,1.49-2.35,3.55-2.35,5.65 0,2.11 0.86,4.17 2.35,5.66 1.48,1.49 3.55,2.34 5.65,2.34 2.11,0 4.17-0.85 5.66-2.34 1.49-1.49 2.34-3.55 2.34-5.66 0-2.1-0.85-4.16-2.34-5.65-1.49-1.49-3.55-2.35-5.66-2.35z"/>
    <path d="m137.965,261.896c1.21-1.21 1.9-2.89 1.9-4.6 0-1.71-0.69-3.38-1.9-4.59-1.21-1.21-2.89-1.91-4.6-1.91-1.71,0-3.38,0.7-4.59,1.91-1.21,1.2-1.91,2.88-1.91,4.59 0,1.71 0.7,3.39 1.91,4.6 1.21,1.21 2.88,1.9 4.59,1.9 1.71,0 3.39-0.69 4.6-1.9z"/>
    <path d="m120.705,239.636c-1.32,0-2.61,0.53-3.54,1.46s-1.46,2.22-1.46,3.54c0,1.31 0.53,2.6 1.46,3.53s2.22,1.47 3.54,1.47c1.32,0 2.6-0.54 3.53-1.47s1.47-2.22 1.47-3.53c0-1.32-0.54-2.61-1.47-3.54s-2.22-1.46-3.53-1.46z"/>
  </g>
</svg>
