<?xml version="1.0" encoding="iso-8859-1"?>
<!-- Generator: Adobe Illustrator 18.0.0, SVG Export Plug-In . SVG Version: 6.00 Build 0)  -->
<!DOCTYPE svg PUBLIC "-//W3C//DTD SVG 1.1//EN" "http://www.w3.org/Graphics/SVG/1.1/DTD/svg11.dtd">
<svg version="1.1" id="Capa_1" xmlns="http://www.w3.org/2000/svg" xmlns:xlink="http://www.w3.org/1999/xlink" x="0px" y="0px"
	 viewBox="0 0 297 297" style="enable-background:new 0 0 297 297;" xml:space="preserve">
<g>
	<g>
		<path d="M129.687,201.879c-7.727-2.613-15.098-6.327-22.008-11.083H58.214c-2.75,0-3.977,2.004-2.727,4.453l41.522,81.332
			c1.25,2.449,3.08,2.353,4.066-0.214L129.687,201.879z"/>
		<path d="M51.142,121.215c12.508,15.011,29.039,22.945,47.803,22.945c6.73,0,11.76-2.245,14.953-6.675
			c7.256-10.067,3.398-30.055,0.344-39.217H42.757c-2.75,0-4.276,2.131-3.392,4.734C39.365,103.003,41.702,109.888,51.142,121.215z"
			/>
		<path d="M243.73,72.585c-0.498-2.476-2.244-4.516-4.617-5.384c-0.813-0.298-1.658-0.444-2.496-0.444
			c-1.613,0-3.205,0.538-4.506,1.57c-2.188,1.736-4.301,3.427-6.346,5.063c-17.867,14.305-29.67,23.755-43.068,23.755
			c-5.781,0-12.102-1.754-19.32-5.363c-12.363-6.183-15.635-20.714-19.424-37.539c-3.959-17.58-8.445-37.506-26.082-47.699
			C110.357,2.201,102.429,0,94.304,0C79.005,0,62.968,7.95,47.927,22.991c-5.4,5.399-11.277,8.138-17.469,8.138
			c-2.934,0-4.941-0.656-5.273-0.773c-0.914-0.401-1.871-0.598-2.822-0.598c-1.371,0-2.732,0.405-3.941,1.188
			c-2.066,1.337-3.215,3.673-3.215,6.134c0,17.265,12.033,21.475,21.703,24.857c9.299,3.253,20.115,7.059,28.783,21.825h48.549
			c6.254,0,11.783,3.986,13.762,9.918c1.867,5.6,10.525,34.438-2.338,52.287c-5.902,8.188-15.393,12.698-26.721,12.698
			c-1.258,0-2.504-0.041-3.744-0.099c15.334,20.93,37.695,33.434,62.801,33.434c18.791,0,37.035-7.162,52.758-20.715
			C255.234,132.953,244.22,75.031,243.73,72.585z"/>
		<path d="M146.284,210.113c-1.02-2.553-2.674-2.547-3.674,0.015l-32.104,82.215c-1,2.561,0.432,4.657,3.182,4.657h62.313
			c2.75,0,4.165-2.09,3.145-4.643L146.284,210.113z"/>
		<path d="M208.945,190.796c-14.818,9.75-31.164,15.09-48.033,15.644l27.56,69.949c1.008,2.559,2.84,2.641,4.071,0.182
			l40.703-81.304c1.232-2.459-0.012-4.471-2.762-4.471H208.945z"/>
		<path d="M238.329,297c5.723,0,10.361-4.64,10.361-10.361v-83.75c0-2.75-1.016-2.992-2.258-0.539l-45.637,90.189
			c-1.242,2.453-0.008,4.461,2.742,4.461H238.329z"/>
		<path d="M50.271,297h35.875c2.75,0,3.968-1.999,2.706-4.442l-46.648-90.345c-1.262-2.443-2.294-2.192-2.294,0.558v83.868
			C39.909,292.36,44.55,297,50.271,297z"/>
	</g>
	<path d="M281.275,15.31c-12.674-2.054-22.508,0.136-28.92,6.387c-1.639,1.596-3.939,2.323-6.193,1.969
		c-2.26-0.356-4.219-1.758-5.285-3.78c-4.195-7.954-12.785-13.011-25.531-15.03c-0.105,0.203-10.18,19.898-2.709,34.701
		c3.221,6.379,9.219,10.93,17.852,13.601c1.984-0.585,4.045-0.905,6.129-0.905c2.561,0,5.082,0.448,7.482,1.328
		c1.926,0.705,3.713,1.684,5.334,2.875c1.09,0.07,2.164,0.118,3.195,0.118c9.611,0,16.727-2.88,21.746-8.804
		C284.558,35.758,281.308,15.512,281.275,15.31z"/>
</g>
<g>
</g>
<g>
</g>
<g>
</g>
<g>
</g>
<g>
</g>
<g>
</g>
<g>
</g>
<g>
</g>
<g>
</g>
<g>
</g>
<g>
</g>
<g>
</g>
<g>
</g>
<g>
</g>
<g>
</g>
</svg>
