<?xml version='1.0' encoding='iso-8859-1'?>
<!DOCTYPE svg PUBLIC '-//W3C//DTD SVG 1.1//EN' 'http://www.w3.org/Graphics/SVG/1.1/DTD/svg11.dtd'>
<svg version="1.1" xmlns="http://www.w3.org/2000/svg" viewBox="0 0 456.988 456.988" xmlns:xlink="http://www.w3.org/1999/xlink" enable-background="new 0 0 456.988 456.988">
  <g>
    <path d="m175.722,309.188c0.323-1.506-0.066-3.077-1.055-4.258l-19.438-23.218c-2.725-3.257-6.066-5.676-9.92-7.183-12.586-4.967-27.009,1.18-32.144,13.711-1.368,3.351-2.062,6.863-2.062,10.44 0,7.091 2.694,13.829 7.585,18.974 5.178,5.45 12.458,8.576 19.975,8.576 1.98,0 3.956-0.213 5.873-0.634 2.101-0.455 4.166-1.17 6.138-2.126l22.34-10.83c1.386-0.673 2.385-1.946 2.708-3.452zm-54.619-10.508c0-2.275 0.444-4.516 1.317-6.654 2.565-6.262 8.351-9.185 13.855-9.185 0.234,0 0.465,0.021 0.697,0.031v33.27c-4.176-0.409-8.126-2.315-11.036-5.378-3.116-3.278-4.833-7.57-4.833-12.084zm28.871,14.016v-21.683l12.912,15.423-12.912,6.26z"/>
    <path d="m311.702,274.513c-3.813,1.491-7.252,3.98-9.942,7.197l-19.44,23.22c-0.988,1.181-1.378,2.752-1.055,4.258s1.322,2.779 2.708,3.451l22.351,10.83c1.972,0.956 4.037,1.671 6.138,2.126 1.917,0.421 3.893,0.634 5.872,0.634 7.517,0 14.798-3.126 19.971-8.571 4.888-5.13 7.58-11.867 7.58-18.969 0-3.61-0.695-7.13-2.064-10.458-5.135-12.513-19.546-18.666-32.119-13.718zm-17.6,31.922l12.922-15.434v21.696l-12.922-6.262zm36.957,4.331c-2.909,3.062-6.859,4.967-11.035,5.376v-33.277c5.698-0.25 11.867,2.638 14.546,9.166 0.872,2.12 1.314,4.36 1.314,6.658 0,4.523-1.712,8.81-4.825,12.077z"/>
    <path d="m442.268,106.443c-4.968-14.422-17.003-25.418-32.193-29.416-15.024-3.953-30.309-0.317-41.896,9.937-0.943,0.819-1.911,1.743-2.872,2.74-16.474,17.056-27.738,33.785-33.567,49.798-8.873,1.065-17.295,4.172-24.799,9.123l-1.357-3.247c-0.851-2.038-3.192-3.003-5.232-2.15-2.038,0.851-3.001,3.193-2.15,5.232l12.601,30.152c0.642,1.534 2.127,2.458 3.692,2.458 0.514,0 1.037-0.1 1.541-0.311 2.038-0.852 3-3.195 2.147-5.233l-6.116-14.636c7.265-5.368 15.765-8.393 24.715-8.766 7.161-0.285 14.458,1.121 21.11,4.069 13.983,6.189 28.54,21.109 27.458,44.425l-3.297,71.039c-14.377-1.141-22.512-5.689-31.059-10.473-10.341-5.789-21.034-11.775-42.201-11.775-21.168,0-31.862,5.986-42.204,11.775-9.881,5.531-19.214,10.755-38.296,10.755-19.089,0-28.424-5.225-38.308-10.757-10.342-5.788-21.036-11.773-42.203-11.773-21.165,0-31.857,5.985-42.198,11.772-8.46,4.735-16.511,9.24-30.643,10.444l-3.295-71.007c-1.082-23.327 13.473-38.243 27.458-44.425 6.658-2.948 13.955-4.354 21.099-4.069 8.967,0.374 17.468,3.398 24.723,8.764l-6.114,14.641c-0.851,2.039 0.112,4.381 2.15,5.232 0.504,0.21 1.025,0.31 1.539,0.31 1.566,0 3.053-0.925 3.693-2.46l12.589-30.148c0.852-2.038-0.11-4.381-2.148-5.233-2.039-0.852-4.381,0.111-5.232,2.148l-1.354,3.241c-7.496-4.947-15.915-8.051-24.795-9.117-5.842-16.03-17.109-32.76-33.58-49.803-1.064-1.099-2.087-2.068-3.088-2.927-11.636-10.154-26.884-13.689-41.831-9.7-15.114,4.033-27.091,15.013-32.039,29.374-2.103,6.114-2.869,12.627-2.278,19.365l2.479,28.127c1.485,16.914 11.168,32.058 25.9,40.509l18.007,10.335 3.576,77.028c1.273,27.573 13.115,53.104 33.345,71.904 0.242,0.238 0.482,0.46 0.725,0.682l98.96,89.781c9.426,8.541 21.245,12.812 33.067,12.812 11.821,0 23.646-4.272 33.074-12.814l98.782-89.628 .247-.227c0.204-0.187 0.41-0.376 0.611-0.568 20.254-18.803 32.109-44.349 33.385-71.938l3.575-77.03 18.008-10.336c14.722-8.451 24.403-23.593 25.898-40.508l2.471-28.13c0.594-6.763-0.174-13.282-2.28-19.367zm-67.604-7.713c0.701-0.728 1.389-1.385 2.087-1.992 8.323-7.365 19.261-9.969 30.016-7.138 6.803,1.79 12.718,5.498 17.082,10.51-8.94-1.831-17.625-1.121-25.945,2.171-20.65,8.17-33.311,29.896-38.462,40.539-4.44-1.626-9.061-2.725-13.734-3.285 5.6-12.979 15.298-26.664 28.956-40.805zm-324.557-9.097c10.7-2.855 21.609-0.327 29.971,6.969 0.734,0.63 1.472,1.33 2.252,2.136 13.649,14.122 23.348,27.806 28.956,40.798-4.668,0.56-9.289,1.66-13.731,3.286-5.152-10.642-17.816-32.37-38.47-40.541-8.319-3.291-17.002-4.001-25.94-2.172 4.339-4.979 10.211-8.675 16.962-10.476zm-22.239,63.166l-2.479-28.126c-0.431-4.908 0.115-9.618 1.62-13.995 0.059-0.172 0.132-0.338 0.194-0.509 10.135-3.879 19.842-4.041 28.913-0.46 17.796,7.025 29.306,26.632 34.089,36.355-17.292,8.995-28.518,25.04-31.06,43.913l-11.856-6.805c-11.048-6.337-18.308-17.69-19.421-30.373zm116.815,227.786l-36.534-33.145c4.134-2.735 9.017-4.24 14.054-4.24 14.039,0 25.46,11.421 25.46,25.46 0,4.205-1.047,8.28-2.98,11.925zm70.02,36.875c-6.143,0-11.14-4.984-11.14-11.11 0-1.281 0.232-2.572 0.688-3.831 3.592-9.862 13.06-16.489 23.562-16.489h1.37c5.17,0 10.141,1.568 14.379,4.539 4.238,2.961 7.414,7.094 9.183,11.948 1.26,3.465 0.771,7.183-1.344,10.202-2.11,3.013-5.43,4.741-9.107,4.741h-27.591zm94.63-48.8c0-14.039 11.422-25.46 25.461-25.46 5.034,0 9.914,1.503 14.047,4.235l-36.529,33.145c-1.933-3.64-2.979-7.713-2.979-11.92zm45.467-26.806c-5.737-4.277-12.749-6.654-20.006-6.654-18.45,0-33.461,15.01-33.461,33.46 0,6.217 1.714,12.225 4.9,17.435l-53.395,48.448c-5.875,5.323-13.014,8.383-20.346,9.2v-18.283h9.801c6.23,0 12.085-3.047 15.66-8.152 3.578-5.11 4.441-11.661 2.309-17.528-2.335-6.409-6.525-11.862-12.113-15.766-5.587-3.915-12.145-5.984-18.966-5.984h-1.37c-13.852,0-26.341,8.741-31.081,21.758-0.775,2.142-1.169,4.35-1.169,6.562 0,10.537 8.586,19.11 19.14,19.11h9.79v18.282c-7.328-0.818-14.462-3.877-20.332-9.196l-53.4-48.446c3.187-5.216 4.902-11.226 4.902-17.44 0-18.45-15.01-33.46-33.46-33.46-7.257,0-14.269,2.377-20.006,6.654-16.247-16.217-25.746-37.612-26.81-60.646l-.074-1.586c16.023-1.303 25.238-6.455 34.179-11.459 9.88-5.53 19.213-10.753 38.291-10.753 19.08,0 28.414,5.224 38.296,10.754 10.344,5.789 21.04,11.776 42.215,11.776 21.168,0 31.862-5.986 42.204-11.775 9.881-5.531 19.214-10.755 38.296-10.755 19.08,0 28.413,5.224 38.294,10.755 9.032,5.056 18.343,10.261 34.594,11.491l-.072,1.554c-1.065,23.032-10.564,44.426-26.81,60.644zm76.799-217.183l-2.47,28.126c-1.121,12.682-8.382,24.037-19.421,30.375l-11.856,6.805c-2.543-18.869-13.773-34.915-31.067-43.916 4.764-9.712 16.236-29.289 34.061-36.341 9.077-3.592 18.794-3.434 28.937,0.449 0.063,0.174 0.136,0.342 0.197,0.517 1.506,4.352 2.05,9.058 1.619,13.985z"/>
    <path d="m228.493,325.08c-23.219,0-45.301,8.791-62.179,24.754-1.604,1.518-1.675,4.05-0.157,5.655 1.519,1.605 4.051,1.677 5.655,0.157 15.386-14.552 35.515-22.566 56.681-22.566 21.176,0 41.306,8.014 56.681,22.565 0.773,0.732 1.763,1.095 2.749,1.095 1.061,0 2.119-0.419 2.906-1.25 1.519-1.604 1.449-4.136-0.156-5.655-16.867-15.964-38.949-24.755-62.18-24.755z"/>
    <path d="m228.493,41.9c2.209,0 4-1.791 4-4v-33.9c0-2.209-1.791-4-4-4s-4,1.791-4,4v33.9c0,2.209 1.791,4 4,4z"/>
    <path d="m213.169,42.56c0.118,0 0.236-0.005 0.355-0.016 2.201-0.194 3.828-2.135 3.634-4.335l-1.869-21.367c-0.192-2.201-2.126-3.83-4.333-3.637-2.2,0.192-3.829,2.132-3.638,4.332l1.871,21.373c0.183,2.082 1.929,3.65 3.98,3.65z"/>
    <path d="m194.024,41.242c0.341,1.942 2.029,3.309 3.935,3.309 0.229,0 0.463-0.02 0.697-0.061 2.176-0.382 3.63-2.456 3.247-4.632l-5.881-33.363c-0.385-2.176-2.451-3.629-4.635-3.244-2.176,0.384-3.628,2.459-3.244,4.634l5.881,33.357z"/>
    <path d="m179.129,44.882c0.478,1.789 2.095,2.969 3.861,2.969 0.342,0 0.689-0.044 1.035-0.136 2.135-0.57 3.402-2.762 2.832-4.897l-5.541-20.694c-0.572-2.135-2.772-3.398-4.899-2.827-2.134,0.572-3.399,2.766-2.827,4.9l5.539,20.685z"/>
    <path d="m164.615,49.819c0.591,1.624 2.125,2.632 3.758,2.632 0.455,0 0.918-0.078 1.369-0.243 2.076-0.756 3.146-3.052 2.389-5.128l-11.578-31.808c-0.755-2.076-3.048-3.146-5.127-2.391-2.075,0.755-3.146,3.051-2.391,5.126l11.58,31.812z"/>
    <path d="m150.589,56.011c0.679,1.455 2.122,2.309 3.628,2.309 0.566,0 1.142-0.121 1.688-0.376 2.002-0.934 2.867-3.314 1.934-5.316l-9.062-19.41c-0.935-2.002-3.313-2.866-5.316-1.932-2.002,0.935-2.866,3.315-1.932,5.317l9.06,19.408z"/>
    <path d="m137.149,63.42c0.741,1.283 2.085,2.001 3.468,2.001 0.679,0 1.366-0.173 1.996-0.537 1.913-1.105 2.568-3.551 1.464-5.464l-16.939-29.331c-1.105-1.913-3.552-2.568-5.465-1.463-1.913,1.105-2.567,3.551-1.463,5.464l16.939,29.33z"/>
    <path d="m124.407,71.965c0.778,1.111 2.019,1.706 3.28,1.706 0.792,0 1.593-0.235 2.291-0.724 1.81-1.267 2.249-3.761 0.981-5.571l-12.299-17.569c-1.266-1.809-3.76-2.251-5.57-0.984-1.811,1.267-2.251,3.761-0.984,5.571l12.301,17.571z"/>
    <path d="m112.47,81.592c0.791,0.942 1.925,1.428 3.065,1.428 0.908,0 1.82-0.307 2.57-0.937 1.691-1.421 1.911-3.944 0.491-5.635l-21.788-25.969c-1.42-1.693-3.943-1.914-5.635-0.494-1.692,1.419-1.914,3.942-0.494,5.635l21.791,25.972z"/>
    <path d="m101.405,92.198c0.781,0.781 1.805,1.172 2.828,1.172s2.048-0.391 2.828-1.172c1.563-1.562 1.563-4.095 0-5.657l-15.18-15.18c-1.561-1.562-4.096-1.562-5.656,0-1.563,1.562-1.563,4.095 0,5.657l15.18,15.18z"/>
    <path d="m349.935,86.542c-1.563,1.562-1.563,4.095 0,5.657 0.781,0.781 1.805,1.171 2.828,1.171s2.048-0.391 2.828-1.172l15.172-15.182c1.562-1.563 1.56-4.096-0.004-5.657-1.563-1.562-4.096-1.559-5.656,0.004l-15.168,15.179z"/>
    <path d="m338.892,82.063c0.75,0.629 1.662,0.937 2.57,0.937 1.141,0 2.274-0.486 3.065-1.428l21.771-25.952c1.42-1.693 1.198-4.216-0.494-5.635-1.691-1.419-4.215-1.198-5.635,0.495l-21.769,25.948c-1.421,1.692-1.2,4.215 0.492,5.635z"/>
    <path d="m327,72.947c0.698,0.489 1.498,0.724 2.29,0.724 1.262,0 2.502-0.595 3.28-1.706l12.301-17.571c1.267-1.81 0.826-4.304-0.983-5.571-1.811-1.267-4.304-0.826-5.571,0.984l-12.299,17.569c-1.268,1.809-0.828,4.303 0.982,5.571z"/>
    <path d="m314.36,64.882c0.631,0.365 1.319,0.538 1.999,0.538 1.381,0 2.725-0.716 3.467-1.998l16.941-29.333c1.104-1.913 0.449-4.36-1.464-5.464-1.912-1.104-4.36-0.448-5.464,1.465l-16.939,29.327c-1.105,1.912-0.452,4.359 1.46,5.465z"/>
    <path d="m301.082,57.945c0.547,0.255 1.122,0.376 1.688,0.376 1.506,0 2.949-0.855 3.628-2.31l9.06-19.409c0.934-2.002 0.068-4.382-1.933-5.316-2.004-0.935-4.383-0.069-5.316,1.933l-9.061,19.41c-0.933,2.001-0.068,4.381 1.934,5.316z"/>
    <path d="m287.233,52.208c0.452,0.165 0.915,0.243 1.37,0.243 1.633,0 3.166-1.008 3.758-2.631l11.581-31.812c0.756-2.076-0.315-4.371-2.391-5.126-2.08-0.755-4.372,0.315-5.127,2.391l-11.578,31.807c-0.757,2.076 0.312,4.371 2.387,5.128z"/>
    <path d="m272.949,47.714c0.347,0.093 0.694,0.137 1.037,0.137 1.766,0 3.383-1.179 3.861-2.967l5.54-20.689c0.571-2.134-0.695-4.327-2.829-4.899-2.135-0.573-4.327,0.695-4.899,2.829l-5.54,20.691c-0.571,2.134 0.696,4.327 2.83,4.898z"/>
    <path d="m258.32,44.489c0.235,0.041 0.468,0.061 0.698,0.061 1.905,0 3.593-1.366 3.935-3.308l5.88-33.358c0.384-2.176-1.069-4.25-3.245-4.634-2.174-0.385-4.249,1.069-4.634,3.244l-5.88,33.362c-0.383,2.176 1.07,4.251 3.246,4.633z"/>
    <path d="m243.456,42.545c0.118,0.01 0.235,0.015 0.353,0.015 2.052,0 3.799-1.57 3.98-3.653l1.869-21.367c0.193-2.201-1.434-4.141-3.635-4.334-2.21-0.194-4.141,1.434-4.334,3.635l-1.871,21.372c-0.191,2.2 1.438,4.14 3.638,4.332z"/>
    <path d="m214.353,192.78v12.839c-2.018-0.599-3.999-1.315-5.923-2.169-6.354-2.795-11.957-6.812-16.651-11.938l-19.91-21.763 5.626-13.468c0.851-2.039-0.111-4.381-2.15-5.232-2.038-0.851-4.382,0.111-5.232,2.15l-12.589,30.138c-0.853,2.038 0.109,4.381 2.147,5.233 0.505,0.211 1.027,0.311 1.541,0.311 1.565,0 3.052-0.924 3.692-2.458l1.442-3.451 15.844,17.318c5.923,6.467 12.99,11.534 20.988,15.052 3.586,1.591 7.337,2.822 11.176,3.709v6.389c0,2.209 1.791,4 4,4s4-1.791 4-4v-32.66c0-2.209-1.791-4-4-4s-4.001,1.791-4.001,4z"/>
    <path d="m238.634,229.44c2.209,0 4-1.791 4-4v-6.38c12.307-2.859 23.642-9.452 32.165-18.771l15.851-17.318 1.443,3.452c0.642,1.534 2.127,2.458 3.692,2.458 0.514,0 1.037-0.1 1.541-0.311 2.038-0.852 3-3.195 2.147-5.233l-12.6-30.14c-0.853-2.038-3.193-3-5.233-2.148-2.038,0.852-3,3.195-2.147,5.233l5.631,13.47-19.917,21.76c-6.075,6.643-13.954,11.532-22.573,14.101v-12.833c0-2.209-1.791-4-4-4s-4,1.791-4,4v32.66c1.13687e-13,2.209 1.791,4 4,4z"/>
    <path d="m286.603,226.59c-2.66,0.74-4.22,3.5-3.47,6.16 0.609,2.21 2.62,3.66 4.81,3.66 0.44,0 0.891-0.06 1.34-0.19 0.011,0 0.011,0 0.011,0 2.659-0.74 4.21-3.5 3.47-6.16-0.741-2.66-3.501-4.21-6.161-3.47z"/>
    <path d="m266.243,235.64c-2.409,1.35-3.27,4.4-1.92,6.81 0.91,1.64 2.61,2.56 4.36,2.56 0.83,0 1.67-0.21 2.439-0.64 2.41-1.35 3.271-4.39 1.921-6.8-1.35-2.41-4.39-3.27-6.8-1.93z"/>
    <path d="m228.553,256.35c2.76,0 4.99-2.25 4.979-5.01 0-2.76-2.25-4.99-5.01-4.99-2.76,0.01-4.99,2.25-4.99,5.01 0.012,2.77 2.251,5 5.021,4.99z"/>
    <path d="m368.323,253.74c2.181,0 4.19-1.44 4.811-3.65 0.75-2.66-0.8-5.42-3.46-6.17-2.66-0.74-5.42,0.8-6.17,3.46-0.74,2.66 0.81,5.42 3.46,6.17 0.46,0.13 0.909,0.19 1.359,0.19z"/>
    <path d="m248.084,243.87c-2.66,0.76-4.2,3.53-3.44,6.18 0.63,2.2 2.63,3.63 4.81,3.63 0.45,0 0.91-0.06 1.37-0.19 2.65-0.76 4.19-3.52 3.44-6.18-0.76-2.65-3.531-4.19-6.18-3.44z"/>
    <path d="m125.943,226.49c-2.66,0.73-4.229,3.48-3.5,6.15 0.61,2.22 2.62,3.68 4.82,3.68 0.439,0 0.88-0.06 1.32-0.18 2.659-0.73 4.229-3.48 3.5-6.14-0.72-2.67-3.47-4.24-6.14-3.51z"/>
    <path d="m349.053,245.1c1.75,0 3.45-0.92 4.37-2.56 1.35-2.41 0.489-5.45-1.92-6.8-2.41-1.35-5.46-0.49-6.811,1.92-1.35,2.41-0.49,5.45 1.92,6.8 0.781,0.44 1.611,0.64 2.441,0.64z"/>
    <path d="m143.203,228.8c-0.01,2.77 2.221,5.01 4.98,5.02 0.01,0 0.02,0 0.02,0 2.75,0 4.99-2.22 5-4.98 0.021-2.76-2.21-5-4.979-5.02-2.76-0.01-5.01,2.22-5.021,4.98z"/>
    <path d="m105.523,235.48c-2.41,1.35-3.27,4.4-1.92,6.81 0.92,1.63 2.62,2.56 4.37,2.56 0.82,0 1.66-0.21 2.43-0.64 2.41-1.35 3.271-4.39 1.92-6.8-1.34-2.41-4.39-3.28-6.8-1.93z"/>
    <path d="m183.964,237.81c-1.351,2.41-0.49,5.46 1.92,6.81 0.779,0.43 1.609,0.63 2.439,0.63 1.75,0 3.45-0.92 4.37-2.56 1.351-2.41 0.49-5.45-1.92-6.8s-5.46-0.49-6.809,1.92z"/>
    <path d="m329.803,236.45c2.18,0 4.189-1.43 4.81-3.64 0.75-2.66-0.8-5.42-3.45-6.17-2.659-0.75-5.42,0.8-6.17,3.46-0.75,2.65 0.79,5.41 3.45,6.17 0.46,0.12 0.91,0.18 1.36,0.18z"/>
    <path d="m164.303,230.16c-0.76,2.65 0.77,5.42 3.43,6.19 0.46,0.13 0.92,0.19 1.38,0.19 2.17,0 4.17-1.42 4.8-3.61 0.771-2.66-0.76-5.43-3.42-6.19-2.65-0.77-5.42,0.77-6.19,3.42z"/>
    <path d="m87.363,243.79c-2.66,0.77-4.18,3.55-3.41,6.2 0.641,2.18 2.631,3.6 4.801,3.6 0.46,0 0.93-0.06 1.399-0.2 2.65-0.77 4.17-3.54 3.4-6.19-0.77-2.65-3.54-4.18-6.19-3.41z"/>
    <path d="m313.863,228.83c0.01-2.76-2.229-5-4.99-5.01-2.76,0-5,2.24-5,5-0.01,2.76 2.23,5 4.99,5s5-2.23 5-4.99z"/>
    <path d="m202.783,247.49c-0.729,2.66 0.83,5.41 3.5,6.15 0.44,0.12 0.891,0.18 1.33,0.18 2.19,0 4.2-1.45 4.811-3.67 0.739-2.66-0.82-5.42-3.48-6.15-2.661-0.74-5.421,0.82-6.161,3.49z"/>
    <path d="m192.183,297.71c1.31,0 2.6-0.54 3.53-1.47 0.93-0.93 1.47-2.22 1.47-3.53 0-1.32-0.54-2.61-1.47-3.54-0.931-0.93-2.221-1.46-3.53-1.46-1.32,0-2.61,0.53-3.54,1.46-0.93,0.93-1.47,2.22-1.47,3.54 0,1.31 0.54,2.6 1.47,3.53 0.93,0.93 2.22,1.47 3.54,1.47z"/>
    <path d="m246.953,304.67c0.391,0 0.78-0.04 1.17-0.14h0.011c2.68-0.64 4.33-3.34 3.689-6.03-0.649-2.69-3.35-4.34-6.04-3.69 0.011,0 0.011,0 0.011,0-2.69,0.65-4.341,3.35-3.7,6.03 0.559,2.29 2.599,3.83 4.859,3.83z"/>
    <path d="m208.443,304.53c0.391,0.09 0.79,0.14 1.17,0.14 2.26,0 4.311-1.54 4.86-3.83 0.649-2.69-1-5.39-3.69-6.03-2.68-0.65-5.38,1-6.029,3.69-0.651,2.68 1,5.38 3.689,6.03z"/>
    <circle cx="228.283" cy="301.69" r="5"/>
    <path d="m264.413,297.71c1.311,0 2.601-0.54 3.53-1.47 0.93-0.93 1.46-2.22 1.46-3.53 0-1.32-0.53-2.61-1.46-3.54-0.93-0.93-2.22-1.46-3.53-1.46-1.319,0-2.609,0.53-3.54,1.46-0.93,0.93-1.46,2.22-1.46,3.54 0,1.31 0.53,2.6 1.46,3.53 0.93,0.93 2.22,1.47 3.54,1.47z"/>
    <path d="m264.413,355.26c-1.319,0-2.609,0.54-3.54,1.47-0.93,0.93-1.46,2.22-1.46,3.54 0,1.31 0.53,2.6 1.46,3.53 0.931,0.93 2.221,1.47 3.54,1.47 1.311,0 2.601-0.54 3.53-1.47 0.93-0.93 1.46-2.22 1.46-3.53 0-1.32-0.53-2.61-1.46-3.54-0.93-0.93-2.22-1.47-3.53-1.47z"/>
    <path d="m248.143,348.45c-2.68-0.65-5.39,1-6.03,3.68-0.649,2.69 1,5.39 3.69,6.04 0.39,0.09 0.79,0.14 1.17,0.14 2.26,0 4.31-1.54 4.86-3.83 0.65-2.69-1.01-5.39-3.69-6.03z"/>
    <path d="m208.453,348.44c-2.68,0.65-4.33,3.35-3.689,6.03 0.56,2.29 2.6,3.83 4.859,3.83 0.391,0 0.78-0.04 1.181-0.14 2.68-0.64 4.33-3.34 3.689-6.03-0.65-2.68-3.35-4.33-6.04-3.69z"/>
    <path d="m228.303,346.29c-2.771,0-5,2.24-5,5s2.229,5 5,5c2.76,0 4.99-2.24 4.99-5s-2.23-5-4.99-5z"/>
    <path d="m192.183,355.27c-1.32,0-2.61,0.53-3.54,1.46-0.93,0.93-1.47,2.22-1.47,3.54 0,1.31 0.54,2.6 1.47,3.53 0.93,0.93 2.22,1.47 3.54,1.47 1.31,0 2.6-0.54 3.53-1.47 0.93-0.93 1.47-2.22 1.47-3.53 0-1.32-0.54-2.61-1.47-3.54-0.93-0.93-2.22-1.46-3.53-1.46z"/>
  </g>
</svg>
