<?xml version="1.0" encoding="iso-8859-1"?>
<!-- Generator: Adobe Illustrator 19.0.0, SVG Export Plug-In . SVG Version: 6.00 Build 0)  -->
<svg version="1.1" id="Capa_1" xmlns="http://www.w3.org/2000/svg" xmlns:xlink="http://www.w3.org/1999/xlink" x="0px" y="0px"
	 viewBox="0 0 247.333 247.333" style="enable-background:new 0 0 247.333 247.333;" xml:space="preserve">
<path d="M214.998,109.061c-1.513-5.947-3.595-11.668-6.18-17.105l23.642-23.642l-11.642-35.859l-35.859-11.643L160.3,45.471
	c-11.267-4.772-23.648-7.413-36.634-7.413c-12.986,0-25.366,2.641-36.633,7.413L62.375,20.813L26.516,32.455L14.873,68.314
	l23.641,23.642c-2.586,5.437-4.667,11.158-6.18,17.105C13.451,116.276,0,134.571,0,155.958c0,27.675,22.515,50.189,50.189,50.189
	c4.476,0,8.813-0.597,12.945-1.701c16.385,13.768,37.505,22.074,60.531,22.074s44.146-8.307,60.531-22.074
	c4.132,1.104,8.47,1.701,12.945,1.701c27.675,0,50.19-22.515,50.19-50.189C247.333,134.571,233.881,116.276,214.998,109.061z
	 M117.333,193.186c-12-0.42-21-10.145-21-21.221v-26.168h21V193.186z M149.333,171.964c0,11.076-10,20.802-21,21.221v-47.39h21
	V171.964z"/>
<g>
</g>
<g>
</g>
<g>
</g>
<g>
</g>
<g>
</g>
<g>
</g>
<g>
</g>
<g>
</g>
<g>
</g>
<g>
</g>
<g>
</g>
<g>
</g>
<g>
</g>
<g>
</g>
<g>
</g>
</svg>
