<?xml version='1.0' encoding='iso-8859-1'?>
<!DOCTYPE svg PUBLIC '-//W3C//DTD SVG 1.1//EN' 'http://www.w3.org/Graphics/SVG/1.1/DTD/svg11.dtd'>
<svg version="1.1" xmlns="http://www.w3.org/2000/svg" viewBox="0 0 417.111 417.111" xmlns:xlink="http://www.w3.org/1999/xlink" enable-background="new 0 0 417.111 417.111">
  <g>
    <path d="m164.216,208.003c-0.84-2.63-3.65-4.09-6.28-3.26-2.63,0.84-4.09,3.65-3.26,6.28 0.68,2.13 2.65,3.49 4.77,3.49 0.5,0 1.01-0.08 1.51-0.23 2.63-0.84 4.09-3.65 3.26-6.28z"/>
    <path d="m152.076,186.243c-2.63,0.83-4.09,3.64-3.25,6.28 0.67,2.13 2.64,3.49 4.76,3.49 0.5,0 1.01-0.08 1.51-0.23 2.63-0.84 4.09-3.65 3.26-6.28-0.83-2.63-3.64-4.09-6.28-3.26z"/>
    <path d="m149.236,177.273c2.64-0.83 4.1-3.64 3.26-6.27-0.83-2.63-3.64-4.09-6.28-3.26-2.63,0.83-4.09,3.64-3.25,6.28 0.67,2.13 2.64,3.49 4.76,3.49 0.5,0 1.01-0.08 1.51-0.24z"/>
    <path d="m142.236,152.373c-1.79-2.1-4.95-2.34-7.05-0.54-2.09,1.8-2.34,4.95-0.54,7.05 0.99,1.15 2.39,1.75 3.8,1.75 1.15,0 2.31-0.4 3.25-1.21 2.1-1.8 2.34-4.95 0.54-7.05z"/>
    <path d="m125.326,139.393c-2.49-1.2-5.48-0.15-6.67,2.34-1.2,2.49-0.15,5.48 2.34,6.67 0.7,0.34 1.44,0.5 2.16,0.5 1.87,0 3.65-1.05 4.51-2.84 1.2-2.49 0.15-5.48-2.34-6.67z"/>
    <path d="m165.306,233.023c1.32,0 2.61-0.54 3.54-1.47 0.93-0.93 1.46-2.22 1.46-3.53 0-1.32-0.53-2.61-1.46-3.54-0.93-0.93-2.22-1.46-3.54-1.46-1.31,0-2.6,0.53-3.53,1.46-0.94,0.93-1.47,2.22-1.47,3.54 0,1.31 0.53,2.6 1.47,3.53 0.93,0.93 2.22,1.47 3.53,1.47z"/>
    <path d="m148.996,243.063c2.51-1.14 3.62-4.11 2.47-6.62-1.14-2.51-4.11-3.62-6.62-2.48-2.51,1.15-3.62,4.11-2.48,6.63 0.84,1.84 2.66,2.92 4.56,2.92 0.69,2.84217e-14 1.39-0.14 2.07-0.45z"/>
    <path d="m126.406,248.033c2.76-0.01 4.99-2.26 4.98-5.02-0.01-2.76-2.25-4.99-5.01-4.99v0.01c-2.77,0.01-5,2.25-4.99,5.01 0.01,2.76 2.25,4.99 5,4.99 0.01,2.84217e-14 0.01,2.84217e-14 0.02,2.84217e-14z"/>
    <path d="m105.826,243.673c1.91,0 3.73-1.1 4.56-2.96 1.13-2.52 0-5.48-2.52-6.6-2.52-1.13-5.48,0-6.6,2.52-1.13,2.52 0,5.48 2.52,6.6 0.66,0.3 1.36,0.44 2.04,0.44z"/>
    <path d="m138.466,135.523c0.87,0.61 1.87,0.91 2.87,0.91 1.57,0 3.12-0.74 4.09-2.13 1.59-2.26 1.05-5.37-1.21-6.96-2.26-1.59-5.38-1.05-6.97,1.21-1.59,2.26-1.04,5.38 1.22,6.97z"/>
    <path d="m125.346,117.873c-2.62-0.86-5.45,0.57-6.31,3.19-0.86,2.62 0.57,5.45 3.19,6.31 0.52,0.17 1.05,0.25 1.56,0.25 2.1,0 4.06-1.33 4.75-3.44 0.86-2.62-0.56-5.45-3.19-6.31z"/>
    <path d="m166.566,182.293c0.67,2.13 2.64,3.49 4.76,3.49 0.5,0 1.01-0.07 1.51-0.23 2.64-0.84 4.1-3.65 3.26-6.28-0.83-2.63-3.64-4.09-6.27-3.25-2.64,0.83-4.09,3.64-3.26,6.27z"/>
    <path d="m178.466,219.873c0.67,2.13 2.64,3.49 4.76,3.49 0.5,0 1.01-0.07 1.51-0.23 2.64-0.84 4.1-3.65 3.26-6.28-0.83-2.63-3.64-4.09-6.27-3.26-2.64,0.84-4.09,3.65-3.26,6.28z"/>
    <path d="m172.516,201.083c0.67,2.13 2.64,3.49 4.76,3.49 0.5,0 1.01-0.07 1.51-0.23 2.64-0.84 4.1-3.65 3.26-6.28-0.83-2.63-3.64-4.09-6.27-3.26-2.64,0.84-4.09,3.65-3.26,6.28z"/>
    <path d="m155.566,149.963c1.08,0 2.16-0.34 3.07-1.06 2.18-1.7 2.57-4.84 0.87-7.02-1.7-2.17-4.84-2.56-7.02-0.86-2.18,1.7-2.56,4.84-0.86,7.02 0.98,1.26 2.45,1.92 3.94,1.92z"/>
    <path d="m160.586,163.853c0.77,1.98 2.66,3.19 4.67,3.19 0.6,0 1.21-0.11 1.8-0.34 2.58-1 3.85-3.9 2.86-6.47-1-2.57-3.9-3.85-6.47-2.85-2.58,1-3.86,3.89-2.86,6.47z"/>
    <path d="m184.186,237.173c0,1.31 0.53,2.6 1.46,3.53 0.94,0.93 2.23,1.47 3.54,1.47 1.32,0 2.61-0.54 3.54-1.47 0.93-0.93 1.46-2.22 1.46-3.53 0-1.32-0.53-2.61-1.46-3.54-0.94-0.93-2.22-1.46-3.54-1.46-1.31,0-2.6,0.53-3.54,1.46-0.93,0.93-1.46,2.22-1.46,3.54z"/>
    <path d="m129.126,257.963c-2.76,0.13-4.9,2.46-4.77,5.22 0.12,2.68 2.33,4.78 4.99,4.78 0.07,0 0.15-0.01 0.23-0.01 2.76-0.12 4.89-2.46 4.77-5.22-0.13-2.76-2.46-4.89-5.22-4.77z"/>
    <path d="m167.696,244.013c-2.38,1.4-3.17,4.47-1.77,6.84 0.93,1.59 2.6,2.47 4.31,2.47 0.86,0 1.73-0.22 2.53-0.69 2.38-1.4 3.18-4.47 1.78-6.85-1.41-2.38-4.47-3.17-6.85-1.77z"/>
    <path d="m108.916,255.683c-2.66-0.74-5.41,0.82-6.15,3.48-0.74,2.66 0.82,5.41 3.48,6.15 0.45,0.13 0.9,0.18 1.34,0.18 2.19,0 4.2-1.45 4.82-3.66 0.73-2.66-0.83-5.42-3.49-6.15z"/>
    <path d="m149.036,253.873c-2.58,0.97-3.89,3.85-2.92,6.44 0.76,2 2.66,3.24 4.69,3.24 0.58,0 1.17-0.11 1.75-0.32 0.01,0 0.01,0 0.01,0 2.58-0.98 3.89-3.86 2.91-6.44-0.97-2.59-3.85-3.89-6.44-2.92z"/>
    <path d="m317.016,233.973c-2.51-1.15-5.47-0.04-6.62,2.48-1.14,2.51-0.03,5.47 2.48,6.62 0.67,0.3 1.38,0.45 2.07,0.45 1.9,0 3.71-1.09 4.55-2.93 1.14-2.51 0.04-5.48-2.48-6.62z"/>
    <path d="m335.496,238.033c-2.76-0.01-5.01,2.22-5.02,4.98-0.01,2.76 2.22,5.01 4.99,5.02h0.01c2.76,0 4.99-2.23 5-4.99 0.01-2.76-2.22-5.01-4.98-5.01z"/>
    <path d="m353.996,234.103c-2.52,1.13-3.65,4.09-2.52,6.61 0.83,1.85 2.66,2.96 4.57,2.96 0.68,0 1.37-0.14 2.04-0.44 2.52-1.13 3.64-4.09 2.52-6.61-1.13-2.52-4.09-3.65-6.61-2.52z"/>
    <path d="m296.546,223.023c-1.31,0-2.6,0.53-3.53,1.46-0.94,0.93-1.47,2.22-1.47,3.54 0,1.31 0.53,2.6 1.47,3.53 0.93,0.93 2.22,1.47 3.53,1.47 1.32,0 2.6-0.54 3.54-1.47 0.93-0.93 1.46-2.22 1.46-3.53 0-1.32-0.53-2.61-1.46-3.54-0.93-0.93-2.22-1.46-3.54-1.46z"/>
    <path d="m309.776,186.253c-2.64-0.84-5.45,0.62-6.28,3.26-0.84,2.63 0.62,5.44 3.26,6.27 0.5,0.16 1.01,0.24 1.51,0.24 2.12,0 4.09-1.36 4.76-3.5 0.84-2.63-0.62-5.44-3.25-6.27z"/>
    <path d="m336.526,139.393c-2.49,1.2-3.54,4.18-2.35,6.67 0.86,1.79 2.65,2.84 4.51,2.84 0.73,0 1.47-0.16 2.16-0.49 2.49-1.2 3.54-4.18 2.35-6.67-1.2-2.49-4.19-3.54-6.67-2.35z"/>
    <path d="m319.606,152.383c-1.79,2.09-1.55,5.25 0.55,7.05 0.94,0.8 2.09,1.2 3.25,1.2 1.41,0 2.81-0.59 3.8-1.75 1.79-2.09 1.55-5.25-0.55-7.05-2.09-1.79-5.25-1.55-7.05,0.55z"/>
    <path d="m303.916,204.753c-2.63-0.84-5.44,0.62-6.28,3.26-0.83,2.63 0.63,5.44 3.26,6.27 0.5,0.16 1.01,0.24 1.51,0.24 2.12,0 4.09-1.36 4.76-3.5 0.84-2.63-0.62-5.44-3.25-6.27z"/>
    <path d="m309.356,171.003c-0.84,2.64 0.62,5.45 3.25,6.28 0.51,0.16 1.02,0.24 1.52,0.24 2.12,0 4.09-1.37 4.76-3.5 0.83-2.63-0.62-5.44-3.26-6.27-2.63-0.84-5.44,0.62-6.27,3.25z"/>
    <path d="m287.326,245.793c-1.4,2.38-0.61,5.45 1.77,6.85 0.8,0.46 1.67,0.69 2.54,0.69 1.71,0 3.38-0.88 4.31-2.47 1.4-2.38 0.61-5.44-1.77-6.84-2.38-1.4-5.45-0.61-6.85,1.77z"/>
    <path d="m312.826,253.873c-2.59-0.97-5.47,0.34-6.44,2.92-0.97,2.59 0.34,5.47 2.92,6.44 0.58,0.22 1.18,0.32 1.76,0.32 2.02,0 3.93-1.23 4.68-3.24 0.97-2.58-0.34-5.47-2.92-6.44z"/>
    <path d="m352.946,255.673c-2.66,0.74-4.22,3.49-3.48,6.16 0.61,2.21 2.63,3.66 4.82,3.66 0.44,0 0.89-0.06 1.34-0.18-0.01,0-0.01,0-0.01,0 2.66-0.74 4.22-3.5 3.49-6.16-0.74-2.66-3.5-4.22-6.16-3.48z"/>
    <path d="m332.746,257.963c-2.76-0.12-5.1,2.01-5.22,4.77-0.12,2.76 2.01,5.1 4.77,5.22 0.08,0 0.15,0.01 0.23,0.01 2.66,0 4.87-2.1 4.99-4.78 0.12-2.76-2.01-5.09-4.77-5.22z"/>
    <path d="m272.666,242.173c1.32,0 2.61-0.54 3.54-1.47 0.93-0.93 1.46-2.22 1.46-3.53 0-1.32-0.53-2.61-1.46-3.54-0.93-0.93-2.22-1.46-3.54-1.46-1.31,0-2.6,0.53-3.53,1.46-0.93,0.93-1.47,2.22-1.47,3.54 0,1.31 0.54,2.6 1.47,3.53 0.93,0.93 2.22,1.47 3.53,1.47z"/>
    <path d="m338.046,127.633c0.52,0 1.04-0.08 1.56-0.25 2.63-0.86 4.05-3.69 3.19-6.31-0.86-2.63-3.69-4.05-6.31-3.19-2.62,0.86-4.05,3.69-3.19,6.31 0.69,2.11 2.65,3.44 4.75,3.44z"/>
    <path d="m320.506,136.443c0.99,0 2-0.3 2.87-0.91 2.26-1.59 2.8-4.71 1.22-6.97-1.59-2.26-4.71-2.8-6.97-1.21-2.26,1.59-2.8,4.71-1.21,6.97 0.97,1.38 2.52,2.12 4.09,2.12z"/>
    <path d="m294.786,166.723c0.6,0.23 1.21,0.34 1.81,0.34 2,0 3.89-1.22 4.66-3.19v-0.01c1-2.57-0.28-5.47-2.85-6.47-2.58-0.99-5.47,0.28-6.47,2.86-1,2.57 0.28,5.47 2.85,6.47z"/>
    <path d="m277.106,223.143c0.5,0.16 1.01,0.24 1.51,0.24 2.12,0 4.09-1.36 4.77-3.49 0.83-2.64-0.63-5.45-3.26-6.28-2.63-0.83-5.44,0.62-6.28,3.26-0.83,2.63 0.63,5.44 3.26,6.27z"/>
    <path d="m283.056,204.363c0.5,0.16 1.01,0.23 1.51,0.23 2.12,0 4.09-1.36 4.77-3.49 0.83-2.63-0.63-5.44-3.26-6.28-2.63-0.83-5.44,0.63-6.28,3.26-0.83,2.63 0.63,5.44 3.26,6.28z"/>
    <path d="m289.006,185.573c0.5,0.16 1.01,0.23 1.51,0.23 2.12,0 4.09-1.36 4.77-3.49 0.83-2.63-0.63-5.44-3.26-6.28-2.63-0.83-5.44,0.63-6.28,3.26-0.83,2.63 0.63,5.44 3.26,6.28z"/>
    <path d="m303.206,148.913c0.91,0.72 1.99,1.06 3.07,1.06 1.49,0 2.96-0.66 3.94-1.92h0.01c1.69-2.18 1.31-5.32-0.87-7.02-2.18-1.7-5.32-1.31-7.02,0.87-1.7,2.17-1.31,5.32 0.87,7.01z"/>
    <path d="m377.894,206.224c-0.019-0.063-0.039-0.125-0.06-0.188l-2.64-7.852-8-32.616c-1.018-4.148-1.817-8.339-2.438-12.554 30.672-4.802 53.651-32.168 52.299-63.83l-2.495-58.413c-0.471-11.018-7.198-20.212-17.556-23.996-10.358-3.783-21.427-1.089-28.889,7.031l-44.529,48.464c-6.821-2.979-14.24-4.858-22.046-5.383l-39.281-2.25c-20.791-1.188-41.874-1.188-62.666,0l-39.339,2.254c-7.709,0.518-15.135,2.339-22.03,5.332l-44.484-48.415c-7.462-8.121-18.532-10.815-28.889-7.032-10.359,3.784-17.086,12.979-17.556,23.996l-2.495,58.413c-0.738,17.279 5.782,33.269 16.832,45.021-33.479,15.853-56.794,47.637-61.591,84.766-0.226,1.746 0.484,3.482 1.868,4.571 0.895,0.704 1.987,1.07 3.092,1.07 0.603,0 1.21-0.109 1.791-0.332 4.359-1.672 8.563-3.616 12.609-5.788-0.386,2.902-0.694,5.819-0.89,8.739-0.763,11.4-0.065,22.899 2.076,34.177 0.328,1.73 1.542,3.16 3.197,3.764 0.558,0.204 1.138,0.303 1.715,0.303 1.132,0 2.25-0.385 3.156-1.121 35.346-28.751 53.513-73.045 49.046-117.836 5.951,3.175 12.482,5.415 19.41,6.499-0.621,4.218-1.434,8.409-2.45,12.553l-8,32.615-2.64,7.852c-0.021,0.061-0.041,0.123-0.059,0.185l-20.292,60.395c-6.301,18.748-7.141,38.49-2.431,57.092 4.42,17.454 13.56,33.569 26.432,46.601 12.874,13.035 28.879,22.378 46.284,27.02 17.283,4.609 35.602,4.404 53.228-0.552 12.401,9.834 27.85,15.241 43.744,15.241 15.896,0 31.346-5.408 43.741-15.238 9.159,2.576 18.503,3.868 27.794,3.868 8.59,0 17.135-1.105 25.438-3.319 17.405-4.642 33.41-13.985 46.284-27.02 12.872-13.032 22.012-29.147 26.432-46.601 4.71-18.601 3.87-38.343-2.431-57.091l-20.291-60.395zm-7.644,46.028c1.335,28.024-8.948,55.796-28.212,76.194-6.787,7.186-14.543,13.289-22.957,18.202 3.26-9.471 4.207-25.117-10.388-45.306-1.295-1.79-3.795-2.192-5.585-0.898-1.791,1.294-2.192,3.795-0.898,5.585 20.288,28.063 5.953,44.693 5.294,45.43-0.345,0.378-0.982,1.001-1.727,1.743-15.63,6.371-32.778,8.977-49.843,7.217-11.807-1.219-20.734-10.972-20.983-22.784 14.25-1.552 26.383-11.26 30.898-25.14 1.197-3.678 0.579-7.582-1.694-10.712-2.273-3.129-5.795-4.924-9.663-4.924h-47.13c-3.868,0-7.39,1.795-9.663,4.924-2.273,3.13-2.891,7.034-1.694,10.712 4.514,13.881 16.648,23.588 30.898,25.14-0.249,11.812-9.176,21.565-20.983,22.784-17.062,1.761-34.207-0.844-49.835-7.213-0.706-0.7-1.348-1.316-1.733-1.745-0.623-0.695-15.023-17.333 5.292-45.433 1.294-1.79 0.892-4.291-0.898-5.585-1.791-1.294-4.29-0.892-5.585,0.898-14.595,20.189-13.648,35.835-10.388,45.306-8.414-4.914-16.17-11.016-22.957-18.203-19.265-20.398-29.547-48.17-28.212-76.194l1.726-36.238 2.064-6.144c0.021-0.061 0.04-0.122 0.059-0.184l.408-1.214c3.661,7.2 9.756,12.869 17.439,16.008 4.188,1.711 8.565,2.559 12.922,2.559 5.966,0 11.893-1.591 17.233-4.732 1.607-0.946 2.348-2.877 1.785-4.655l-12.878-40.668c-3.444-10.875-12.66-18.859-23.553-21.075 1.164-7.494 1.758-15.071 1.758-22.649 0-2.46-0.063-4.954-0.188-7.409-0.696-13.977 3.917-27.436 12.984-38.04 14.133,11.285 57.717,47.879 68.978,78.445 0.67,1.819 2.551,2.895 4.456,2.555 1.908-0.341 3.298-2 3.298-3.938 0-12.09 5.144-20.953 15.289-26.343 9.729-5.167 21.345-5.167 31.072,0 10.146,5.389 15.29,14.252 15.29,26.343 0,1.938 1.39,3.597 3.298,3.938 0.236,0.042 0.471,0.063 0.705,0.063 1.649,0 3.164-1.024 3.751-2.618 11.257-30.555 54.813-67.133 68.962-78.433 8.165,9.537 13.085,21.89 13.085,35.276 0,0.85-0.024,1.752-0.072,2.749-0.506,10.07 0.041,20.134 1.583,30.06-10.89,2.217-20.122,10.198-23.566,21.075l-12.878,40.669c-0.563,1.778 0.178,3.709 1.786,4.655 5.34,3.142 11.266,4.732 17.232,4.732 4.356,0 8.734-0.848 12.922-2.559 7.684-3.139 13.779-8.808 17.44-16.008l.408,1.212c0.019,0.062 0.038,0.124 0.059,0.186l2.064,6.144 1.725,36.24zm-139.323,77.607c-12.478,0-23.455-7.972-27.314-19.838-0.395-1.214-0.191-2.503 0.559-3.536 0.75-1.033 1.913-1.625 3.19-1.625h47.13c1.277,0 2.439,0.593 3.19,1.625 0.75,1.033 0.954,2.322 0.559,3.536-3.859,11.866-14.836,19.838-27.314,19.838zm20.564,37.925c-6.55,2.346-13.492,3.566-20.564,3.566-7.076,0-14.024-1.214-20.577-3.563 8.914-1.969 16.301-7.636 20.577-15.266 4.274,7.626 11.656,13.291 20.564,15.263zm-145.177-199.355c0.38-1.549 0.73-3.104 1.059-4.664 4.644,0.972 8.861,3.362 12.09,6.76-9.989,7.074-16.037,18.561-16.037,30.995 0,1.573 0.115,3.134 0.305,4.68-1.171-1.995-3.962-11.091-3.962-11.091l6.545-26.68zm9.273,48.319c-2.714-4.598-4.16-9.834-4.16-15.228 0-9.734 4.692-18.738 12.462-24.336 0.314,0.721 0.605,1.454 0.846,2.214l11.859,37.448c-6.426,2.819-13.656,2.929-20.268,0.228-0.251-0.102-0.493-0.217-0.739-0.326zm35.168-146.2c10.841,9.093 27.746,24.218 42.49,41.484 1.27,1.488 3.428,1.838 5.105,0.83 0.93-0.56 1.9-1.108 2.965-1.675 18.539-9.858 40.675-9.857 59.211-0.002 1.071,0.571 2.042,1.119 2.967,1.677 0.642,0.386 1.354,0.573 2.062,0.573 1.138,0 2.26-0.485 3.044-1.403 14.759-17.284 31.648-32.39 42.483-41.471 8.154,2.166 15.538,6.186 21.705,11.553-5.973,4.786-16.254,13.325-27.163,23.745-17.535,16.75-30.244,32.028-37.946,45.596-3.527-10.451-10.954-16.529-17.467-19.989-12.078-6.416-26.5-6.416-38.578,0-6.513,3.46-13.939,9.539-17.467,19.989-7.702-13.568-20.411-28.846-37.946-45.596-10.927-10.438-21.225-18.988-27.194-23.769 6.298-5.495 13.707-9.429 21.729-11.542zm186.364,108.85c0.241-0.76 0.532-1.494 0.846-2.214 7.77,5.597 12.462,14.602 12.462,24.335 0,5.394-1.446,10.63-4.16,15.228-0.246,0.109-0.489,0.224-0.739,0.327-6.613,2.7-13.842,2.591-20.268-0.228l11.859-37.448zm5.275-8.871c3.232-3.397 7.451-5.787 12.091-6.76 0.329,1.558 0.675,3.113 1.055,4.662l6.544,26.679c0,0-2.791,9.096-3.962,11.091 0.19-1.546 0.305-3.106 0.305-4.68 0-12.432-6.046-23.918-16.033-30.992zm21.121-29.477c-0.279-4.855-0.3-9.731-0.055-14.608 0.059-1.202 0.087-2.295 0.087-3.342 0-11.185-2.825-21.771-7.797-31.077 23.403-50.55 38.421-58.133 43.864-59.018 1.244-0.203 2.25-0.103 3.034,0.112l2.417,56.581c1.082,25.313-17.132,47.212-41.55,51.352zm13.436-119.124c4.918-5.354 11.458-5.514 15.935-3.878 2.371,0.866 4.853,2.497 6.715,4.911-0.316,0.024-0.626,0.04-0.953,0.082-14.788,1.897-31.36,21.792-49.315,59.15-4.227-5.371-9.267-10.081-14.94-13.945l42.558-46.32zm-176.672,44.693c20.336-1.162 40.959-1.163 61.295,0l39.169,2.243c-10.238,8.863-23.712,21.361-36.064,35.471-0.13-0.07-0.261-0.141-0.394-0.211-20.89-11.108-45.835-11.108-66.729,0.002-0.132,0.07-0.262,0.14-0.392,0.21-12.337-14.094-25.815-26.598-36.059-35.471l39.174-2.244zm-131.311-48.571c4.479-1.635 11.016-1.475 15.935,3.879l42.505,46.261c-4.483,3.053-8.621,6.674-12.314,10.826-0.905,1.017-1.762,2.065-2.597,3.126-17.945-37.325-34.509-57.203-49.29-59.099-0.327-0.042-0.637-0.058-0.953-0.082 1.862-2.414 4.343-4.045 6.714-4.911zm-4.404,125.836c-6.547,29.362-26.042,54.146-53.034,67.428 6.547-29.362 26.042-54.147 53.034-67.428zm-35.504,106.842c-0.888-7.584-1.081-15.229-0.572-22.826 0.369-5.516 1.129-11.018 2.221-16.398 16.624-11.732 29.634-27.864 37.562-46.565-1.31,32.376-15.205,63.25-39.211,85.789zm27.729-161.028l2.417-56.573c0.72-0.196 1.622-0.307 2.728-0.165 5.44,0.698 20.482,7.912 44.14,58.997-5.598,10.489-8.285,22.332-7.679,34.496 0.114,2.258 0.172,4.548 0.172,6.806 0,2.598-0.08,5.195-0.23,7.789-24.417-4.141-42.63-26.037-41.548-51.35zm39.419,272.18c-24.244-24.547-32.155-58.729-21.163-91.438l8.953-26.649-.385,8.08c-1.438,30.185 9.638,60.098 30.387,82.068 14.053,14.879 31.953,25.455 51.353,30.871l-.87,.309c2.829,7.973 7.081,15.348 12.5,21.782-29.491,5.941-59.064-3.04-80.775-25.023zm134.719,39.141c-13.976,0-27.55-4.94-38.229-13.917-6.456-5.406-11.669-12.112-15.317-19.634 5.646,0.928 11.373,1.427 17.131,1.476 10.915,6.804 23.476,10.405 36.416,10.405 12.94,0 25.501-3.6 36.416-10.405 5.757-0.05 11.484-0.549 17.13-1.477-3.648,7.522-8.863,14.23-15.326,19.641-10.671,8.971-24.245,13.911-38.221,13.911zm134.719-39.141c-21.711,21.982-51.283,30.963-80.776,25.022 5.421-6.435 9.672-13.81 12.5-21.781l-.872-.309c19.401-5.416 37.303-15.992 51.355-30.87 20.75-21.97 31.825-51.883 30.387-82.068l-.385-8.08 8.953,26.649c10.994,32.708 3.082,66.891-21.162,91.437z"/>
    <path d="m78.927,90.873c-7.72,0-14,6.28-14,14s6.28,14 14,14 14-6.28 14-14-6.28-14-14-14zm0,18c-2.206,0-4-1.794-4-4s1.794-4 4-4 4,1.794 4,4-1.794,4-4,4z"/>
    <path d="m382.927,90.873c-7.72,0-14,6.28-14,14s6.28,14 14,14 14-6.28 14-14-6.28-14-14-14zm0,18c-2.206,0-4-1.794-4-4s1.794-4 4-4 4,1.794 4,4-1.794,4-4,4z"/>
    <path d="m296.463,269.568c-22.91,0-41.549-18.639-41.549-41.549 0-2.209-1.791-4-4-4s-4,1.791-4,4c0,27.321 22.228,49.549 49.549,49.549 2.209,0 4-1.791 4-4s-1.791-4-4-4z"/>
    <path d="m210.928,224.019c-2.209,0-4,1.791-4,4 0,22.91-18.639,41.549-41.549,41.549-2.209,0-4,1.791-4,4s1.791,4 4,4c27.321,0 49.549-22.228 49.549-49.549 0-2.209-1.791-4-4-4z"/>
    <path d="m247.921,203.873c2.209,0 4-1.791 4-4s-1.791-4-4-4h-13v-7.403c9.118-1.858 16-9.938 16-19.597 0-11.028-8.972-20-20-20s-20,8.972-20,20c0,9.658 6.882,17.739 16,19.597v7.403h-13c-2.209,0-4,1.791-4,4s1.791,4 4,4h13v17.317c0,2.209 1.791,4 4,4s4-1.791 4-4v-17.317h13zm-29-35c0-6.617 5.383-12 12-12s12,5.383 12,12-5.383,12-12,12-12-5.383-12-12z"/>
  </g>
</svg>
