<?xml version="1.0" encoding="iso-8859-1"?>
<!-- Generator: Adobe Illustrator 19.0.0, SVG Export Plug-In . SVG Version: 6.00 Build 0)  -->
<svg version="1.1" id="Capa_1" xmlns="http://www.w3.org/2000/svg" xmlns:xlink="http://www.w3.org/1999/xlink" x="0px" y="0px"
	 viewBox="0 0 212.565 212.565" style="enable-background:new 0 0 212.565 212.565;" xml:space="preserve">
<path d="M194.419,181.087c5.259-9.153,8.22-19.691,8.22-30.673c0-13.586-4.436-26.15-11.923-36.337
	c11.886-10.97,19.713-27.775,20.934-30.503l0.915-2.043l-0.915-2.043c-1.198-2.675-8.747-18.895-20.25-29.868
	c-0.061-8.023-0.473-14.852-0.656-17.521l-0.514-7.506l-6.718,3.362c-2.71,1.361-10.322,5.26-18.498,10.145
	c-5.567-5.457-10.502-9.828-12.469-11.542l-5.666-4.91l-2.365,7.197c-1.152,3.475-4.733,14.65-7.286,26.17
	c-3.733,4.598-6.516,9.995-8.056,15.89l-5.737-20.709C115.96,23.206,91.139,4.355,63.076,4.355c-5.717,0-11.438,0.782-17.006,2.324
	l-0.137,0.038C17.124,14.765-2.11,42.162,0.185,71.914c0,0,0.455,5.896,0.455,5.896c23.636-5.888,49.201-0.604,62.982,21.335
	c5.468,8.706,8.228,18.793,10.917,28.716c4.387,16.189,4.054,34.232,11.416,49.403c6.778,13.968,18.805,25.14,33.354,30.624
	l0.853,0.321h21.239h20.847h50.293l-0.255-5.243C211.773,192.428,204.357,183.781,194.419,181.087z M177.312,58.21
	c4.142,0,7.5,3.358,7.5,7.5s-3.358,7.5-7.5,7.5c-4.142,0-7.5-3.358-7.5-7.5S173.17,58.21,177.312,58.21z"/>
<g>
</g>
<g>
</g>
<g>
</g>
<g>
</g>
<g>
</g>
<g>
</g>
<g>
</g>
<g>
</g>
<g>
</g>
<g>
</g>
<g>
</g>
<g>
</g>
<g>
</g>
<g>
</g>
<g>
</g>
</svg>
