<?xml version='1.0' encoding='iso-8859-1'?>
<!DOCTYPE svg PUBLIC '-//W3C//DTD SVG 1.1//EN' 'http://www.w3.org/Graphics/SVG/1.1/DTD/svg11.dtd'>
<svg version="1.1" xmlns="http://www.w3.org/2000/svg" viewBox="0 0 483.055 483.055" xmlns:xlink="http://www.w3.org/1999/xlink" enable-background="new 0 0 483.055 483.055">
  <g>
    <path d="m428,3.597c-1.329-3.036-4.863-4.421-7.902-3.092-7.164,3.134-14.35,11.369-21.356,24.474-3.561,6.661-6.151,12.839-7.366,15.896l-84.177,51.016c-43.018-9.931-88.324-9.931-131.342,0l-84.178-51.016c-1.216-3.057-3.805-9.235-7.366-15.896-7.006-13.105-14.192-21.34-21.356-24.474-3.035-1.327-6.574,0.056-7.902,3.092-1.328,3.036 0.057,6.574 3.092,7.902 8.252,3.61 17.822,22.044 22.431,33.909-9.366,42.532-5.551,86.25 11.082,126.552l8.764,21.235-15.247,45.194c-5.965,17.684-7.354,36.366-4.497,54.338-6.256,4.706-12.454,10.57-18.466,17.86-1.405,1.705-1.163,4.226 0.541,5.631 0.745,0.615 1.646,0.914 2.543,0.914 1.153,0 2.297-0.496 3.088-1.455 4.474-5.426 9.161-10.151 14.047-14.197 1.536,6.411 3.61,12.695 6.232,18.765-8.251,6.823-16.123,15.919-23.092,27.983-1.104,1.913-0.45,4.359 1.463,5.465 0.631,0.364 1.318,0.537 1.997,0.537 1.382,0 2.727-0.717 3.468-2 5.725-9.911 12.301-18.104 19.694-24.584 3.06,5.877 6.65,11.505 10.75,16.811-11.173,9.715-21.095,23.805-27.419,44.199-0.654,2.11 0.525,4.351 2.636,5.005 0.395,0.123 0.793,0.181 1.186,0.181 1.707,0 3.287-1.101 3.819-2.816 5.318-17.15 13.605-30.654 24.763-40.45 13.526,16.365 22.448,31.244 26.512,44.247 0.682,2.184 2.546,3.789 4.807,4.14 2.258,0.352 4.523-0.614 5.835-2.488 1.892-2.702 3.44-5.45 4.707-8.139 6.171,13.544 15.758,25.197 24.57,35.909 14.46,17.575 26.948,32.753 23.899,51.865-0.374,2.342 0.667,4.684 2.655,5.976 1.988,1.293 4.552,1.292 6.54,0 8.84-5.747 18.253-14.182 25.178-22.562 3.621-4.382 6.588-8.716 8.895-12.986 2.307,4.27 5.273,8.604 8.895,12.986 6.925,8.38 16.338,16.814 25.178,22.562 0.994,0.646 2.133,0.97 3.271,0.97s2.275-0.323 3.27-0.969c1.988-1.292 3.029-3.634 2.655-5.976-3.049-19.111 9.439-34.29 23.899-51.865 8.813-10.711 18.399-22.364 24.569-35.908 1.268,2.688 2.815,5.436 4.707,8.137 1.312,1.875 3.576,2.837 5.835,2.489 2.261-0.351 4.125-1.956 4.807-4.14 4.064-13.004 12.987-27.882 26.513-44.247 11.159,9.796 19.445,23.3 24.764,40.45 0.532,1.716 2.112,2.816 3.819,2.816 0.393,0 0.791-0.058 1.186-0.181 2.11-0.654 3.29-2.895 2.636-5.005-6.324-20.394-16.247-34.484-27.42-44.199 4.1-5.305 7.69-10.933 10.749-16.809 7.393,6.48 13.97,14.672 19.695,24.582 0.741,1.283 2.086,2 3.468,2 0.679,0 1.367-0.173 1.997-0.537 1.913-1.105 2.567-3.552 1.463-5.465-6.97-12.065-14.841-21.16-23.092-27.983 2.623-6.07 4.697-12.354 6.233-18.766 4.885,4.046 9.572,8.772 14.047,14.198 0.791,0.959 1.935,1.455 3.088,1.455 0.896,0 1.798-0.299 2.543-0.914 1.704-1.405 1.946-3.926 0.541-5.631-6.012-7.291-12.21-13.154-18.466-17.86 2.857-17.972 1.468-36.655-4.497-54.338l-15.247-45.194 8.764-21.235c16.633-40.302 20.448-84.019 11.081-126.553 4.61-11.865 14.18-30.298 22.432-33.908 3.032-1.33 4.417-4.867 3.089-7.903zm-39.243,138.784l-29.051,18.289c-2.069-2.321-4.266-4.674-6.585-7.016l40.937-38.73c-1.115,9.238-2.886,18.408-5.301,27.457zm5.549-72.819l-62.118,66.439c-2.017-1.374-4.081-2.691-6.192-3.931 14.941-22.382 66.09-77.594 66.09-77.594 0.934,5.017 1.67,10.049 2.22,15.086zm.88,10.772c0.411,7.531 0.391,15.059-0.052,22.559l-47.788,45.211c-2.751-2.521-5.64-4.985-8.658-7.342l56.498-60.428zm-271.837,80.335l-29.052-18.289c-2.415-9.049-4.186-18.219-5.301-27.458l40.938,38.73c-2.32,2.343-4.517,4.696-6.585,7.017zm12.36-12.565l-47.789-45.212c-0.444-7.5-0.464-15.028-0.053-22.559l56.499,60.429c-3.017,2.356-5.906,4.82-8.657,7.342zm15.158-12.104l-62.119-66.44c0.549-5.036 1.285-10.068 2.22-15.085 0,0 51.151,55.214 66.09,77.594-2.11,1.24-4.174,2.557-6.191,3.931zm-53.085,18.028l20.314,12.789c-4.064,4.95-7.454,9.543-10.081,13.319l-5.263-12.754c-1.82-4.41-3.475-8.864-4.97-13.354zm-4.72,139.923c12.47-7.409 26.092-10.789 40.776-10.096 7.254,5.329 13.755,11.45 19.436,18.221-2.086-0.225-4.216-0.4-6.392-0.504-14.112-0.678-31.491,1.505-48.187,11.55-2.497-6.197-4.386-12.621-5.633-19.171zm8.895,26.429c12.77-7.947 27.562-11.581 44.279-10.829 4.877,0.219 9.553,0.815 13.92,1.621 2.665,3.94 5.062,8.065 7.208,12.338-6.871-0.169-14.684,0.202-22.872,1.654-9.94,1.762-21.186,5.322-31.927,12.126-4.117-5.304-7.658-10.974-10.608-16.91zm240.265,58.166c-2.584-7.449-2.67-13.446-2.671-13.519 0-3.203-2.517-5.842-5.716-5.993-3.213-0.155-5.955,2.237-6.258,5.426-1.926,20.287-15.258,36.491-28.149,52.161-12.157,14.775-24.65,29.96-26.777,48.281-3.975-3.35-8.608-7.735-12.978-13.022-5.541-6.705-12.146-16.804-12.146-26.837 0-3.313-2.687-6-6-6s-6,2.687-6,6c0,10.034-6.604,20.132-12.146,26.837-4.369,5.288-9.003,9.673-12.978,13.022-2.127-18.321-14.62-33.506-26.777-48.281-12.892-15.67-26.224-31.874-28.15-52.161-0.293-3.091-2.892-5.422-5.968-5.422-0.089,0-0.178,0.002-0.268,0.006-3.191,0.14-5.714,2.767-5.737,5.962-0.001,0.088-0.087,6.089-2.672,13.541-5.239-10.929-13.013-22.679-23.223-35.099 8.169-5.002 17.513-8.467 28.021-10.36 9.242-1.665 18.077-1.821 25.441-1.391 0.82,2.022 1.601,4.065 2.307,6.145l1.696,5c4.512,13.299 15.307,22.781 28.989,25.582 6.41,14.82 21.179,24.627 37.468,24.627 16.28,0 31.05-9.808 37.468-24.629 13.677-2.802 24.471-12.283 28.982-25.58l1.696-5c0.706-2.08 1.487-4.123 2.307-6.145 7.364-0.43 16.199-0.274 25.44,1.391 10.508,1.893 19.852,5.358 28.022,10.36-10.21,12.419-17.984,24.168-23.223,35.098zm-100.695-36.165l-18.278-25.327c11.715-4.631 24.841-4.631 36.556,0l-18.278,25.327zm0,13.166c7.207,8.491 17.256,13.316 28.045,13.685-5.877,9.651-16.477,15.818-28.042,15.818-11.571,0-22.173-6.167-28.044-15.818 10.788-0.371 20.835-5.196 28.041-13.685zm128.961-18.257c-10.741-6.804-21.987-10.364-31.927-12.126-8.188-1.452-16-1.823-22.87-1.655 2.147-4.273 4.544-8.398 7.208-12.338 4.366-0.806 9.042-1.402 13.919-1.621 16.713-0.75 31.506,2.883 44.279,10.832-2.95,5.935-6.491,11.604-10.609,16.908zm13.872-24.166c-16.693-10.042-34.07-12.224-48.188-11.551-2.175,0.104-4.306,0.279-6.391,0.504 5.68-6.771 12.18-12.89 19.433-18.219 14.686-0.695 28.308,2.681 40.779,10.091-1.247,6.55-3.136,12.976-5.633,19.175zm2.147-70.899c4.755,14.094 6.251,28.896 4.718,43.325-12.281-6.631-24.502-9.289-35.731-9.669 2.131-5.222 1.797-11.315-1.368-16.505l-7.274-11.93c-5.696-9.341-14.549-16.391-24.928-19.851-18.048-6.015-37.759,1.74-46.869,18.44l-7.221,13.238c-1.058,1.939-0.343,4.369 1.597,5.427 1.936,1.056 4.368,0.343 5.427-1.596l2.579-4.729c4.942,1.604 9.505,2.309 13.694,2.309 19.498,0 30.921-14.957 35.352-22.294 5.509,3.193 10.186,7.723 13.539,13.22l7.274,11.93c2.498,4.096 1.879,9.188-1.307,12.544-4.611,0.346-8.988,1.021-13.041,1.899-25.28,5.479-43.303,19.249-44.058,19.833-1.748,1.351-2.069,3.863-0.719,5.611 1.354,1.748 3.863,2.069 5.611,0.718 0.17-0.131 17.093-13.058 40.372-18.232-5.936,5.47-11.262,11.503-15.938,18.008-16.647,3.521-28.139,9.601-28.771,9.941-1.945,1.043-2.676,3.465-1.635,5.412 1.042,1.946 3.464,2.682 5.413,1.64 0.118-0.063 7.431-3.913 18.618-7.133-1.923,3.328-3.681,6.759-5.283,10.28-9.532,0.924-15.804,2.615-16.286,2.749-2.129,0.587-3.377,2.787-2.792,4.916 0.586,2.128 2.789,3.38 4.916,2.797 0.092-0.025 4.16-1.116 10.688-1.982-0.333,0.908-0.673,1.812-0.984,2.73l-1.696,5c-3.677,10.837-12.599,18.5-23.866,20.499-11.274,1.997-22.282-2.129-29.46-11.04l22.076-31.96c0.684-0.947 0.919-2.145 0.646-3.279-0.274-1.135-1.03-2.093-2.07-2.624-16.405-8.376-35.996-8.376-52.405,0-1.04,0.531-1.796,1.489-2.07,2.624-0.273,1.135-0.038,2.333 0.646,3.279l22.077,31.96c-7.179,8.912-18.193,13.038-29.461,11.04-11.268-1.999-20.189-9.662-23.865-20.499l-1.696-5c-0.312-0.918-0.652-1.822-0.984-2.729 6.52,0.865 10.587,1.954 10.686,1.982 2.13,0.587 4.329-0.665 4.916-2.793 0.588-2.13-0.662-4.333-2.792-4.92-0.482-0.133-6.755-1.824-16.285-2.748-1.602-3.52-3.36-6.952-5.283-10.28 11.187,3.22 18.499,7.069 18.617,7.132 1.946,1.043 4.37,0.31 5.413-1.636 1.044-1.947 0.313-4.371-1.635-5.416-0.632-0.339-12.124-6.42-28.77-9.94-4.675-6.504-10-12.536-15.936-18.006 23.194,5.158 40.201,18.1 40.372,18.232 1.746,1.347 4.257,1.026 5.608-0.721 1.351-1.748 1.029-4.26-0.719-5.611-0.755-0.583-18.776-14.354-44.058-19.833-4.052-0.878-8.428-1.553-13.04-1.899-3.186-3.355-3.805-8.448-1.307-12.544l7.274-11.93c3.352-5.497 8.029-10.027 13.537-13.219 4.43,7.337 15.852,22.293 35.353,22.293 4.187,0 8.752-0.706 13.694-2.309l2.579,4.728c1.059,1.939 3.489,2.656 5.427,1.597 1.939-1.058 2.654-3.487 1.597-5.427l-7.22-13.237c-9.11-16.7-28.818-24.456-46.869-18.44-10.379,3.46-19.231,10.51-24.928,19.851l-7.274,11.93c-3.165,5.19-3.499,11.282-1.368,16.505-11.23,0.38-23.451,3.038-35.732,9.669-1.532-14.43-0.036-29.231 4.719-43.325l15.761-46.72c2.788-4.613 25.167-40.479 55.882-55.836 1.469-0.734 2.572-2.038 3.053-3.608 0.481-1.57 0.298-3.269-0.507-4.7-6.687-11.888-25.466-34.893-41.418-53.642l42.415,25.706c1.352,0.819 2.97,1.073 4.51,0.703 42.705-10.25 87.855-10.25 130.566,0 1.541,0.37 3.158,0.116 4.51-0.703l42.415-25.706c-15.952,18.749-34.731,41.754-41.419,53.642-0.805,1.431-0.988,3.13-0.507,4.7 0.48,1.57 1.584,2.874 3.053,3.608 30.648,15.324 53.095,51.233 55.884,55.839l15.761,46.715zm-89.375,2.514c2.209,0 4-1.791 4-4v-6.015c5.762-1.604 12.019-1.568 18.055,0.397-4.556,7.403-16.601,22.111-37.841,16.088l.732-1.342c2.689-4.931 6.541-8.88 11.054-11.656v2.527c0,2.21 1.791,4.001 4,4.001zm-111.209,0c2.209,0 4-1.791 4-4v-2.526c4.513,2.776 8.364,6.724 11.054,11.654l.732,1.343c-21.241,6.024-33.286-8.684-37.842-16.088 6.035-1.966 12.292-2.001 18.056-0.396v6.014c-2.84217e-14,2.208 1.791,3.999 4,3.999zm194.38-77.357l-5.263,12.754c-2.627-3.777-6.017-8.37-10.081-13.32l20.314-12.788c-1.495,4.49-3.15,8.944-4.97,13.354z"/>
    <path d="m170.289,199.401c-2.205-0.121-4.096,1.56-4.222,3.766-0.126,2.206 1.56,4.096 3.765,4.222 28.483,1.627 43.72,27.939 43.87,28.205 0.735,1.302 2.091,2.034 3.487,2.034 0.664,0 1.337-0.166 1.957-0.514 1.926-1.083 2.608-3.522 1.525-5.447-0.696-1.242-17.455-30.384-50.382-32.266z"/>
    <path d="m312.766,199.401c-32.928,1.882-49.687,31.024-50.384,32.264-1.082,1.923-0.4,4.356 1.521,5.441 0.62,0.351 1.295,0.517 1.961,0.517 1.395,0 2.75-0.731 3.487-2.03 0.15-0.266 15.387-26.577 43.871-28.205 2.205-0.126 3.891-2.016 3.765-4.222-0.125-2.206-2.016-3.887-4.221-3.765z"/>
    <path d="m241.527,220.703c30.834,0 55.919-25.085 55.919-55.919s-25.085-55.919-55.919-55.919-55.919,25.085-55.919,55.919 25.085,55.919 55.919,55.919zm0-103.839c26.423,0 47.919,21.496 47.919,47.919s-21.496,47.919-47.919,47.919-47.919-21.497-47.919-47.919 21.497-47.919 47.919-47.919z"/>
    <path d="m310.46,171.827c0.67,0.44 1.43,0.65 2.18,0.65 1.311,0 2.591-0.64 3.351-1.82 1.21-1.85 0.689-4.32-1.16-5.53s-4.33-0.69-5.54,1.16c-1.201,1.85-0.681,4.33 1.169,5.54z"/>
    <path d="m369.55,236.867c-0.67-2.1-2.92-3.26-5.029-2.59-2.101,0.67-3.271,2.92-2.591,5.02 0.54,1.7 2.11,2.79 3.811,2.79 0.399,0 0.81-0.06 1.21-0.19 2.11-0.67 3.269-2.92 2.599-5.03z"/>
    <path d="m342.76,195.527c-1.75,1.34-2.09,3.85-0.75,5.61 0.79,1.03 1.98,1.57 3.19,1.57 0.84,0 1.689-0.27 2.42-0.82 1.76-1.34 2.09-3.85 0.75-5.61-1.34-1.75-3.849-2.09-5.61-0.75z"/>
    <path d="m360.7,215.657c-1.021-1.95-3.43-2.71-5.39-1.69-1.961,1.02-2.721,3.44-1.7,5.4 0.72,1.36 2.109,2.15 3.55,2.15 0.63,0 1.26-0.15 1.85-0.46 1.96-1.02 2.721-3.44 1.7-5.4-0.01,0-0.01,0-0.01,0z"/>
    <path d="m370.11,255.867c-2.181,0.3-3.721,2.31-3.41,4.5 0.27,2.01 1.979,3.46 3.95,3.46 0.189,0 0.37-0.01 0.56-0.04 2.18-0.3 3.71-2.32 3.41-4.51s-2.32-3.72-4.51-3.41z"/>
    <path d="m327.28,179.477c-1.51,1.62-1.42,4.15 0.21,5.66 0.77,0.71 1.74,1.06 2.72,1.06 1.07,0 2.14-0.43 2.93-1.27 1.5-1.62 1.41-4.15-0.21-5.66-1.619-1.5-4.15-1.41-5.65,0.21z"/>
    <path d="m112.93,255.907c-2.189-0.3-4.21,1.23-4.5,3.42-0.31,2.18 1.221,4.2 3.41,4.5 0.19,0.03 0.37,0.04 0.55,0.04 1.971,0 3.681-1.45 3.96-3.46 0.3-2.19-1.23-4.2-3.42-4.5z"/>
    <path d="m170.39,172.497c0.75,0 1.511-0.22 2.181-0.66v0.01c1.85-1.21 2.37-3.69 1.17-5.54-1.21-1.85-3.69-2.37-5.54-1.17 0,0.01 0,0.01 0,0.01-1.851,1.2-2.37,3.68-1.16,5.53 0.759,1.18 2.039,1.82 3.349,1.82z"/>
    <path d="m140.271,195.547c-1.761-1.34-4.271-1-5.61,0.76-1.34,1.75-1,4.26 0.75,5.6 0.729,0.56 1.58,0.82 2.43,0.82 1.2,0 2.391-0.54 3.181-1.57 1.338-1.76 0.999-4.27-0.751-5.61z"/>
    <path d="m150.1,179.287c-1.619,1.51-1.71,4.04-0.21,5.66 0.79,0.85 1.86,1.28 2.94,1.28 0.97,0 1.95-0.36 2.72-1.07 1.62-1.51 1.71-4.04 0.2-5.66-1.5-1.62-4.03-1.71-5.65-0.21z"/>
    <path d="m127.731,213.997c-1.96-1.02-4.381-0.26-5.4,1.69-1.02,1.96-0.26,4.38 1.7,5.4 0.59,0.31 1.22,0.45 1.84,0.45 1.44,0 2.84-0.78 3.55-2.15 1.029-1.95 0.27-4.37-1.69-5.39z"/>
    <path d="m118.521,234.307c-2.11-0.67-4.36,0.49-5.03,2.6-0.67,2.1 0.49,4.35 2.6,5.03 0.4,0.12 0.811,0.18 1.21,0.18 1.7,0 3.271-1.08 3.811-2.78 0.678-2.11-0.492-4.36-2.591-5.03z"/>
    <path d="m241.527,208.134c23.903,0 43.35-19.447 43.35-43.35s-19.446-43.35-43.35-43.35-43.351,19.447-43.351,43.35 19.448,43.35 43.351,43.35zm0-8c-10.722,0-20.338-4.805-26.826-12.367h53.652c-6.488,7.562-16.103,12.367-26.826,12.367zm25.539-20.368h-51.076l25.538-44.233 25.538,44.233zm9.811-14.982c0,4.29-0.77,8.403-2.175,12.21l-27.157-47.037c16.634,2.865 29.332,17.386 29.332,34.827zm-41.367-34.827l-27.157,47.038c-1.406-3.808-2.176-7.921-2.176-12.211 0-17.441 12.699-31.962 29.333-34.827z"/>
    <circle cx="241.527" cy="164.784" r="6.802"/>
    <circle cx="241.53" cy="239.937" r="4"/>
    <circle cx="241.53" cy="263.167" r="4"/>
    <circle cx="241.53" cy="286.397" r="4"/>
    <path d="m322.879,259.992c0.987,0 1.952-0.396 2.647-1.092 0.696-0.695 1.092-1.66 1.092-2.647 0-0.98-0.396-1.944-1.092-2.64-0.696-0.695-1.66-1.092-2.647-1.092-0.987,0-1.952,0.396-2.64,1.092-0.696,0.696-1.099,1.66-1.099,2.64 0,0.987 0.404,1.952 1.099,2.647 0.688,0.695 1.652,1.092 2.64,1.092z"/>
    <path d="m313.404,270.588c1.286,0 2.535-0.516 3.44-1.421 0.905-0.905 1.428-2.161 1.428-3.44s-0.523-2.528-1.428-3.432c-0.905-0.905-2.154-1.428-3.44-1.428-1.279,0-2.528,0.523-3.432,1.428-0.905,0.897-1.428,2.154-1.428,3.432s0.523,2.535 1.428,3.44c0.904,0.905 2.153,1.421 3.432,1.421z"/>
    <path d="m300.945,279.188c1.571,0 3.118-0.636 4.225-1.75 1.114-1.114 1.758-2.655 1.758-4.233 0-1.57-0.643-3.118-1.758-4.233-1.107-1.107-2.655-1.75-4.225-1.75-1.578,0-3.118,0.643-4.232,1.75-1.114,1.114-1.75,2.662-1.75,4.233 0,1.578 0.636,3.118 1.75,4.233s2.654,1.75 4.232,1.75z"/>
    <path d="m182.109,267.223c-1.57,0-3.111,0.643-4.225,1.757s-1.757,2.655-1.757,4.225c0,1.578 0.643,3.118 1.757,4.233 1.107,1.114 2.655,1.75 4.225,1.75 1.578,0 3.119-0.636 4.233-1.75 1.114-1.114 1.75-2.655 1.75-4.233 0-1.57-0.636-3.111-1.75-4.225-1.114-1.114-2.654-1.757-4.233-1.757z"/>
    <path d="m169.644,260.867c-1.279,0-2.528,0.523-3.433,1.428-0.905,0.897-1.428,2.154-1.428,3.432s0.523,2.535 1.428,3.44c0.905,0.905 2.154,1.421 3.433,1.421 1.279,0 2.535-0.516 3.44-1.421 0.905-0.905 1.421-2.161 1.421-3.44s-0.516-2.528-1.421-3.432c-0.905-0.905-2.162-1.428-3.44-1.428z"/>
    <path d="m160.176,252.521c-0.987,0-1.952,0.396-2.647,1.092-0.696,0.696-1.092,1.66-1.092,2.647 0,0.98 0.396,1.944 1.092,2.64 0.695,0.696 1.66,1.099 2.647,1.099s1.944-0.404 2.64-1.099c0.695-0.695 1.099-1.66 1.099-2.64 0-0.987-0.404-1.952-1.099-2.647-0.696-0.696-1.66-1.092-2.64-1.092z"/>
  </g>
</svg>
