<?xml version='1.0' encoding='iso-8859-1'?>
<!DOCTYPE svg PUBLIC '-//W3C//DTD SVG 1.1//EN' 'http://www.w3.org/Graphics/SVG/1.1/DTD/svg11.dtd'>
<svg version="1.1" xmlns="http://www.w3.org/2000/svg" viewBox="0 0 234.981 234.981" xmlns:xlink="http://www.w3.org/1999/xlink" enable-background="new 0 0 234.981 234.981">
  <path d="m218.803,97.929c-2.929-2.929-7.678-2.929-10.606,0l-17.631,17.631h-26.203l-5.44-5.439h7.83c1.989,0 3.897-0.79 5.303-2.197l31.43-31.432c1.407-1.407 2.197-3.314 2.197-5.303v-39.378c0-4.142-3.358-7.5-7.5-7.5-4.142,0-7.5,3.358-7.5,7.5v36.273l-27.037,27.038h-10.816l19.816-19.813c1.407-1.407 2.197-3.314 2.197-5.304v-30.603c0-1.989-0.79-3.898-2.197-5.304l-31.908-31.902c-2.929-2.929-7.678-2.929-10.606,0.001-2.929,2.929-2.928,7.678 0.001,10.606l29.711,29.706v24.388l-20.504,20.502c-1.075-1.061-2.224-2.044-3.441-2.944 1.98-6.665 0.348-14.184-4.901-19.438-2.928-2.93-7.677-2.932-10.607-0.004-2.93,2.928-2.932,7.677-0.004,10.607 0.828,0.829 1.254,1.9 1.312,2.987-1.484-0.214-3-0.331-4.543-0.331-1.542,0-3.058,0.117-4.542,0.331 0.062-1.083 0.488-2.149 1.314-2.975 2.929-2.929 2.929-7.678 0-10.606-2.929-2.929-7.678-2.929-10.606,0-5.251,5.251-6.889,12.769-4.915,19.433-1.087,0.804-2.118,1.68-3.093,2.613l-20.177-20.175v-24.388l29.709-29.706c2.929-2.929 2.93-7.678 0.001-10.606-2.93-2.929-7.678-2.93-10.606-0.001l-31.907,31.903c-1.407,1.407-2.197,3.314-2.197,5.304v30.602c0,1.989 0.79,3.897 2.197,5.304l19.815,19.813h-10.814l-27.036-27.039v-36.272c0-4.142-3.358-7.5-7.5-7.5s-7.5,3.358-7.5,7.5v39.379c0,1.989 0.79,3.896 2.197,5.303l31.43,31.432c1.406,1.407 3.314,2.197 5.303,2.197h7.828l-5.44,5.439h-26.203l-17.63-17.632c-2.929-2.928-7.678-2.929-10.607-0.001-2.929,2.929-2.929,7.678 0,10.607l19.826,19.828c1.407,1.407 3.314,2.197 5.304,2.197h32.416c1.989,0 3.897-0.79 5.303-2.196l8.207-8.206c0.189,0.554 0.393,1.101 0.611,1.641l-26.574,26.576c-1.406,1.407-2.196,3.314-2.196,5.303v47.736c0,1.989 0.79,3.897 2.197,5.303l26.066,26.066c1.464,1.464 3.384,2.197 5.303,2.197 1.919,0 3.839-0.732 5.303-2.197 2.929-2.929 2.929-7.678 0-10.607l-23.87-23.87v-41.523l9.747-9.747c-3.374,6.09-5.317,13.166-5.317,20.717 0,22.696 17.489,41.16 38.986,41.16 21.495,0 38.982-18.464 38.982-41.16 0-7.554-1.945-14.632-5.32-20.724l9.754,9.754v41.523l-23.872,23.87c-2.929,2.929-2.929,7.678-0.001,10.607 1.465,1.464 3.384,2.197 5.304,2.197 1.919,0 3.839-0.732 5.303-2.196l26.068-26.066c1.407-1.407 2.197-3.314 2.197-5.304v-47.736c0-1.989-0.79-3.896-2.196-5.303l-27.056-27.057c0.211-0.547 0.41-1.099 0.591-1.66l8.708,8.707c1.407,1.406 3.314,2.196 5.303,2.196h32.416c1.989,0 3.897-0.79 5.303-2.197l19.828-19.828c2.931-2.929 2.931-7.678 0.002-10.607zm-96.289-3.748c0.377,0.175 0.763,0.321 1.158,0.432 5.937,2.544 10.108,8.452 10.108,15.319 0,9.182-7.458,16.652-16.625,16.652-5.653,0-10.649-2.846-13.654-7.177-0.112-0.189-0.232-0.375-0.361-0.555-1.644-2.582-2.61-5.637-2.61-8.92 0-1.721 0.262-3.382 0.748-4.945 0.016-0.046 0.036-0.09 0.05-0.137 0.249-0.778 0.565-1.525 0.922-2.249 0.266-0.393 0.488-0.805 0.671-1.23 1.794-2.982 4.48-5.366 7.701-6.751 0.405-0.112 0.801-0.263 1.187-0.444 1.681-0.574 3.474-0.9 5.346-0.9 1.876,1.42109e-14 3.675,0.328 5.359,0.905zm-5.024,99.733c-13.226,0-23.986-11.735-23.986-26.16 0-14.43 10.76-26.17 23.986-26.17 13.224,0 23.982,11.74 23.982,26.17 0.001,14.425-10.758,26.16-23.982,26.16z"/>
</svg>
