<?xml version='1.0' encoding='iso-8859-1'?>
<!DOCTYPE svg PUBLIC '-//W3C//DTD SVG 1.1//EN' 'http://www.w3.org/Graphics/SVG/1.1/DTD/svg11.dtd'>
<svg version="1.1" xmlns="http://www.w3.org/2000/svg" viewBox="0 0 464.012 464.012" xmlns:xlink="http://www.w3.org/1999/xlink" enable-background="new 0 0 464.012 464.012">
  <g>
    <path d="m264.44,224.671c0.715-1.238 0.715-2.762 0-4-0.714-1.238-2.035-2-3.464-2h-57.94c-1.429,0-2.75,0.762-3.464,2-0.715,1.238-0.715,2.762 0,4l6.351,11h-13.279c-1.429,0-2.75,0.762-3.464,2-0.715,1.238-0.715,2.762 0,4l39.362,68.178c0.715,1.238 2.035,2 3.464,2s2.75-0.762 3.464-2l39.362-68.178c0.715-1.238 0.715-2.762 0-4-0.714-1.238-2.035-2-3.464-2h-13.279l6.351-11zm-54.476,2h44.084l-5.196,9h-33.692l-5.196-9zm34.269,17l-12.227,21.178-12.227-21.178h24.454zm20.207,0l-32.434,56.178-32.434-56.178h10.97l18.001,31.178c0.714,1.238 2.035,2 3.464,2s2.75-0.762 3.464-2l18-31.178h10.969z"/>
    <path d="m395.909,87.686c-1.011-1.011-2.486-1.404-3.863-1.035-1.381,0.37-2.459,1.448-2.828,2.829l-2.13,7.949-6.135-6.135c-1.011-1.011-2.485-1.404-3.863-1.035-1.381,0.37-2.459,1.448-2.828,2.828l-15.733,58.717c-0.37,1.38 0.024,2.853 1.035,3.864 0.76,0.76 1.781,1.171 2.828,1.171 0.346,0 0.693-0.044 1.035-0.136l58.718-15.733c1.381-0.37 2.459-1.448 2.828-2.829 0.37-1.38-0.024-2.853-1.035-3.864l-6.134-6.134 7.948-2.13c1.381-0.37 2.459-1.448 2.828-2.829 0.37-1.38-0.024-2.853-1.035-3.864l-31.636-31.634zm17.473,47.35l-45.333,12.147 12.146-45.333 4.502,4.502-7.058,26.343c-0.37,1.38 0.024,2.853 1.035,3.864 0.76,0.76 1.781,1.171 2.828,1.171 0.346,0 0.693-0.044 1.035-0.136l26.344-7.059 4.501,4.501zm-22.153-22.153l11.12,11.12-15.189,4.07 4.069-15.19zm2.391-8.923l1.532-5.718 21.838,21.838-5.718,1.532-17.652-17.652z"/>
    <path d="m105.483,151.804l-15.733-58.717c-0.37-1.38-1.448-2.459-2.829-2.829-1.379-0.369-2.853,0.025-3.864,1.035l-6.134,6.134-2.13-7.949c-0.37-1.38-1.448-2.458-2.829-2.828-1.379-0.369-2.853,0.025-3.864,1.035l-31.635,31.635c-1.01,1.01-1.405,2.483-1.035,3.864 0.37,1.38 1.448,2.459 2.829,2.829l7.948,2.13-6.134,6.134c-1.01,1.011-1.405,2.483-1.035,3.864 0.37,1.38 1.448,2.458 2.829,2.829l58.717,15.733c0.342,0.092 0.69,0.136 1.035,0.136 1.047,0 2.068-0.412 2.829-1.171 1.01-1.011 1.405-2.483 1.035-3.864zm-58.461-31.724l21.838-21.838 1.532,5.718-17.652,17.652-5.718-1.532zm29.831,7.993l-15.19-4.07 11.12-11.12 4.07,15.19zm-26.223,6.963l4.501-4.501 26.343,7.059c0.342,0.092 0.69,0.136 1.035,0.136 1.047,0 2.068-0.412 2.829-1.171 1.01-1.011 1.405-2.483 1.035-3.864l-7.059-26.344 4.501-4.501 12.147,45.333-45.332-12.147z"/>
    <path d="m267.612,293.699c0.76,0.76 1.781,1.171 2.828,1.171 0.345,0 0.693-0.044 1.035-0.136l40.17-10.76c1.38-0.37 2.459-1.448 2.828-2.828 0.37-1.381-0.024-2.854-1.035-3.864l-5.433-5.433 13.143-3.522c1.381-0.37 2.459-1.448 2.828-2.829 0.37-1.38-0.024-2.853-1.035-3.864l-23.264-23.264c-1.011-1.011-2.485-1.404-3.863-1.035-1.381,0.37-2.459,1.448-2.828,2.829l-3.522,13.144-5.435-5.435c-1.011-1.011-2.486-1.405-3.863-1.036-1.381,0.37-2.459,1.448-2.828,2.829l-10.761,40.17c-0.371,1.38 0.024,2.853 1.035,3.863zm31.307-44.772l13.466,13.465-18.395,4.929 4.929-18.394zm-15.647,9.502l3.801,3.801-2.603,9.713c-0.37,1.38 0.024,2.853 1.035,3.864 0.76,0.76 1.781,1.171 2.828,1.171 0.346,0 0.693-0.044 1.035-0.136l9.713-2.603 3.8,3.8-26.786,7.175 7.177-26.785z"/>
    <path d="m186.676,249.666c-0.37-1.38-1.448-2.458-2.828-2.829s-2.854,0.025-3.864,1.035l-5.435,5.435-3.522-13.143c-0.37-1.38-1.448-2.458-2.829-2.829s-2.853,0.025-3.864,1.035l-23.264,23.264c-1.01,1.011-1.405,2.483-1.035,3.864 0.37,1.38 1.448,2.458 2.829,2.829l13.143,3.521-5.434,5.434c-1.01,1.011-1.405,2.483-1.035,3.864 0.37,1.38 1.448,2.458 2.829,2.828l40.17,10.76c0.342,0.092 0.69,0.136 1.035,0.136 1.047,0 2.068-0.412 2.829-1.171 1.01-1.011 1.405-2.483 1.035-3.864l-10.76-40.169zm-21.583-.739l4.929,18.395-18.395-4.929 13.466-13.466zm-3.963,29.113l3.8-3.8 9.713,2.603c0.342,0.092 0.69,0.136 1.035,0.136 1.047,0 2.068-0.412 2.829-1.171 1.01-1.011 1.405-2.483 1.035-3.864l-2.603-9.713 3.801-3.801 7.175,26.786-26.785-7.176z"/>
    <path d="m277.511,95.671h-19.12l6.048-10.476c0.715-1.238 0.715-2.762 0-4-0.714-1.238-2.035-2-3.464-2h-57.94c-1.429,0-2.75,0.762-3.464,2-0.715,1.238-0.715,2.762 0,4l6.048,10.476h-19.119c-1.429,0-2.75,0.762-3.464,2-0.715,1.238-0.715,2.762 0,4l29.739,51.509h-9.74c-1.429,0-2.75,0.762-3.464,2-0.715,1.238-0.715,2.762 0,4l28.97,50.178c0.714,1.238 2.035,2 3.464,2s2.75-0.762 3.464-2l28.97-50.178c0.715-1.238 0.715-2.762 0-4-0.714-1.238-2.035-2-3.464-2h-9.739l29.738-51.509c0.715-1.238 0.715-2.762 0-4-0.713-1.238-2.034-2-3.463-2zm-67.547-8.476h44.084l-4.894,8.476h-34.297l-4.893-8.476zm34.571,16.476l-12.53,21.702-12.53-21.702h25.06zm9.513,57.508l-22.042,38.178-22.042-38.178h7.43l11.148,19.309c0.714,1.238 2.035,2 3.464,2s2.75-0.762 3.464-2l11.148-19.309h7.43zm-27.417,0h10.749l-5.375,9.309-5.374-9.309zm15.368-8h-19.987l-28.584-49.509h16.81l18.303,31.702c0.714,1.238 2.035,2 3.464,2s2.75-0.762 3.464-2l18.303-31.702h16.811l-28.584,49.509z"/>
    <path d="m463.9,36.692c-0.168-3.187-2.801-5.686-5.992-5.686-35.253,0-117.871,35.371-133.269,42.1l-47.515-19.661c-29.095-12.039-61.142-12.039-90.237,0l-47.514,19.661c-15.397-6.729-98.016-42.1-133.269-42.1-3.191,0-5.825,2.499-5.992,5.686-1.402,26.723 10.57,76.544 20.861,113.633 5.241,18.894 23.245,31.653 42.809,30.34l58.538-3.949c-4.233,20.632-17.4,78.572-37.96,112.798-7.888,13.132-7.413,29.791 1.21,42.44 18.665,27.379 49.027,55.307 83.454,76.811l.711,1.28c7.87,14.164 22.824,22.963 39.027,22.963h46.485c16.203,0 31.158-8.799 39.028-22.963l.711-1.28c34.426-21.502 64.788-49.431 83.454-76.811 8.623-12.65 9.099-29.309 1.21-42.44-20.546-34.202-33.722-92.159-37.96-112.798l58.539,3.949c0.927,0.063 1.847,0.093 2.765,0.093 18.473-0.001 35.051-12.434 40.043-30.432 10.291-37.091 22.264-86.912 20.863-113.634zm-400.923,132c-13.912,0.927-26.714-8.139-30.44-21.575-7.647-27.562-19.931-75.884-20.518-103.793 0.427,0.042 0.867,0.093 1.306,0.143 26.411,11.137 121.523,55.946 115.058,120.812l-65.406,4.413zm89.793,151.625l2.36,23.156c-14.111-8.755-26.931-24.714-34.391-35.17l32.031,12.014zm131.016,83.898c-5.754,10.357-16.689,16.791-28.538,16.791h-46.485c-11.848,0-22.783-6.434-28.538-16.791l-6.392-11.504c-4.914-8.844-2.674-19.759 5.325-25.953l24.286-18.806c8.409-6.511 18.485-9.767 28.562-9.767s20.154,3.255 28.562,9.767l24.285,18.806c8,6.194 10.239,17.109 5.325,25.953l-6.392,11.504zm27.455-83.898l32.038-12.016c-7.454,10.454-20.271,26.413-34.398,35.173l2.36-23.157zm58.124-24.624c5.484,9.129 5.155,20.708-0.839,29.5-14.889,21.841-37.722,44.122-64.192,62.924l.004-.039c0.231-1.376 3.556-34.906 3.556-34.906 26.073-12.893 48.071-49.328 49.021-50.917 0.872-1.459 0.727-3.31-0.362-4.615-1.088-1.304-2.884-1.78-4.476-1.182l-17.988,6.746 .562-39.767c0.303-20.242-9.144-39.636-25.268-51.878l-24.641-18.708 19.436-5.759c3.441-1.02 5.405-4.637 4.386-8.079-1.021-3.441-4.634-5.403-8.079-4.386l-14.777,4.378 11.138-15.911c1.34-1.913 3.436-2.938 5.778-2.8 2.331,0.133 4.306,1.387 5.418,3.441l5.691,10.505c1.052,1.943 3.48,2.665 5.422,1.612 1.942-1.052 2.664-3.48 1.611-5.422l-5.69-10.505c-2.426-4.479-6.909-7.327-11.995-7.618-5.087-0.289-9.867,2.026-12.789,6.2l-20.009,28.584c-1.231,1.761-0.853,4.18 0.858,5.479l33.402,25.361c14.107,10.711 22.371,27.678 22.105,45.391l-.606,42.901-13.899,5.213 .559-5.488c0.229-2.197-1.365-4.165-3.563-4.395-2.193-0.225-4.165,1.365-4.395,3.563l-6.141,58.74c-1.774-2.428-3.911-4.653-6.406-6.585l-1.565-1.212c-2.677-7.848-7.745-24.581-7.745-38.806 0-2.209-1.791-4-4-4s-4,1.791-4,4c0,10.295 2.337,21.488 4.744,30.287l-11.719-9.075c-21.146-16.371-50.676-16.371-71.818,0l-11.72,9.076c2.406-8.799 4.744-19.992 4.744-30.288 0-2.209-1.791-4-4-4s-4,1.791-4,4c0,14.225-5.068,30.958-7.745,38.806l-1.565,1.212c-2.496,1.933-4.633,4.157-6.407,6.586l-6.141-58.741c-0.23-2.197-2.2-3.789-4.395-3.563-2.197,0.23-3.792,2.197-3.563,4.395l.559,5.487-13.9-5.213-.606-42.903c-0.264-17.71 8-34.677 22.106-45.388l33.402-25.361c1.711-1.299 2.09-3.719 0.858-5.479l-20.009-28.584c-2.922-4.173-7.713-6.489-12.787-6.2-5.085,0.291-9.57,3.139-11.996,7.618l-5.69,10.505c-1.052,1.942-0.331,4.37 1.612,5.422 1.942,1.052 4.37,0.331 5.422-1.612l5.69-10.505c1.112-2.054 3.087-3.308 5.419-3.441 2.328-0.133 4.437,0.887 5.776,2.8l11.138,15.911-14.776-4.378c-3.439-1.017-7.059,0.943-8.079,4.386-1.02,3.442 0.944,7.059 4.386,8.079l19.436,5.759-24.64,18.708c-16.124,12.242-25.569,31.636-25.268,51.875l.562,39.771-17.987-6.746c-1.593-0.597-3.387-0.123-4.476,1.182-1.089,1.305-1.234,3.156-0.362,4.615 0.949,1.589 22.949,38.024 49.022,50.917 0,0 3.325,33.538 3.56,34.929l.002,.017c-26.471-18.802-49.305-41.085-64.194-62.925-5.994-8.792-6.323-20.371-0.838-29.5 24.166-40.231 37.987-108.655 40.552-122.178 0.23-1.214 0.719-4.925 0.812-5.595 4.762-34.183-15.325-68.127-58.309-98.355-9.795-6.893-19.699-12.851-28.819-17.844 40.189,12.244 87.315,33.093 87.984,33.39 1.501,0.667 3.212,0.689 4.73,0.061l49.88-20.64c26.137-10.815 54.925-10.815 81.061,0l49.881,20.64c1.517,0.628 3.227,0.606 4.73-0.061 0.669-0.297 47.793-21.145 87.982-33.39-9.119,4.993-19.022,10.951-28.821,17.842-42.197,29.675-62.328,62.931-58.545,96.48 0.146,1.296 0.828,6.308 1.131,7.889 1.199,6.245 4.528,22.7 9.94,42.759 9.162,33.946 19.434,60.525 30.532,79.001zm62.111-148.576c-3.728,13.436-16.542,22.505-30.438,21.575l-65.413-4.413c-1.584-15.899 2.792-31.76 13.085-47.224 9.337-14.027 23.495-27.775 42.079-40.861 23.514-16.557 48.272-27.853 59.865-32.723 0.45-0.052 0.9-0.104 1.339-0.147-0.587,27.909-12.871,76.231-20.517,103.793z"/>
    <path d="m221.163,370.072c-2.02-0.898-4.383,0.013-5.28,2.031l-5.97,13.433c-0.615,1.384-2.161,2.069-3.601,1.588-0.762-0.253-1.372-0.792-1.717-1.517-0.346-0.724-0.381-1.537-0.099-2.288l.672-1.793c0.775-2.069-0.273-4.374-2.341-5.15-2.07-0.775-4.375,0.272-5.15,2.341l-.672,1.793c-1.052,2.805-0.921,5.838 0.369,8.542 1.29,2.704 3.565,4.714 6.407,5.662 1.156,0.386 2.331,0.57 3.486,0.57 4.208,0 8.153-2.443 9.956-6.498l5.97-13.433c0.898-2.02-0.012-4.384-2.03-5.281z"/>
    <path d="m266.333,378.715c-0.776-2.068-3.082-3.117-5.15-2.34-2.068,0.776-3.116,3.082-2.34,5.15l.673,1.792c0.281,0.751 0.246,1.564-0.1,2.289s-0.955,1.263-1.716,1.517c-1.437,0.478-2.987-0.204-3.602-1.588l-5.971-13.433c-0.897-2.019-3.261-2.927-5.28-2.031-2.019,0.897-2.928,3.261-2.03,5.28l5.971,13.434c1.803,4.055 5.748,6.497 9.956,6.497 1.155,0 2.33-0.184 3.485-0.569 2.842-0.947 5.117-2.958 6.406-5.661 1.29-2.704 1.422-5.737 0.37-8.543l-.672-1.794z"/>
  </g>
</svg>
