<?xml version='1.0' encoding='iso-8859-1'?>
<!DOCTYPE svg PUBLIC '-//W3C//DTD SVG 1.1//EN' 'http://www.w3.org/Graphics/SVG/1.1/DTD/svg11.dtd'>
<svg version="1.1" xmlns="http://www.w3.org/2000/svg" viewBox="0 0 465.65 465.65" xmlns:xlink="http://www.w3.org/1999/xlink" enable-background="new 0 0 465.65 465.65">
  <g>
    <g>
      <path d="m276.42,307.816c1.4,1.39 2.2,3.32 2.2,5.3 0,1.97-0.8,3.9-2.2,5.3-1.4,1.4-3.33,2.2-5.3,2.2-1.98,0-3.91-0.8-5.31-2.2-1.39-1.4-2.19-3.33-2.19-5.3 0-1.98 0.8-3.91 2.19-5.3 1.4-1.4 3.33-2.2 5.31-2.2 1.97,0 3.9,0.8 5.3,2.2z"/>
      <path d="m199.84,307.816c1.4,1.39 2.2,3.32 2.2,5.3 0,1.97-0.8,3.91-2.2,5.3-1.39,1.4-3.32,2.2-5.3,2.2-1.97,0-3.91-0.8-5.3-2.2-1.4-1.39-2.2-3.33-2.2-5.3 0-1.98 0.8-3.91 2.2-5.3 1.39-1.4 3.33-2.2 5.3-2.2 1.98,0 3.91,0.8 5.3,2.2z"/>
      <g>
        <path d="m237.3,293.796c1.11,1.12 1.75,2.66 1.75,4.24 0,1.58-0.64,3.13-1.75,4.24-1.12,1.12-2.67,1.76-4.24,1.76-1.58,0-3.13-0.64-4.25-1.76-1.11-1.11-1.75-2.66-1.75-4.24 0-1.58 0.64-3.12 1.75-4.24 1.12-1.12 2.67-1.76 4.25-1.76 1.57,0 3.12,0.64 4.24,1.76z"/>
        <path d="m237.3,341.896c1.11,1.12 1.75,2.66 1.75,4.24 0,1.58-0.64,3.12-1.75,4.24-1.12,1.12-2.67,1.76-4.24,1.76-1.58,0-3.13-0.64-4.25-1.76-1.11-1.11-1.75-2.66-1.75-4.24 0-1.58 0.64-3.13 1.75-4.24 1.12-1.12 2.67-1.76 4.25-1.76 1.57,0 3.12,0.64 4.24,1.76z"/>
        <path d="m237.3,355.896c1.11,1.11 1.75,2.66 1.75,4.24 0,1.58-0.64,3.13-1.75,4.24-1.12,1.12-2.67,1.76-4.24,1.76-1.58,0-3.13-0.64-4.25-1.76-1.11-1.11-1.75-2.66-1.75-4.24 0-1.58 0.64-3.13 1.75-4.24 1.12-1.12 2.67-1.76 4.25-1.76 1.57,0 3.12,0.64 4.24,1.76z"/>
        <path d="m182.07,266.796c1.12,1.11 1.76,2.66 1.76,4.24 0,1.58-0.64,3.13-1.76,4.24-1.11,1.12-2.66,1.76-4.24,1.76s-3.13-0.64-4.24-1.76c-1.12-1.11-1.76-2.66-1.76-4.24 0-1.58 0.64-3.12 1.76-4.24 1.11-1.12 2.66-1.76 4.24-1.76s3.13,0.64 4.24,1.76z"/>
      </g>
    </g>
    <g>
      <path d="m287.83,277.036c1.58,0 3.12-0.64 4.24-1.76s1.76-2.66 1.76-4.24c0-1.58-0.64-3.12-1.76-4.24-1.11-1.12-2.66-1.76-4.24-1.76s-3.13,0.64-4.24,1.76c-1.12,1.12-1.76,2.66-1.76,4.24 0,1.58 0.64,3.12 1.76,4.24 1.11,1.12 2.66,1.76 4.24,1.76z"/>
      <path d="m365.922,205.725c1.674-0.126 3.349-0.179 5.027-0.222 52.449-1.344 94.701-44.361 94.701-97.047 0-12.758-2.529-25.312-7.517-37.312l-18.93-45.6c-1.377-3.315-5.18-4.888-8.496-3.511-3.315,1.376-4.887,5.18-3.511,8.495l18.931,45.603c4.328,10.413 6.522,21.289 6.522,32.325 0,30.721-16.6,57.634-41.308,72.305 6.012-6.464 11.061-13.893 14.907-22.103 10.879-23.23 10.831-49.852-0.131-73.039l-10.924-23.114c-1.521-3.218-5.327-4.852-8.589-3.429-3.375,1.473-4.844,5.431-3.282,8.737l11.041,23.361c9.301,19.674 9.342,42.261 0.112,61.97-2.125,4.537-4.699,8.779-7.633,12.711 4.68-15.454 2.581-31.855-6.107-45.976l-18-29.25c-1.915-3.113-6.034-4.045-9.111-2.022-2.974,1.955-3.683,6.036-1.818,9.067l17.857,29.018c7.729,12.562 8.712,27.459 2.698,40.872-5.642,12.58-16.662,21.714-29.775,24.815-0.671,0.159-10.152,1.24-10.492,1.313-12.516,1.753-24.688,5.521-35.99,11.087-1.785,0.879-8.935,4.575-9.556,4.72-1.862,0.436-3.425-0.329-3.963-0.643-0.887-0.519-2.916-2.052-2.585-5.075 1.454-13.307 6.094-26.265 13.422-37.489 1.931-2.957 1.343-7.021-1.537-9.065-3.017-2.141-7.183-1.337-9.198,1.729-8.527,12.98-13.924,27.992-15.609,43.411-0.708,6.464 1.961,12.564 7.037,16.423-1.319,1.064-2.618,2.154-3.892,3.277l-10.219,8.999c-0.983-0.384-1.98-0.741-3.001-1.04-7.285-2.13-14.908-1.905-22.029,0.645-1.349,0.476-2.694,1.049-4,1.702-5.603,2.802-11.877,4.282-18.144,4.282-6.267,0-12.541-1.481-18.144-4.282-1.306-0.653-2.651-1.226-3.989-1.699-7.083-2.522-14.812-2.747-22.039-0.649-1.023,0.299-2.02,0.655-3.004,1.039l-10.219-8.998c-1.345-1.184-2.722-2.34-4.125-3.466 4.955-3.904 7.491-9.9 6.802-16.232-1.676-15.338-7.025-30.272-15.473-43.205-1.821-2.788-5.455-3.956-8.437-2.474-3.563,1.771-4.682,6.181-2.565,9.404 7.403,11.269 12.089,24.301 13.551,37.684 0.287,2.63-1.225,4.131-2.151,4.792-1.564,1.116-3.468,1.364-5.148,0.687 0,0-1.529-0.886-1.74-1.008-13.097-7.525-27.697-12.489-42.669-14.574-0.244-0.048-5.802-0.695-8.34-0.864-14.016-2.594-25.905-12.013-31.841-25.249-6.015-13.412-5.031-28.31 2.697-40.871l17.859-29.021c1.866-3.032 1.154-7.112-1.822-9.066-3.079-2.021-7.193-1.089-9.109,2.023l-18,29.25c-8.689,14.123-10.787,30.528-6.104,45.985-2.935-3.933-5.511-8.176-7.637-12.715-9.23-19.709-9.189-42.299 0.113-61.977l10.945-23.16c1.412-2.989 0.524-6.667-2.263-8.444-3.371-2.149-7.743-0.808-9.396,2.689l-11.04,23.359c-10.964,23.192-11.012,49.816-0.132,73.046 3.845,8.209 8.893,15.636 14.905,22.099-24.712-14.666-41.315-41.58-41.315-72.302 0-11.01 2.198-21.887 6.533-32.328l18.93-45.6c1.401-3.377-0.255-7.26-3.697-8.569-3.327-1.265-7.05,0.55-8.414,3.837l-18.825,45.347c-4.995,12.029-7.527,24.583-7.527,37.313 0,53.522 43.609,97.067 97.216,97.08 0.009,0 0.019,0.002 0.028,0.002 0.005,0 0.01-0.001 0.016-0.001 2.209,0 11.623,0.901 14.203,0.984 12.889,1.765 25.473,5.926 36.843,12.231 0.457,0.254 2.873,1.648 3.178,1.832 5.453,3.287 10.621,7.069 15.36,11.241l7.36,6.481-7.875,8.901-15.645-14.947c-8.809-8.414-20.338-13.664-32.465-14.783l-47.93-4.42c-1.759-0.166-3.471,0.615-4.507,2.044s-1.242,3.3-0.541,4.92l17.129,39.609c5.91,13.668 17.371,23.686 30.837,28.205-11.686,13.063-18.268,30.08-18.268,47.771 0,5.568 0.657,11.155 1.954,16.61 0.237,0.997 0.79,1.921 1.634,2.502 0.707,0.486 1.506,0.718 2.291,0.718 0.973,0 1.928-0.355 2.672-1.023 1.901-1.706 3.696-3.52 5.399-5.411 0.353,1.393 0.727,2.78 1.146,4.15 2.217,7.204 5.344,14.094 9.295,20.478 0.715,1.156 1.999,1.837 3.358,1.826h0.06c1.382-0.011 2.674-0.736 3.366-1.932 14.841-25.662 15.712-56.775 2.78-83.028 0.197,0.002 0.393,0.011 0.591,0.011 3.332,0 6.701-0.329 10.057-1.01l12.011-2.434c0.235,1.044 0.499,2.082 0.827,3.104 0.836,2.6 1.26,5.305 1.26,8.04 0,2.08-0.252,4.173-0.749,6.221-1.474,6.075-2.221,12.326-2.221,18.579 0,1.315 0.11,4.157 0.122,4.263 0.506,9.529 2.72,18.795 6.607,27.601l.387,.873c0.95,8.383 3.376,39.634-10.823,55.578-0.842,0.946-1.308,2.203-1.084,3.449 0.365,2.032 2.081,3.345 3.95,3.345 0.202,0 0.406-0.015 0.61-0.047 7.795-1.2 14.828-4.257 21.002-9.103 0.437,9.017-0.047,21.737-4.376,28.92-0.85,1.41-0.89,3.221 0.072,4.557 0.787,1.093 2.012,1.672 3.255,1.672 0.653,0 1.311-0.16 1.914-0.489 15.411-8.406 24.592-23.521 29.121-33.033l7.174,11.199c5.313,8.292 14.371,13.242 24.23,13.242 4.811,0 9.582-1.218 13.802-3.525 4.216-2.309 7.817-5.668 10.417-9.717l6.921-10.798c4.635,9.595 13.785,24.381 28.914,32.632 0.603,0.329 1.261,0.489 1.914,0.489 1.244,0 2.469-0.58 3.256-1.674 0.961-1.336 0.921-3.145 0.072-4.555-4.338-7.198-4.789-20.184-4.34-29.257 6.27,5.044 13.451,8.211 21.436,9.439 0.204,0.031 0.407,0.047 0.609,0.047 1.869,0 3.587-1.314 3.951-3.346 0.223-1.246-0.243-2.503-1.085-3.448-14.155-15.896-11.777-47.124-10.833-55.553l.421-.945c3.863-8.76 6.078-18.031 6.584-27.559 0.012-0.103 0.02-0.207 0.025-0.311 0.375-7.561-0.339-15.139-2.125-22.529-0.497-2.045-0.749-4.138-0.749-6.219 0-2.734 0.424-5.439 1.264-8.052 0.336-1.056 0.607-2.128 0.846-3.206l12.567,2.549c3.357,0.68 6.721,1.009 10.054,1.01-12.924,26.253-12.048,57.357 2.792,83.014 0.693,1.198 1.986,1.923 3.37,1.935h0.057c1.361,0.012 2.646-0.672 3.361-1.829 3.967-6.427 7.091-13.318 9.282-20.472 0.423-1.371 0.799-2.76 1.154-4.155 1.706,1.893 3.503,3.708 5.402,5.413 0.745,0.668 1.7,1.023 2.673,1.023 0.966,0 1.953-0.351 2.756-1.094 0.588-0.544 0.968-1.281 1.154-2.06 1.307-5.474 1.969-11.084 1.969-16.676 0-17.63-6.537-34.583-18.142-47.625 13.666-4.445 25.325-14.529 31.302-28.351l17.129-39.609c0.701-1.62 0.496-3.49-0.541-4.92-1.037-1.43-2.752-2.21-4.507-2.044l-47.93,4.42c-12.125,1.118-23.655,6.368-32.464,14.782l-15.975,15.254-8.138-9.206 7.365-6.485c15.064-13.278 33.823-21.981 53.607-25.037 0.453-0.069 9.098-0.727 13.494-1.059zm-137.092,40.75v2.56c0,2.209 1.791,4 4,4s4-1.791 4-4v-2.56c5.712-0.458 11.346-1.885 16.579-4.213-0.33,11.072-9.423,19.983-20.579,19.983-11.156,0-20.249-8.911-20.579-19.983 5.233,2.328 10.867,3.755 16.579,4.213zm-35.222-7.367c3.542-0.706 7.193-0.653 10.724,0.139-0.067,0.798-0.112,1.597-0.112,2.399 0,15.77 12.834,28.6 28.61,28.6 15.775,0 28.61-12.83 28.61-28.6 0-0.805-0.046-1.607-0.113-2.408 3.53-0.803 7.163-0.859 10.725-0.137 0.054,0.843 0.088,1.691 0.088,2.545 0,21.676-17.634,39.31-39.31,39.31s-39.31-17.635-39.31-39.31c-2.84217e-14-0.852 0.034-1.698 0.088-2.538zm-85.789,98.429c-1.363,1.954-2.842,3.835-4.426,5.631-0.302-2.514-0.454-5.041-0.454-7.562 0-15.564 5.731-30.545 15.926-42.105 1.842,15.446-2.035,31.153-11.046,44.036zm14.747,25.478c-1.955-3.922-3.589-8.008-4.881-12.208-1.008-3.299-1.797-6.69-2.378-10.096 6.611-9.944 10.574-21.284 11.673-32.963 5.118,18.205 3.666,37.807-4.414,55.267zm28.145-85.986l-13.154,2.666c-18.977,3.848-38.322-6.261-46.007-24.034l-5.599-12.948 31.442,2.905c10.109,0.933 19.726,5.309 27.075,12.32l8.572,8.186c-1.33,3.496-2.12,7.182-2.329,10.905zm6.168-18.299l-6.889-6.578c-8.65-8.251-19.966-13.4-31.863-14.499l-35.796-3.307-4.565-10.557 39.533,3.646c9.889,0.913 19.292,5.195 26.476,12.056l16.074,15.357-2.97,3.882zm14.864,139.042c-0.013,0.014-0.021,0.031-0.034,0.046-3.693,4.055-7.849,7.165-12.425,9.306 5.4-10.85 7.03-23.869 7.266-34.496 3.607,5.175 7.97,9.794 12.955,13.693-1.395,2.851-3.883,7.193-7.762,11.451zm-8.441-104.343l11.056,1.368c-4.471,4.947-7.107,11.454-7.107,18.319 0,15.048 12.242,27.29 27.29,27.29 4.336,0 8.525-1.016 12.297-2.924-0.356,3.883-1.257,7.739-2.688,11.425-3.116,0.839-6.336,1.289-9.61,1.289-14.493,0-27.571-8.476-33.61-21.424-0.063-0.766-0.26-4.711-0.26-5.766 0-5.46 0.652-10.918 1.939-16.221 0.684-2.819 1.031-5.706 1.031-8.579-2.84217e-14-1.604-0.128-3.197-0.338-4.777zm11.948,19.687c0-7.064 3.935-13.601 10.105-16.959l10.221,1.269c5.482,0.682 9.693,5.175 10.012,10.689l1.176,19.919c-3.447,2.828-7.723,4.372-12.223,4.372-10.638,0-19.291-8.654-19.291-19.29zm24.419,44.788c-3.491,6.659-7.059,15.134-8.693,24.184-7.415-7.015-18.487-17.875-21.225-24.029l-3.16-7.127-.067-.155c-0.519-1.177-0.993-2.367-1.444-3.564 8.016,6.917 18.398,10.984 29.46,10.984 1.722-0.001 3.434-0.101 5.129-0.293zm-21.378,71.559c2.045-11.017 1.078-23.154 0.59-27.701 3.246-3.819 5.557-7.602 7.102-10.545 1.548,1.283 3.028,2.641 4.411,4.08 0.015,0.015 0.048,0.049 0.077,0.078 2.123,2.215 4.046,4.622 5.754,7.152-2.213,5.478-7.899,17.62-17.934,26.936zm82.049-31.33l-11.708,18.261c-1.698,2.644-4.051,4.838-6.801,6.344-1.569,0.858-3.259,1.476-5.002,1.856v-22.729h1.23c3.066,0 6.109-0.87 8.577-2.69 5.084-3.75 6.885-10.224 4.907-15.856-1.354-3.85-3.829-7.134-7.154-9.492-3.318-2.363-7.24-3.612-11.34-3.612-4.087,0-8.007,1.247-11.34,3.612-3.338,2.377-5.81,5.663-7.144,9.492-0.528,1.503-0.796,3.063-0.796,4.636 0,7.67 6.253,13.91 13.94,13.91h1.12v22.736c-4.827-1.042-9.079-3.942-11.81-8.203l-11.692-18.253c-2.09-3.257-4.506-6.333-7.168-9.171 0.383-5.681 1.833-11.309 3.728-16.475 2.543-6.931 6.183-13.409 10.585-19.337l12.668-17.062c1.826-2.458 4.628-3.867 7.688-3.868 3.061,0 5.863,1.41 7.688,3.866l12.691,17.103c4.389,5.914 8.021,12.376 10.56,19.289 1.897,5.164 3.347,10.794 3.731,16.482-2.659,2.839-5.075,5.914-7.158,9.161zm-32.63-4.267c-3.275,0-5.94-2.651-5.94-5.91 0-0.668 0.116-1.335 0.347-1.994 0.789-2.265 2.253-4.208 4.227-5.613 1.967-1.395 4.286-2.133 6.706-2.133 2.428,0 4.745,0.736 6.706,2.133 1.973,1.399 3.439,3.344 4.24,5.624 0.646,1.839 0.371,3.804-0.754,5.393-1.126,1.589-2.891,2.501-4.842,2.501h-10.69zm23.004-57.452l-3.773-5.084c-3.351-4.51-8.494-7.097-14.111-7.097-5.617,0-10.76,2.587-14.111,7.098l-3.774,5.083c0.101-1.837 0.107-3.675-0.002-5.504l-.898-15.251c6.09,1.702 12.384,2.567 18.785,2.567 6.398,0 12.69-0.864 18.778-2.565l-.891,15.238c-0.109,1.833-0.103,3.675-0.003,5.515zm20.406,3.991c15.048,0 27.29-12.242 27.29-27.29 0-6.866-2.636-13.372-7.108-18.319l11.056-1.368c-0.21,1.581-0.338,3.174-0.338,4.777 0,2.876 0.347,5.763 1.03,8.574 1.537,6.361 2.166,12.884 1.869,19.394-0.011,0.098-0.126,1.832-0.19,2.598-6.039,12.948-19.117,21.423-33.61,21.423-3.278,0-6.503-0.45-9.628-1.289-1.423-3.679-2.32-7.535-2.673-11.427 3.775,1.91 7.964,2.927 12.302,2.927zm-12.222-12.371l1.165-19.923c0.326-5.51 4.54-10.004 10.02-10.687l10.223-1.269c6.17,3.359 10.105,9.895 10.105,16.96 0,10.636-8.653,19.29-19.29,19.29-4.5,0-8.776-1.544-12.223-4.371zm41.683,19.176c-0.454,1.208-0.932,2.411-1.456,3.6l-3.226,7.247c-1.972,4.445-4.547,8.604-7.654,12.363-1.891,2.289-8.294,7.648-13.495,12.055-1.601-9.199-5.221-17.818-8.767-24.572 1.699,0.193 3.413,0.292 5.137,0.292 11.063,0 21.445-4.067 29.461-10.985zm-31.434,55.746c1.785-2.701 3.818-5.263 6.07-7.608 1.408-1.466 2.905-2.84 4.461-4.131 1.478,2.816 3.655,6.4 6.683,10.051-0.469,4.124-1.597,16.733 0.524,28.162-9.748-9.088-15.422-20.882-17.738-26.474zm24.578-5.395c-3.75-4.172-6.192-8.449-7.572-11.267 3.603-2.823 6.903-5.997 9.801-9.504 1.111-1.344 2.156-2.736 3.15-4.162 0.239,10.628 1.872,23.648 7.274,34.499-4.672-2.185-8.905-5.382-12.653-9.566zm54.24-46.758c-1.282,4.185-2.914,8.27-4.875,12.207-8.08-17.462-9.534-37.066-4.416-55.275 1.096,11.681 5.057,23.025 11.67,32.977-0.573,3.405-1.362,6.792-2.379,10.091zm14.755-15.198c0,2.522-0.152,5.05-0.454,7.563-1.585-1.796-3.068-3.678-4.438-5.635-9.008-12.887-12.88-28.594-11.035-44.036 10.196,11.558 15.927,26.539 15.927,42.108zm11.981-79.945c-7.686,17.773-27.037,27.879-46.017,24.034l-13.742-2.787c-0.208-3.561-0.936-7.034-2.164-10.372l9.003-8.597c7.352-7.013 16.968-11.389 27.077-12.321l31.441-2.905-5.598,12.948zm-52.227-16.17c7.185-6.863 16.587-11.145 26.475-12.057l39.534-3.646-4.565,10.557-35.795,3.307c-11.896,1.097-23.212,6.246-31.865,14.5l-7.245,6.918c-0.81-1.232-2.943-3.916-2.943-3.916l16.404-15.663zm-23.728,22.488c1.622,1.913 2.956,4.035 3.969,6.316 1.501,3.361 2.295,7.085 2.295,10.77 0,0.594-0.019,1.149-0.06,1.705-0.092,1.468-0.318,2.926-0.654,4.357l-35.2,4.359c-9.142,1.138-16.194,8.528-16.967,17.657-6.21,2.044-12.689,3.083-19.298,3.083-6.613,0-13.095-1.04-19.309-3.086-0.766-9.128-7.813-16.515-16.959-17.653l-35.2-4.359c-0.335-1.426-0.561-2.877-0.654-4.345-0.292-4.388 0.533-8.818 2.39-12.819 0.996-2.153 2.281-4.169 3.816-5.986l12.102-14.273c1.863-2.201 4.07-4.041 6.518-5.492 0.306,25.825 21.399,46.743 47.296,46.743 25.895,0 46.987-20.915 47.296-46.738 2.446,1.451 4.654,3.291 6.52,5.491l12.099,14.27z"/>
      <path d="m270.401,165.813l-37.571-19.754-37.572,19.754c-3.326,1.749-7.214-1.076-6.579-4.78l7.176-41.837-30.405-29.625c-2.692-2.623-1.208-7.193 2.511-7.734l42.012-6.112 18.791-38.059c1.664-3.369 6.468-3.369 8.131,0.001l18.78,38.058 42.011,6.111c3.719,0.541 5.203,5.111 2.512,7.734l-30.395,29.625 7.176,41.838c0.636,3.704-3.252,6.529-6.578,4.78zm-83.591-73.581l23.015,22.424-5.432,31.668 28.438-14.951 28.437,14.951-5.432-31.667 23.007-22.424-31.8-4.626-14.214-28.805-14.223,28.805-31.796,4.625z"/>
    </g>
    <path d="m215.681,134.786c-0.83,0-1.655-0.258-2.352-0.764-1.231-0.895-1.849-2.411-1.591-3.911l2.915-17.019-12.365-12.063c-1.09-1.063-1.481-2.652-1.011-4.1 0.471-1.448 1.722-2.503 3.228-2.722l17.09-2.487 7.649-15.486c0.674-1.365 2.064-2.229 3.586-2.229 0,0 0,0 0.001,0 1.522,0 2.913,0.865 3.586,2.23l7.639,15.484 17.099,2.488c1.507,0.219 2.758,1.274 3.229,2.722 0.471,1.448 0.078,3.038-1.012,4.1l-12.374,12.062 2.924,17.016c0.258,1.501-0.359,3.018-1.59,3.913-1.231,0.896-2.865,1.014-4.212,0.306l-15.29-8.032-15.29,8.032c-0.584,0.308-1.223,0.46-1.859,0.46zm-2.011-33.828l8.072,7.875c0.942,0.919 1.372,2.242 1.149,3.539l-1.902,11.107 9.979-5.243c1.165-0.612 2.556-0.612 3.721,0l9.975,5.24-1.908-11.102c-0.223-1.298 0.207-2.623 1.15-3.542l8.078-7.874-11.161-1.624c-1.303-0.189-2.429-1.008-3.012-2.188l-4.984-10.104-4.992,10.105c-0.583,1.18-1.708,1.997-3.01,2.187l-11.155,1.624z"/>
  </g>
</svg>
