<?xml version="1.0" encoding="iso-8859-1"?>
<!-- Generator: Adobe Illustrator 19.0.0, SVG Export Plug-In . SVG Version: 6.00 Build 0)  -->
<svg version="1.1" id="Capa_1" xmlns="http://www.w3.org/2000/svg" xmlns:xlink="http://www.w3.org/1999/xlink" x="0px" y="0px"
	 viewBox="0 0 241.777 241.777" style="enable-background:new 0 0 241.777 241.777;" xml:space="preserve">
<path d="M200.132,83.587l27.209-29.32L168.866,0l-25.547,93.217c-6.894-2.318-14.263-3.439-21.928-3.439h-1.003
	c-7.665,0-15.034,1.122-21.928,3.439L72.912,0.077L14.436,54.305l27.209,29.301l10.147-9.427l11.985,44.563
	c-7.949,11.242-12.889,24.94-12.889,39.725v14.003c0,38.046,31.453,69.307,69.499,69.307h1.003
	c38.046,0,68.498-31.261,68.498-69.307v-14.003c0-14.785-4.44-28.487-12.389-39.73l12.36-44.568L200.132,83.587z M136.971,211.686
	c-6.243,0-11.914-2.767-16.088-6.794c-4.173,4.03-9.84,6.7-16.079,6.7c-12.787,0-23.19-10.814-23.19-22.814h15
	c0,4,3.674,7.819,8.19,7.819s8.191-3.891,8.191-8.408l-0.118-11.412h-4.989v-14h26v14h-4.988l-0.119,11.666
	c0,4.44,3.674,8.225,8.19,8.225s8.191-3.891,8.191-7.891h15C160.163,200.777,149.76,211.686,136.971,211.686z"/>
<g>
</g>
<g>
</g>
<g>
</g>
<g>
</g>
<g>
</g>
<g>
</g>
<g>
</g>
<g>
</g>
<g>
</g>
<g>
</g>
<g>
</g>
<g>
</g>
<g>
</g>
<g>
</g>
<g>
</g>
</svg>
