<?xml version="1.0" encoding="iso-8859-1"?>
<!-- Generator: Adobe Illustrator 19.0.0, SVG Export Plug-In . SVG Version: 6.00 Build 0)  -->
<svg version="1.1" id="Capa_1" xmlns="http://www.w3.org/2000/svg" xmlns:xlink="http://www.w3.org/1999/xlink" x="0px" y="0px"
	 viewBox="0 0 243 243" style="enable-background:new 0 0 243 243;" xml:space="preserve">
<path d="M224,187h-42.345L148.567,52.63c-1.211-5.012-3.426-9.961-6.578-14.704c-3.623-5.47-8.698-10.291-14.68-13.943
	c-2.17-1.324-4.414-2.437-6.721-3.38C123.852,14.311,125.396,7,125.002,0h-19.971c0.292,5-1.529,11.617-5.127,15.63
	c-0.601,0.67-1.253,1.267-1.925,1.843c-1.911,0.217-3.815,0.542-5.696,0.996c-12.002,2.902-22.159,10.332-28.6,20.927
	c-5.048,8.304-7.318,17.757-6.666,27.254l-3.861,1.211c-15.525,4.873-24.248,21.287-19.444,36.591l1.678,5.342l8.842-2.775
	c5.368,7.096,13.786,11.471,23.075,11.471c0.512,0,1.023-0.032,1.534-0.059l8.294,34.304c3.553,14.691,12.979,26.937,25.475,34.265
	H19v25h84v31h37v-31h33.664l17.215,12.461L187.811,212H224V187z M106.656,67.297c-0.586,5.112-5.206,8.781-10.318,8.195
	c-5.112-0.586-8.781-5.206-8.195-10.317c0.586-5.112,5.206-8.781,10.318-8.195C103.573,57.566,107.242,62.186,106.656,67.297z"/>
<g>
</g>
<g>
</g>
<g>
</g>
<g>
</g>
<g>
</g>
<g>
</g>
<g>
</g>
<g>
</g>
<g>
</g>
<g>
</g>
<g>
</g>
<g>
</g>
<g>
</g>
<g>
</g>
<g>
</g>
</svg>
