<?xml version='1.0' encoding='iso-8859-1'?>
<!DOCTYPE svg PUBLIC '-//W3C//DTD SVG 1.1//EN' 'http://www.w3.org/Graphics/SVG/1.1/DTD/svg11.dtd'>
<svg version="1.1" xmlns="http://www.w3.org/2000/svg" viewBox="0 0 459.21 459.21" xmlns:xlink="http://www.w3.org/1999/xlink" enable-background="new 0 0 459.21 459.21">
  <g>
    <path d="m450.436,249.888l-63.955-126.231c21.128-27.486 40.7-58.546 42.116-80.72 0.093-1.454-0.612-2.843-1.84-3.626-1.229-0.784-2.784-0.838-4.064-0.142-14.644,7.968-39.293,24.184-68.11,54.454-34.484-30.685-78.701-47.54-124.978-47.54-46.276,0-90.494,16.854-124.979,47.539-28.816-30.269-53.465-46.485-68.109-54.453-1.28-0.697-2.837-0.643-4.064,0.142-1.228,0.784-1.933,2.173-1.84,3.627 1.415,22.174 20.987,53.234 42.116,80.72l-63.956,126.23c-8.383,16.546-10.864,35.647-6.986,53.786s13.952,34.556 28.367,46.228c56.245,45.543 127.078,70.625 199.451,70.625s143.206-25.082 199.451-70.625c14.415-11.672 24.489-28.09 28.367-46.228 3.877-18.138 1.396-37.24-6.987-53.786zm-5.657,18.607l-10.574,3.097c1.402-7.423 2.152-15.074 2.177-22.892l3.35,6.612c2.14,4.225 3.819,8.648 5.047,13.183zm-405.819,41.234l-15.674,8.277 7.264-26.397c2.326,6.293 5.147,12.347 8.41,18.12zm39.293,44.99l4.205,15.903c-5.969-3.282-11.835-6.762-17.582-10.445l13.377-5.458zm-21.179-.001l-5.152-26.246c6.163,7.382 13.157,14.046 20.839,19.848l-15.687,6.398zm30.275,3.105c7.854,4.375 16.225,7.928 24.996,10.546l-20.073,7.435c-0.065-0.033-0.13-0.066-0.196-0.099l-4.727-17.882zm36.118,14.957l5.868,18.717c-9.173-3.195-18.193-6.825-27.027-10.878l21.159-7.839zm8.3-.266c5.352,0.701 10.808,1.066 16.349,1.066 5.125,0 10.198-0.31 15.203-0.909l-25.022,20.674-6.53-20.831zm43.977,.269l10.347,32.584c-13.379-1.941-26.603-4.756-39.574-8.436l29.227-24.148zm7.104-4.062c13.488-3.874 26.25-10.023 37.89-18.338 1.636,3.587 3.159,7.067 4.402,10.625l-31.219,42.584-11.073-34.871zm-75.939-204.289c13.663,15.13 26.692,30.985 38.727,47.125l2.179,2.922c-1.619-0.54-3.26-1.02-4.92-1.439-0.056-0.014-0.113-0.027-0.17-0.039-5.416-1.334-10.985-2.011-16.555-2.011-11.442,0-22.761,2.874-32.732,8.312-0.937,0.511-1.631,1.375-1.928,2.4-1.431,4.945-2.156,10.059-2.156,15.198 0,30.139 24.52,54.659 54.659,54.659 17.616,0 34.143-8.582 44.337-22.716l20.204,27.097c-0.394,10.468 0.472,19.081 2.038,26.477-17.126,13.826-38.563,21.433-60.665,21.433-53.32,0-96.7-43.379-96.7-96.7 0-36.094 19.576-68.533 51.289-85.383 0.811,0.908 1.61,1.798 2.393,2.665zm245.391,0c0.783-0.867 1.583-1.757 2.395-2.665 31.713,16.848 51.291,49.288 51.291,85.384 0,53.32-43.379,96.7-96.699,96.7-22.103,0-43.542-7.608-60.667-21.435 1.566-7.395 2.432-16.008 2.038-26.475l20.203-27.096c10.194,14.133 26.72,22.715 44.336,22.715 30.14,0 54.659-24.52 54.659-54.659 0-5.142-0.726-10.255-2.155-15.198-0.297-1.025-0.991-1.889-1.928-2.4-9.973-5.438-21.292-8.312-32.732-8.312-5.567,0-11.133,0.675-16.544,2.008-0.062,0.013-0.121,0.026-0.182,0.042-1.66,0.419-3.3,0.899-4.918,1.438l2.178-2.921c12.031-16.139 25.06-31.994 38.725-47.126zm-120.445,181.177c-0.77,1.682-1.524,3.332-2.25,4.979-0.726-1.647-1.48-3.296-2.249-4.977-5.758-12.58-11.703-25.589-10.811-49.333l13.06-14.596 13.06,14.596c0.892,23.743-5.053,36.751-10.81,49.331zm-74.189-117.917l25.613,34.352c-8.532,13.316-23.371,21.516-39.267,21.516-25.728,0-46.659-20.931-46.659-46.659 0-3.83 0.473-7.644 1.405-11.36 8.43-4.29 17.87-6.55 27.411-6.55 4.969,0 9.937,0.609 14.768,1.81 0.046,0.011 0.092,0.022 0.138,0.032 5.833,1.486 11.395,3.827 16.53,6.959l.061-.1zm39.269-41.232l11.114,38.857-36.238,7.962-.817-1.096c0.755-14.811 6.985-28.624 17.664-39.017 2.577-2.507 5.351-4.739 8.277-6.706zm73.621,6.71c10.675,10.396 16.901,24.21 17.652,39.023l-.811,1.087-36.245-7.965 11.125-38.855c2.927,1.968 5.703,4.202 8.279,6.71zm30.987,34.523l.06,.098c5.136-3.131 10.694-5.472 16.522-6.958 0.05-0.01 0.099-0.021 0.147-0.034 4.829-1.201 9.798-1.81 14.768-1.81 9.54,0 18.98,2.26 27.411,6.55 0.933,3.715 1.404,7.529 1.404,11.36 0,25.728-20.932,46.659-46.659,46.659-15.895,0-30.734-8.199-39.266-21.515l25.613-34.35zm-92.878,17.126l-22.371-6.531 21.008-4.616c-0.125,0.96-0.197,1.937-0.197,2.93 0,2.9 0.557,5.67 1.56,8.217zm-.01-46.477l13.613,16.996c-2.789,0.965-5.329,2.463-7.501,4.373l-6.112-21.369zm20.95,23.761c7.995,0 14.5,6.505 14.5,14.5s-6.505,14.5-14.5,14.5-14.5-6.505-14.5-14.5 6.505-14.5 14.5-14.5zm7.339-6.765l13.606-16.986-6.114,21.353c-2.169-1.908-4.707-3.403-7.492-4.367zm15.161,21.265c0-0.994-0.072-1.97-0.197-2.93l21.005,4.616-22.369,6.533c1.004-2.548 1.561-5.319 1.561-8.219zm-22.499-24.901l-24.055-30.031c7.475-3.36 15.636-5.14 24.055-5.14 8.419,0 16.581,1.781 24.056,5.14l-24.056,30.031zm-48.927,33.47c16.74,5.127 45.926,13.93 48.926,13.93 2.998,0 32.19-8.808 48.928-13.934l-32.21,43.2-13.737-15.353c-0.759-0.848-1.843-1.333-2.98-1.333s-2.222,0.485-2.98,1.333l-13.737,15.353-32.21-43.196zm114.473-22.291c-2.501-13.418-9.053-25.741-19.014-35.442-4.355-4.241-9.202-7.802-14.397-10.665-0.01-0.005-0.017-0.012-0.027-0.017-0.005-0.002-0.01-0.003-0.014-0.006-9.733-5.355-20.705-8.221-32.093-8.221s-22.361,2.866-32.095,8.222c-0.004,0.002-0.007,0.003-0.011,0.004-0.007,0.004-0.013,0.009-0.02,0.013-5.197,2.863-10.046,6.423-14.402,10.664-9.965,9.699-16.521,22.022-19.025,35.441l-5.528-7.414c8.824-31.89 37.781-54.009 71.081-54.009 33.3,0 62.256,22.118 71.08,54.007l-5.535,7.423zm-56.679,127.502c11.64,8.315 24.402,14.464 37.89,18.338l-11.073,34.871-31.219-42.584c1.242-3.558 2.765-7.038 4.402-10.625zm44.993,22.4l29.227,24.149c-12.971,3.68-26.195,6.495-39.574,8.436l10.347-32.585zm12.425-.112c5.006,0.599 10.079,0.909 15.206,0.909 5.54,0 10.995-0.366 16.346-1.066l-6.53,20.831-25.022-20.674zm39.852,.109l21.159,7.838c-8.834,4.053-17.853,7.683-27.026,10.878l5.867-18.716zm31.194,3.025l-20.071-7.435c8.771-2.617 17.141-6.17 24.995-10.545l-4.728,17.882c-0.065,0.032-0.131,0.065-0.196,0.098zm14.02-21.086l13.378,5.457c-5.748,3.683-11.614,7.163-17.583,10.446l4.205-15.903zm5.494-6.399c7.68-5.8 14.673-12.463 20.836-19.843l-5.151,26.242-15.685-6.399zm42.211-56.707l7.263,26.393-15.672-8.275c3.262-5.773 6.083-11.826 8.409-18.118zm-1.681-61.467c0.927,5.976 1.406,12.051 1.406,18.145 0,64.674-52.616,117.29-117.29,117.29-25.207,0-49.078-7.839-69.258-22.662 1.623-3.723 3.205-7.686 4.577-12.079 18.053,13.577 40.138,21.011 62.871,21.011 57.731,0 104.699-46.968 104.699-104.7 0-19.917-5.614-39.29-16.235-56.026-9.408-14.826-22.351-27.006-37.621-35.497 5.725-6.536 11.919-13.833 18.164-21.579l48.687,96.097zm-111.601-88.946c-23.505-21.472-53.778-33.25-85.774-33.25-31.997,0-62.272,11.778-85.775,33.251-1.507-2.092-3.01-4.148-4.508-6.164 10.684-9.635 22.683-17.393 35.558-23.112 0.05-0.021 0.098-0.042 0.147-0.065 17.002-7.527 35.526-11.5 54.578-11.5 33.537,0 65.453,12.291 90.278,34.681-1.497,2.015-2.999,4.069-4.504,6.159zm-35.722-39.829c-12.9-4.822-26.518-7.763-40.488-8.688l29.48-28.48 11.008,37.168zm-2.552-36.783c23.358,6.529 45.204,17.864 64.203,33.479l-52.561,5.827-11.642-39.306zm-106.642,39.306l-52.564-5.827c19-15.615 40.847-26.951 64.205-33.479l-11.641,39.306zm20.099-39.69l29.479,28.479c-13.97,0.925-27.587,3.865-40.487,8.685l11.008-37.164zm-31.084,46.521c-8.875,5.011-17.254,10.999-24.99,17.909-6.334-8.239-12.572-15.802-18.669-22.75l43.659,4.841zm165.24,17.914c-7.737-6.911-16.116-12.901-24.993-17.912l43.664-4.841c-6.097,6.948-12.336,14.512-18.671,22.753zm-64.091-67.81l-31.022,29.969-31.022-29.97c10.161-1.809 20.533-2.745 31.021-2.745 10.489,0.001 20.862,0.937 31.023,2.746zm-120.589,88.81c7.542,10.675 20.264,16.036 33.19,13.995 2.182-0.345 3.672-2.393 3.327-4.575s-2.381-3.672-4.575-3.328c-8.79,1.39-17.438-1.696-23.31-8.117 22.103-20.444 50.699-31.664 80.935-31.664 30.235,0 58.83,11.22 80.934,31.662-5.872,6.422-14.526,9.507-23.311,8.118-2.189-0.343-4.23,1.146-4.575,3.328s1.146,4.23 3.327,4.575c12.932,2.041 25.648-3.321 33.19-13.995 40.274-57.001 77.827-85.794 100.163-99.312-6.021,24.519-32.011,63.384-72.972,108.743-13.832,15.317-27.021,31.367-39.202,47.704l-.587,.788c-11.524-32.227-42.098-54.111-76.967-54.111-34.87,0-65.445,21.885-76.968,54.113l-.589-.789c-12.184-16.339-25.373-32.39-39.203-47.704-40.961-45.359-66.951-84.224-72.97-108.743 22.336,13.518 59.889,42.312 100.163,99.312zm-40.958,5.991c-15.269,8.49-28.211,20.67-37.619,35.495-10.621,16.736-16.235,36.109-16.235,56.026 0,57.731 46.969,104.7 104.7,104.7 22.732,0 44.816-7.433 62.868-21.009 1.372,4.393 2.955,8.355 4.578,12.079-20.181,14.823-44.051,22.66-69.257,22.66-64.674,0-117.289-52.616-117.289-117.29 0-6.096 0.479-12.174 1.407-18.154l48.683-96.086c6.245,7.745 12.439,15.043 18.164,21.579zm-76.249,93.063c0.025,7.822 0.774,15.475 2.177,22.901l-10.578-3.098c1.228-4.535 2.907-8.958 5.047-13.183l3.354-6.62zm-10.043,27.658l12.643,3.703-8.725,31.706c-1.335-3.43-2.411-6.97-3.185-10.594-1.751-8.191-1.966-16.61-0.733-24.815zm11.74,50.046l17.065-9.011 6.067,30.907c-3.367-2.501-6.688-5.071-9.955-7.717-5.062-4.098-9.482-8.89-13.177-14.179zm176.685,80.777l28.391-38.727 28.391,38.727c-9.416,0.888-18.889,1.353-28.391,1.353s-18.976-0.465-28.391-1.353zm220.292-66.598c-3.267,2.646-6.589,5.216-9.956,7.717l6.066-30.907 17.066,9.01c-3.695,5.29-8.116,10.082-13.176,14.18zm24.182-39.411c-0.775,3.624-1.851,7.164-3.185,10.594l-8.725-31.705 12.643-3.703c1.233,8.205 1.018,16.624-0.733,24.814z"/>
    <path d="m133.64,247.146c0,7.72 6.28,14 14,14s14-6.28 14-14-6.28-14-14-14-14,6.28-14,14zm14-6c3.309,0 6,2.691 6,6s-2.691,6-6,6-6-2.691-6-6 2.692-6 6-6z"/>
    <path d="m311.569,261.146c7.72,0 14-6.28 14-14s-6.28-14-14-14-14,6.28-14,14 6.28,14 14,14zm0-20c3.309,0 6,2.691 6,6s-2.691,6-6,6-6-2.691-6-6 2.691-6 6-6z"/>
  </g>
</svg>
