<?xml version='1.0' encoding='iso-8859-1'?>
<!DOCTYPE svg PUBLIC '-//W3C//DTD SVG 1.1//EN' 'http://www.w3.org/Graphics/SVG/1.1/DTD/svg11.dtd'>
<svg version="1.1" xmlns="http://www.w3.org/2000/svg" viewBox="0 0 445.06 445.06" xmlns:xlink="http://www.w3.org/1999/xlink" enable-background="new 0 0 445.06 445.06">
  <g>
    <path d="m368.492,6.359c-5.257-2.905-10.929-4.845-16.872-5.769-2.548-0.392-5.162-0.59-7.77-0.59-18.629,0-35.789,10.115-44.784,26.402l-8.317,15.074c-5.861-0.38-11.955-0.236-17.926,0.465-9.132,1.066-18.361,1.85-27.433,2.328-15.099,0.802-30.856,0.799-45.742-0.01-9.016-0.466-18.242-1.246-27.421-2.317-5.97-0.7-11.976-0.85-17.912-0.468l-8.324-15.073c-8.993-16.286-26.154-26.401-44.782-26.401-2.604,0-5.221,0.198-7.792,0.591-5.921,0.921-11.59,2.861-16.848,5.766-24.657,13.613-33.653,44.754-20.053,69.421l13.848,25.106c-5.102,11.877-7.762,24.507-7.904,37.595-0.01,0.378-0.011,121.142-0.011,121.142 0,7.606 2.236,14.962 6.465,21.269l85.689,127.921c15.206,22.699 40.599,36.251 67.926,36.251 27.321,0 52.71-13.552 67.915-36.251l73.41-109.592c0.066-0.088 0.13-0.177 0.191-0.269l12.087-18.057c4.23-6.311 6.467-13.666 6.467-21.271 0,0-0.001-120.77-0.012-121.151-0.142-13.077-2.803-25.703-7.903-37.581l13.858-25.111c13.603-24.668 4.606-55.81-20.05-69.42zm-58.92,25.842c5.189-9.395 13.935-16.102 24.036-18.836-2.971,3.189-5.521,6.896-7.537,11.048-0.043,0.089-0.082,0.179-0.119,0.271l-8.829,22.227c-4.436-1.583-8.98-2.833-13.595-3.752l6.044-10.958zm-35.352,21.658c6.463-0.76 13.065-0.792 19.281-0.112 7.875,0.829 15.579,2.751 22.927,5.726 3.49,1.391 6.935,3.066 10.282,4.964l-3.041,15.236c-23.618-9.936-48.416-16.297-73.774-18.94l-.071-4.712c8.095-0.499 16.278-1.214 24.396-2.162zm96.38,173.864c-0.36-0.01-0.719-0.023-1.08-0.023-20.17,0-36.58,16.41-36.58,36.58 0,13.393 7.147,25.398 18.556,31.825l-11.39,17.003c-17.124-10.287-27.585-28.6-27.585-48.828 0-31.43 25.57-57 57-57 0.361,0 0.719,0.02 1.08,0.027v20.416zm-1.081-28.443c-35.841,0-65,29.159-65,65 0,22.938 11.798,43.714 31.13,55.48l-10.641,15.885c-12.929-8.071-23.352-19.375-30.337-32.968-1.887-14.965-1.349-30.069 1.611-44.905l9.694-48.57c2.851-3.286 5.941-6.364 9.218-9.139 15.157-12.828 34.45-19.893 54.326-19.893 0.36,0 0.72,0.014 1.08,0.019v19.118c-0.361-0.006-0.72-0.027-1.081-0.027zm-57.377,155.571c-5.726-9.952-10.151-20.461-13.253-31.42 6.156,7.351 13.448,13.703 21.665,18.863l-8.412,12.557zm-15.657,23.373l-11.061-16.393c-2.1-3.111-4.098-6.276-6.003-9.488 6.408-1.985 12.744-4.314 18.923-6.967 2.574,5.767 5.534,11.384 8.865,16.838l-10.724,16.01zm23.182-278.503c-1.088-0.478-2.182-0.956-3.299-1.427-21.189-8.971-43.432-14.82-66.17-17.42l-.182-12.089c24.413,2.638 48.286,8.838 71.026,18.458 0.345,0.146 0.683,0.3 1.027,0.447l-2.402,12.031zm-6.414,5.942c1.644,0.694 3.241,1.397 4.809,2.101l-2.396,12.003c-20.594-9.59-42.476-15.87-65.165-18.713l-.182-12.117c21.619,2.57 42.768,8.188 62.934,16.726zm.799,22.195l-2.451,12.281c-19.18-9.521-39.59-15.847-60.794-18.843l-.183-12.171c22.113,2.888 43.412,9.185 63.428,18.733zm-4.076,20.424l-2.447,12.262c-17.67-9.455-36.607-15.828-56.417-18.981l-.183-12.173c20.622,3.05 40.449,9.399 59.047,18.892zm-4.087,20.477l-2.472,12.388c-16.157-9.438-33.607-15.901-51.998-19.244l-.184-12.217c19.224,3.219 37.574,9.625 54.654,19.073zm-4.133,20.709l-2.512,12.588c-14.581-9.507-30.523-16.124-47.518-19.705l-.185-12.285c17.8,3.426 34.658,9.939 50.215,19.402zm-4.207,21.076l-2.577,12.915c-12.81-9.603-27.484-16.62-42.936-20.508l-.187-12.382c16.397,3.69 31.738,10.393 45.7,19.975zm-4.328,21.689l-2.678,13.42c-10.978-10.014-24.013-17.486-38.192-21.86l-.189-12.53c14.897,4.057 28.962,11.233 41.059,20.97zm-15.862,33.393c-2.531-5.522-9.063-7.949-14.583-5.416l-8.771,4.02c-0.32,0.147-0.627,0.31-0.926,0.482-0.105-2.156-0.178-4.317-0.211-6.483l-.391-25.983c13.629,4.632 26.027,12.403 36.207,22.717l-.248,1.243c-2.769,13.878-3.535,27.979-2.292,42.005-8.297,4.069-16.979,7.339-25.898,9.739-2.196-7.641-3.912-15.423-5.136-23.309 1.119,0.374 2.291,0.591 3.486,0.591 1.533,0 3.092-0.322 4.576-1.003l8.771-4.02c5.522-2.531 7.947-9.06 5.416-14.583zm9.781,40.981c0.597,4.085 1.354,8.122 2.277,12.107-7.325,3.27-14.91,6.008-22.628,8.165-1.509-3.717-2.906-7.476-4.175-11.277 8.413-2.282 16.625-5.301 24.526-8.995zm4.318,19.95c1.122,3.864 2.396,7.675 3.83,11.428-6.485,2.789-13.15,5.21-19.89,7.228-1.925-3.589-3.735-7.232-5.42-10.924 7.312-2.094 14.505-4.683 21.48-7.732zm79.141-154.368c-0.36-0.004-0.72-0.019-1.08-0.019-10.963,0-21.762,1.967-31.904,5.711l32.984-28.761v23.069zm-61.157,19.643l9.379-46.994 44.869-39.137c4.44,10.37 6.76,21.393 6.895,32.813l-61.143,53.318zm11.945-59.847l12.568-62.972c10.817,7.621 19.732,17.592 26.105,29.237l-38.673,33.735zm-129.209,126.245c-0.033,2.166-0.105,4.326-0.211,6.483-0.299-0.172-0.605-0.335-0.925-0.482l-8.77-4.02c-5.521-2.531-12.052-0.107-14.583,5.416-2.532,5.522-0.107,12.052 5.415,14.583l8.77,4.02c1.485,0.681 3.043,1.003 4.577,1.003 1.195,0 2.367-0.217 3.486-0.591-1.224,7.888-2.94,15.673-5.137,23.316-8.922-2.408-17.613-5.685-25.923-9.759 1.238-14.045 0.496-28.155-2.266-41.991l-.248-1.243c10.186-10.321 22.584-18.096 36.206-22.727l-.391,25.992zm-54.341,103.987c3.299-5.41 6.243-11.049 8.823-16.857 6.188,2.66 12.538,4.995 18.967,6.985-1.904,3.211-3.902,6.377-6.002,9.488l-11.063,16.394-10.725-16.01zm-13.672-20.409c8.562-5.518 16.189-12.437 22.508-20.396-3.139,11.679-7.772,22.973-13.771,33.439l-8.737-13.043zm-13.072-272.795l12.568,62.971-38.675-33.733c6.351-11.621 15.272-21.605 26.107-29.238zm-29.738,36.684l44.871,39.14 9.38,46.995-61.144-53.315c0.135-11.435 2.457-22.467 6.893-32.82zm26.956,72.95c-10.705-4.231-22.187-6.477-33.862-6.477v-23.05l33.862,29.527zm-33.862,28.633c31.43,0 57,25.57 57,57 0,19.925-10.151,37.992-26.822,48.361l-11.376-16.982c10.956-6.528 17.777-18.293 17.777-31.379 0-20.17-16.41-36.58-36.58-36.58v-20.42zm65.001,57c0-35.841-29.159-65-65-65v-19.11c19.878,0 39.168,7.065 54.316,19.893 3.833,3.245 7.402,6.889 10.643,10.821l9.358,46.889c2.764,13.848 3.41,27.987 1.938,42.036-6.728,14.394-17.602,26.758-30.991,35.353l-10.63-15.868c18.879-11.846 30.366-32.379 30.366-55.014zm30.2,80.933c-6.764-2.023-13.446-4.451-19.941-7.249 1.432-3.755 2.712-7.569 3.837-11.427 6.989,3.058 14.197,5.653 21.525,7.75-1.686,3.694-3.495,7.336-5.421,10.926zm8.611-18.335c-7.729-2.159-15.324-4.902-22.658-8.178 0.935-4.002 1.703-8.039 2.299-12.098 7.906,3.696 16.121,6.718 24.531,9.005-1.268,3.799-2.664,7.556-4.172,11.271zm14.437-103.096c-14.173,4.373-27.208,11.848-38.192,21.87l-2.678-13.417c12.106-9.739 26.171-16.916 41.058-20.972l-.188,12.519zm.313-20.829c-15.441,3.887-30.116,10.904-42.934,20.51l-2.578-12.918c13.963-9.582 29.303-16.286 45.699-19.975l-.187,12.383zm.311-20.602c-16.994,3.581-32.937,10.198-47.517,19.705l-2.512-12.588c15.557-9.462 32.415-15.976 50.214-19.402l-.185,12.285zm.308-20.448c-18.391,3.343-35.841,9.806-51.998,19.245l-2.474-12.395c17.096-9.445 35.447-15.849 54.655-19.066l-.183,12.216zm.306-20.34c-19.794,3.151-38.731,9.523-56.417,18.976l-2.446-12.257c18.598-9.493 38.425-15.842 59.047-18.893l-.184,12.174zm.305-20.267c-21.203,2.997-41.613,9.322-60.794,18.844l-2.451-12.281c20.026-9.549 41.325-15.846 63.428-18.734l-.183,12.171zm.305-20.243c-22.679,2.842-44.561,9.123-65.165,18.714l-2.396-12.004c1.572-0.706 3.171-1.41 4.814-2.103 20.162-8.536 41.31-14.154 62.929-16.725l-.182,12.118zm.304-20.179c-22.738,2.6-44.981,8.45-66.166,17.419-1.117,0.472-2.213,0.95-3.303,1.429l-2.403-12.039c0.341-0.146 0.677-0.297 1.02-0.441 22.75-9.62 46.625-15.819 71.034-18.457l-.182,12.089zm-24.017-27.015c8.157,0.953 16.341,1.666 24.391,2.154l-.071,4.719c-25.35,2.642-50.149,9.003-73.774,18.937l-3.04-15.232c3.33-1.887 6.784-3.567 10.314-4.982 7.338-2.958 15.05-4.882 22.92-5.718 2.989-0.317 6.009-0.475 9.04-0.475 3.401-0.001 6.817,0.199 10.22,0.597zm-35.345-21.658l6.05,10.954c-4.619,0.921-9.166,2.172-13.604,3.751l-8.837-22.224c-0.036-0.091-0.076-0.181-0.118-0.269-2.017-4.153-4.568-7.861-7.54-11.051 10.105,2.731 18.857,9.44 24.049,18.839zm-53.117-15.339c4.026-2.224 8.363-3.709 12.876-4.411 0.588-0.09 1.181-0.162 1.776-0.225 6.181,3.25 11.309,8.642 14.696,15.552l8.792,22.104c-3.513,1.58-6.952,3.376-10.26,5.364-13.627,8.184-24.992,19.457-33.235,32.851l-9.992-18.114c-10.407-18.874-3.524-42.704 15.347-53.121zm-7.921,242.758v-23.92c15.759,0 28.58,12.821 28.58,28.58 0,10.362-5.471,19.669-14.235,24.725l-9.912-14.797c-2.9-4.325-4.433-9.37-4.433-14.588zm187.735,153.287l-.89,1.279c-7.916,11.383-22.771,18.454-38.766,18.454-7.92,0-15.718-1.731-22.547-5.005-6.756-3.248-12.368-7.898-16.229-13.448l-.889-1.28c-6.819-9.814-5.605-21.847 3.089-30.655 3.146-3.181 7.199-5.802 11.72-7.58 4.563-1.794 9.662-2.743 14.746-2.743h20.21c10.341,0 19.986,3.762 26.465,10.321 4.808,4.867 7.455,10.972 7.455,17.189-5.68434e-14,4.708-1.508,9.364-4.364,13.468zm18.289-10.776c-2.704,4.038-5.791,7.73-9.187,11.056 2.143-4.333 3.262-9.008 3.262-13.746 0-8.335-3.468-16.437-9.764-22.811-7.971-8.071-19.691-12.699-32.156-12.699h-20.21c-6.076,0-12.188,1.14-17.674,3.297-5.55,2.182-10.557,5.433-14.482,9.402-10.137,10.268-12.488,24.448-6.488,36.57-3.402-3.328-6.493-7.026-9.201-11.068l-11.205-16.727 12.886-19.095c21.61-32.006 33.341-69.337 33.924-107.958l3.04-201.91c12.646,0.557 25.804,0.559 38.61,0.006l3.04,201.905c0.584,38.621 12.315,75.952 33.925,107.957l12.884,19.094-11.204,16.727zm85.69-127.919l-10.189,15.22c-9.224-4.943-15.035-14.482-15.035-25.153 0-15.759 12.821-28.58 28.58-28.58 0.363,0 0.719,0.033 1.08,0.046v23.874c1.13687e-13,5.218-1.533,10.263-4.436,14.593zm11.873-204.231l-10.002,18.123c-8.255-13.41-19.615-24.677-33.235-32.857-3.33-2.001-6.769-3.797-10.252-5.361l8.783-22.109c3.387-6.911 8.516-12.302 14.697-15.552 0.591,0.063 1.179,0.134 1.76,0.224 4.537,0.706 8.878,2.19 12.902,4.414 18.869,10.416 25.753,34.245 15.347,53.118z"/>
    <path d="m222.53,316.23c-1.32,0-2.61,0.53-3.54,1.46-0.93,0.93-1.46,2.22-1.46,3.54 0,1.31 0.53,2.6 1.46,3.53 0.93,0.93 2.22,1.47 3.54,1.47 1.31,0 2.6-0.54 3.53-1.47 0.93-0.93 1.46-2.21 1.46-3.53 0-1.32-0.53-2.61-1.46-3.54-0.931-0.93-2.221-1.46-3.53-1.46z"/>
    <path d="m222.52,87.98c-2.761,0-5,2.24-5,5s2.239,5 5,5c2.77,0 5.01-2.24 5.01-5s-2.241-5-5.01-5z"/>
    <path d="m222.52,233.23c-2.761,0-5,2.24-5,5s2.239,5 5,5c2.77,0 5.01-2.24 5.01-5s-2.241-5-5.01-5z"/>
    <path d="m222.52,212.48c-2.761,0-5,2.24-5,5s2.239,5 5,5c2.77,0 5.01-2.24 5.01-5s-2.241-5-5.01-5z"/>
    <path d="m222.52,170.98c-2.761,0-5,2.24-5,5s2.239,5 5,5c2.77,0 5.01-2.24 5.01-5s-2.241-5-5.01-5z"/>
    <path d="m222.52,108.73c-2.761,0-5,2.24-5,5s2.239,5 5,5c2.77,0 5.01-2.24 5.01-5s-2.241-5-5.01-5z"/>
    <path d="m222.52,129.48c-2.761,0-5,2.24-5,5s2.239,5 5,5c2.77,0 5.01-2.24 5.01-5s-2.241-5-5.01-5z"/>
    <path d="m222.52,150.23c-2.761,0-5,2.24-5,5s2.239,5 5,5c2.77,0 5.01-2.24 5.01-5s-2.241-5-5.01-5z"/>
    <path d="m222.52,191.73c-2.761,0-5,2.24-5,5s2.239,5 5,5c2.77,0 5.01-2.24 5.01-5s-2.241-5-5.01-5z"/>
    <path d="m222.52,253.98c-2.761,0-5,2.24-5,5s2.239,5 5,5c2.77,0 5.01-2.24 5.01-5s-2.241-5-5.01-5z"/>
    <path d="m222.52,295.48c-2.761,0-5,2.24-5,5s2.239,5 5,5c2.77,0 5.01-2.24 5.01-5s-2.241-5-5.01-5z"/>
    <path d="m222.52,274.73c-2.761,0-5,2.24-5,5s2.239,5 5,5c2.77,0 5.01-2.24 5.01-5s-2.241-5-5.01-5z"/>
    <path d="m222.53,77.23c1.31,0 2.6-0.54 3.53-1.47 0.93-0.92 1.46-2.21 1.46-3.53 0-1.32-0.53-2.61-1.46-3.54-0.931-0.93-2.221-1.46-3.53-1.46-1.32,0-2.61,0.53-3.54,1.46s-1.46,2.22-1.46,3.54c0,1.31 0.53,2.6 1.46,3.53 0.929,0.93 2.219,1.47 3.54,1.47z"/>
    <path d="m356.199,125.3c-2.08,1.81-2.29,4.97-0.479,7.05 0.989,1.14 2.38,1.72 3.77,1.72 1.17,0 2.34-0.41 3.28-1.23 2.09-1.82 2.3-4.98 0.489-7.06-1.819-2.08-4.979-2.3-7.06-0.48z"/>
    <path d="m340.369,139.1c-2.08,1.81-2.29,4.97-0.479,7.06 0.989,1.13 2.38,1.71 3.77,1.71 1.17,0 2.34-0.41 3.29-1.23 2.08-1.82 2.29-4.98 0.48-7.06-1.82-2.08-4.971-2.29-7.061-0.48z"/>
    <path d="m324.549,152.9c-2.09,1.82-2.3,4.98-0.489,7.06 0.989,1.13 2.38,1.71 3.77,1.71 1.17,0 2.34-0.4 3.29-1.23 2.08-1.82 2.3-4.97 0.48-7.06-1.811-2.08-4.971-2.29-7.051-0.48z"/>
    <path d="m125.89,157.6c-2.08-1.81-5.24-1.6-7.051,0.48-1.819,2.08-1.6,5.24 0.48,7.06 0.95,0.82 2.12,1.23 3.28,1.23 1.399,0 2.779-0.58 3.77-1.71 1.821-2.09 1.601-5.24-0.479-7.06z"/>
    <path d="m87.18,130.48c-1.811,2.08-1.601,5.24 0.479,7.05 0.95,0.83 2.12,1.24 3.29,1.24 1.39,0 2.78-0.58 3.771-1.72 1.81-2.08 1.6-5.24-0.48-7.05-2.09-1.82-5.241-1.6-7.06,0.48z"/>
    <path d="m103.009,144.28c-1.819,2.08-1.6,5.24 0.48,7.06 0.95,0.82 2.12,1.23 3.28,1.23 1.399,0 2.79-0.58 3.77-1.72 1.82-2.08 1.601-5.24-0.479-7.05-2.08-1.82-5.24-1.6-7.051,0.48z"/>
    <path d="m189.289,349.99c-1.319,0-2.6,0.54-3.53,1.47-0.93,0.93-1.47,2.22-1.47,3.53 0,1.32 0.54,2.61 1.47,3.54 0.931,0.93 2.221,1.46 3.53,1.46 1.32,0 2.601-0.53 3.54-1.46 0.93-0.93 1.46-2.22 1.46-3.54 0-1.31-0.53-2.6-1.46-3.53-0.929-0.93-2.219-1.47-3.54-1.47z"/>
    <path d="m222.509,336.23c-2.76,0-5,2.24-4.989,5 0,2.76 2.239,5 5,5 2.76,0 5-2.24 5-5.01-0.011-2.76-2.25-4.99-5.011-4.99z"/>
    <path d="m242.409,340.17c-2.55-1.06-5.479,0.15-6.53,2.71-1.06,2.55 0.16,5.47 2.71,6.53 0.631,0.26 1.271,0.38 1.91,0.38 1.96,0 3.82-1.16 4.62-3.09 1.061-2.56-0.16-5.48-2.71-6.53z"/>
    <path d="m202.619,340.17c-2.55,1.06-3.76,3.98-2.71,6.54 0.8,1.92 2.66,3.09 4.63,3.09 0.63,0 1.28-0.13 1.91-0.38 2.55-1.06 3.76-3.98 2.7-6.54-1.049-2.55-3.98-3.76-6.53-2.71z"/>
    <path d="m255.759,349.99c-1.319,0-2.609,0.54-3.539,1.47-0.931,0.93-1.461,2.22-1.461,3.53 0,1.32 0.53,2.61 1.461,3.54 0.93,0.93 2.22,1.46 3.539,1.46 1.32,0 2.601-0.53 3.53-1.46 0.931-0.93 1.47-2.22 1.47-3.54 0-1.31-0.539-2.6-1.47-3.53-0.929-0.93-2.21-1.47-3.53-1.47z"/>
  </g>
</svg>
