<?xml version='1.0' encoding='iso-8859-1'?>
<!DOCTYPE svg PUBLIC '-//W3C//DTD SVG 1.1//EN' 'http://www.w3.org/Graphics/SVG/1.1/DTD/svg11.dtd'>
<svg version="1.1" xmlns="http://www.w3.org/2000/svg" viewBox="0 0 454.11 454.11" xmlns:xlink="http://www.w3.org/1999/xlink" enable-background="new 0 0 454.11 454.11">
  <g>
    <path d="m320.72,283.248c-1.32,0-2.61,0.53-3.53,1.46-0.93,0.93-1.47,2.22-1.47,3.53 0,1.32 0.54,2.61 1.47,3.54 0.92,0.93 2.21,1.46 3.53,1.46 1.32,0 2.61-0.53 3.54-1.46 0.93-0.93 1.46-2.22 1.46-3.54 0-1.31-0.53-2.6-1.46-3.53-0.93-0.93-2.22-1.46-3.54-1.46z"/>
    <path d="m308.05,294.408c-1.71,0-3.38,0.7-4.59,1.91-1.21,1.2-1.91,2.88-1.91,4.59s0.7,3.39 1.91,4.6c1.21,1.21 2.88,1.9 4.59,1.9 1.72,0 3.39-0.69 4.6-1.9 1.21-1.21 1.91-2.89 1.91-4.6s-0.7-3.38-1.91-4.59c-1.21-1.21-2.88-1.91-4.6-1.91z"/>
    <path d="m291.39,302.908c-2.11,0-4.17,0.86-5.66,2.34-1.49,1.49-2.34,3.56-2.34,5.66 0,2.11 0.85,4.17 2.34,5.66 1.49,1.49 3.55,2.34 5.66,2.34 2.1,0 4.17-0.85 5.65-2.34 1.49-1.49 2.35-3.55 2.35-5.66 0-2.1-0.86-4.17-2.35-5.66-1.48-1.48-3.55-2.34-5.65-2.34z"/>
    <path d="m170.72,310.908c0-2.1-0.85-4.16-2.34-5.65-1.49-1.49-3.55-2.35-5.66-2.35-2.1,0-4.16,0.86-5.65,2.35-1.49,1.49-2.35,3.55-2.35,5.65 0,2.11 0.86,4.17 2.35,5.66 1.48,1.49 3.55,2.34 5.65,2.34 2.11,0 4.17-0.85 5.66-2.34 1.49-1.49 2.34-3.55 2.34-5.66z"/>
    <path d="m146.05,294.408c-1.71,0-3.38,0.7-4.59,1.91-1.21,1.2-1.91,2.88-1.91,4.59s0.7,3.39 1.91,4.6c1.21,1.21 2.88,1.9 4.59,1.9s3.39-0.69 4.6-1.9c1.21-1.21 1.9-2.89 1.9-4.6s-0.69-3.38-1.9-4.59c-1.21-1.21-2.89-1.91-4.6-1.91z"/>
    <path d="m133.39,283.248c-1.32,0-2.61,0.53-3.54,1.46-0.93,0.93-1.46,2.22-1.46,3.54 0,1.31 0.53,2.6 1.46,3.53 0.93,0.93 2.22,1.47 3.54,1.47 1.32,0 2.6-0.54 3.53-1.47s1.47-2.22 1.47-3.53c0-1.32-0.54-2.61-1.47-3.54s-2.22-1.46-3.53-1.46z"/>
    <path d="m450.954,348.965c-19.322-10.404-33.758-39.323-38.549-49.946 3.715-2.634 10.229-6.075 16.189-3.323 2.163,0.998 4.713,0.622 6.494-0.958 1.783-1.58 2.462-4.065 1.73-6.332-6.09-18.88-21.687-30.26-35.446-40.301-4.296-3.134-8.494-6.198-12.253-9.363 2.562,0.164 5.261,0.163 8.092-0.004 9.085-0.535 16.299-2.647 16.602-2.737 2.908-0.862 4.853-3.761 4.35-6.752-0.5-2.97-2.986-5.115-5.991-5.003-0.582-0.045-4.434-0.475-9.944-4.26-5.247-3.604-12.875-10.965-20.302-25.727l2.019-2.484c33.372-41.042 41.297-96.8 20.682-145.511l-7.952-18.814c-0.605-1.429-1.324-2.826-2.15-4.175-4.651-7.521-12.378-12.596-21.199-13.923-8.781-1.32-17.657,1.278-24.354,7.131l-74.502,65.129c-1.432,1.246-2.769,2.6-4.016,4.025h-86.799c-1.247-1.426-2.582-2.777-4.006-4.017l-74.508-65.138c-6.69-5.854-15.561-8.454-24.339-7.138-8.829,1.325-16.565,6.405-21.247,13.972-0.807,1.324-1.52,2.714-2.123,4.135l-7.949,18.807c-20.616,48.714-12.691,104.472 20.68,145.513l2.02,2.485c-7.426,14.762-15.056,22.123-20.303,25.727-5.511,3.786-9.362,4.216-9.945,4.26-2.989-0.113-5.49,2.033-5.99,5.003-0.503,2.991 1.44,5.89 4.349,6.752 0.303,0.09 7.517,2.202 16.602,2.737 2.833,0.167 5.532,0.167 8.091,0.004-3.759,3.166-7.957,6.229-12.252,9.363-13.76,10.041-29.356,21.421-35.447,40.301-0.731,2.267-0.052,4.752 1.73,6.332 1.783,1.58 4.332,1.956 6.494,0.958 5.979-2.761 12.484,0.68 16.192,3.318-4.789,10.62-19.226,39.546-38.551,49.952-1.864,1.004-3.062,2.917-3.15,5.032-0.088,2.116 0.945,4.122 2.719,5.278 33.497,21.824 63.602,19.238 90.165,16.957 27.434-2.355 49.1-4.217 68.365,20.687 0.203,0.262 1.478,5.51 1.79,8.052 2.25,18.535 14.385,40.131 58.71,40.13 1.717,0 3.481-0.032 5.296-0.099 1.818,0.066 3.577,0.099 5.296,0.099 44.325-0.002 56.471-21.596 58.719-40.123 0.313-2.546 1.588-7.797 1.791-8.059 19.265-24.904 40.934-23.042 68.364-20.687 26.563,2.282 56.669,4.866 90.165-16.957 1.774-1.156 2.808-3.162 2.72-5.278-0.087-2.113-1.284-4.026-3.149-5.03zm-74.478-167.108c-0.583-1.51-1.156-3.039-1.708-4.606-12.957-36.705-43.866-50.634-61.703-55.733-2.964-11.687 0.813-24.266 10.078-32.369l63.222-55.27 7.209,17.057c18.493,43.696 11.896,93.57-17.098,130.921zm-149.426,239.501c-3.399,0-6.75-0.897-9.69-2.594-2.944-1.699-5.399-4.154-7.101-7.098l-.433-.755c-2.955-5.124-2.421-11.631 1.321-16.187 1.349-1.636 3.057-2.97 4.944-3.859 1.889-0.893 3.998-1.366 6.1-1.366h9.73c4.294,0 8.317,1.902 11.042,5.222 2.088,2.536 3.237,5.749 3.237,9.048 0,2.503-0.662,4.972-1.921,7.151l-.423,.739c-3.454,5.982-9.894,9.699-16.806,9.699zm.001-44.898l-9.466-9.472 9.466-9.472 9.472,9.472-9.472,9.472zm-.001-30.779l-14.384-14.384 14.384-14.384 14.392,14.384-14.392,14.384zm.002-42.041l-4.708-7.636 4.708-8.635 4.713,8.635-4.713,7.636zm-.002-30.28l-16.225-16.233 16.225-16.232 16.232,16.232-16.232,16.233zm0-43.779l-32.524-32.524 32.524-32.532 32.532,32.532-32.532,32.524zm0-76.37l-16.224-16.224 16.224-16.232 16.232,16.232-16.232,16.224zm0-43.771l-11.797-11.802h23.6l-11.803,11.802zm-166.514-58.506l7.038-16.652 62.762,54.868c9.333,8.159 13.09,20.818 10.029,32.566-17.601,5.155-48.172,19.135-61.024,55.539-0.552,1.566-1.125,3.094-1.708,4.604-28.993-37.351-35.59-87.227-17.097-130.925zm130.803,376.474c-9.657-4.808-15.016-12.62-16.383-23.89-0.509-4.155-1.177-8.125-1.986-11.8-9.627-43.746-39.053-52.826-58.525-58.835-5.958-1.839-11.104-3.427-13.896-5.474-11.486-8.423-7.88-24.07-7.728-24.707 0.804-3.215-1.151-6.472-4.366-7.276-3.212-0.805-6.472,1.151-7.276,4.365-0.244,0.976-5.77,24.063 12.273,37.294 4.42,3.241 10.46,5.105 17.454,7.263 14.456,4.461 31.622,9.777 42.485,28.752-18.96-12.465-39.785-10.692-61.529-8.825-23.531,2.02-47.791,4.104-74.624-10.323 22.705-17.982 36.691-52.854 37.341-54.499 0.879-2.224 0.354-4.758-1.337-6.449-0.481-0.481-9.044-8.894-20.173-10.19 6.375-10.156 16.691-17.683 26.741-25.017 11.324-8.263 23.033-16.807 28.645-29.051 1.174-2.562 0.407-5.595-1.843-7.291-2.249-1.696-5.377-1.598-7.517,0.235-4.196,3.596-10.37,4.929-16.514,5.129 7.023-5.871 14.916-15.396 22.108-30.851 2.126-4.566 4.135-9.521 5.969-14.725 10.672-30.228 35.113-42.9 53.735-48.207 8.202-2.336 14-2.803 14.058-2.807 3.299-0.248 5.776-3.121 5.533-6.423-0.243-3.305-3.127-5.788-6.423-5.544-0.194,0.014-3.457,0.266-8.579,1.31 2.017-13.411-2.84-27.233-13.379-36.447l-63.996-55.944c2.807-3.182 6.663-5.322 10.976-5.969 5.36-0.804 10.566,0.723 14.658,4.304l74.52,65.149c1.577,1.373 3.011,2.913 4.271,4.59 4.434,5.871 6.581,13.173 6.044,20.559-0.24,3.305 2.245,6.179 5.55,6.419 3.307,0.24 6.179-2.244 6.419-5.549 0.476-6.557-0.574-13.066-2.993-19.045h12.891l17.452,17.46-19.053,19.062c-1.562,1.562-1.561,4.094 0,5.656l19.052,19.052-32.524,32.531-24.981-24.99c-0.75-0.75-1.768-1.172-2.829-1.172-1.061,0-2.078,0.421-2.829,1.172l-24.991,24.99-12.872-12.88c-0.75-0.751-1.768-1.172-2.829-1.173-1.061,0-2.078,0.421-2.829,1.172l-15.71,15.71c-0.75,0.75-1.171,1.768-1.171,2.829 0,1.061 0.422,2.079 1.172,2.829l15.71,15.7c0.781,0.781 1.804,1.171 2.828,1.171s2.047-0.391 2.829-1.172l12.872-12.872 24.992,24.982c0.781,0.781 1.805,1.171 2.828,1.171s2.047-0.391 2.829-1.172l24.981-24.981 32.523,32.524-19.052,19.062c-1.561,1.562-1.561,4.094 0,5.656l19.765,19.774-7.898,14.483c-0.688,1.26-0.646,2.792 0.107,4.015l7.67,12.438-17.804,17.804c-0.75,0.75-1.171,1.768-1.171,2.828s0.421,2.078 1.171,2.828l17.473,17.473-12.554,12.561c-1.561,1.562-1.561,4.093 0,5.655l11.721,11.728c-2.818,0.176-5.611,0.886-8.146,2.085-2.943,1.386-5.606,3.462-7.706,6.01-5.849,7.121-6.683,17.275-2.079,25.259l.43,.75c0.002,0.003 0.004,0.006 0.005,0.01 2.403,4.163 5.873,7.633 10.035,10.035 2.993,1.727 6.287,2.857 9.689,3.361v4.035c-13.191,0.134-23.852-1.768-31.71-5.68zm-8.125-230.351l-22.154,22.154-22.163-22.154 22.163-22.162 22.154,22.162zm-55.63,0l-10.045,10.045-10.051-10.045 10.051-10.051 10.045,10.051zm234.662,167.219c-21.743-1.868-42.568-3.641-61.529,8.825 10.864-18.975 28.029-24.29 42.486-28.751 6.993-2.158 13.033-4.022 17.454-7.263 18.043-13.231 12.517-36.317 12.273-37.294-0.804-3.215-4.068-5.168-7.276-4.365-3.215,0.804-5.17,4.061-4.366,7.276 0.041,0.161 3.889,16.188-7.727,24.706-2.793,2.048-7.938,3.635-13.897,5.474-19.472,6.009-48.897,15.089-58.525,58.836-0.808,3.676-1.476,7.645-1.985,11.805-2.455,20.226-18.232,29.911-48.104,29.565v-4.038c8.194-1.218 15.531-6.114 19.74-13.406l.423-.738c1.953-3.382 2.986-7.235 2.986-11.141 0-5.149-1.798-10.168-5.057-14.127-3.957-4.822-9.678-7.725-15.86-8.099l11.726-11.726c0.75-0.75 1.172-1.768 1.172-2.828s-0.422-2.078-1.172-2.828l-12.561-12.561 17.481-17.472c0.75-0.75 1.172-1.768 1.172-2.829s-0.422-2.079-1.172-2.829l-17.812-17.802 7.677-12.437c0.755-1.223 0.796-2.757 0.107-4.018l-7.905-14.482 19.773-19.773c0.75-0.75 1.172-1.768 1.172-2.828s-0.422-2.078-1.172-2.828l-19.061-19.061 32.533-32.524 24.983,24.982c0.781,0.781 1.805,1.172 2.828,1.172s2.047-0.39 2.828-1.171l24.991-24.983 12.872,12.872c0.781,0.781 1.805,1.172 2.828,1.172s2.047-0.39 2.827-1.171l15.71-15.7c0.751-0.75 1.173-1.768 1.173-2.829 0-1.061-0.421-2.079-1.172-2.829l-15.71-15.71c-0.75-0.75-1.768-1.172-2.829-1.172-1.061,0-2.078,0.422-2.828,1.172l-12.872,12.88-24.99-24.991c-0.75-0.75-1.768-1.172-2.828-1.172-1.062,0-2.079,0.422-2.829,1.172l-24.982,24.99-32.532-32.532 19.061-19.051c0.75-0.75 1.172-1.768 1.172-2.829s-0.421-2.079-1.172-2.829l-19.061-19.062 17.46-17.46h12.893c-2.42,5.981-3.47,12.489-2.994,19.045 0.24,3.304 3.115,5.789 6.419,5.549 3.305-0.24 5.79-3.114 5.55-6.419-0.537-7.387 1.609-14.688 6.052-20.571 1.251-1.666 2.686-3.206 4.272-4.588l74.511-65.14c4.095-3.579 9.311-5.106 14.67-4.299 4.173,0.628 7.921,2.65 10.691,5.652l-64.353,56.259c-10.482,9.166-15.35,22.932-13.39,36.315-4.754-0.936-7.763-1.165-7.945-1.178-3.299-0.241-6.164,2.24-6.41,5.54-0.245,3.3 2.233,6.176 5.533,6.427 0.055,0.004 5.546,0.441 13.381,2.618 15.451,4.284 43.065,16.269 54.404,48.392 1.833,5.203 3.842,10.159 5.97,14.728 7.202,15.477 15.106,25.007 22.137,30.876-6.142-0.199-12.324-1.537-16.543-5.153-2.139-1.833-5.266-1.933-7.516-0.235-2.251,1.696-3.017,4.729-1.843,7.291 5.611,12.243 17.32,20.788 28.645,29.051 10.05,7.333 20.365,14.86 26.74,25.017-11.128,1.298-19.692,9.709-20.173,10.19-1.691,1.691-2.217,4.225-1.338,6.449 0.65,1.645 14.637,36.517 37.342,54.499-26.836,14.43-51.095,12.346-74.627,10.325zm-91.35-167.219l22.154-22.162 22.162,22.162-22.162,22.154-22.154-22.154zm55.63,0l10.045-10.051 10.051,10.051-10.051,10.045-10.045-10.045z"/>
    <path d="m211.653,283.695c0.849-2.04-0.116-4.381-2.156-5.23-2.038-0.849-4.381,0.117-5.23,2.156-2.637,6.335-6.959,11.83-12.503,15.892-4.556,3.343-8.405,7.443-11.441,12.186-3.047,4.753-5.167,9.967-6.301,15.498l-5.77,28.25c-0.442,2.165 0.954,4.278 3.119,4.72 0.27,0.055 0.539,0.082 0.805,0.082 1.861,0 3.528-1.306 3.915-3.2l5.77-28.247c0.936-4.562 2.685-8.863 5.201-12.787 2.504-3.912 5.679-7.294 9.435-10.05 6.717-4.924 11.958-11.587 15.156-19.27z"/>
    <path d="m280.088,324.194c-1.134-5.529-3.254-10.742-6.299-15.493-3.038-4.745-6.889-8.846-11.445-12.19-5.542-4.061-9.865-9.555-12.501-15.89-0.85-2.039-3.187-3.007-5.23-2.156-2.039,0.849-3.005,3.19-2.156,5.23 3.198,7.683 8.439,14.346 15.157,19.268 3.758,2.758 6.933,6.139 9.439,10.054 2.514,3.922 4.263,8.224 5.198,12.782l5.77,28.25c0.387,1.895 2.054,3.2 3.915,3.2 0.265,0 0.534-0.026 0.805-0.082 2.164-0.442 3.561-2.555 3.118-4.719l-5.771-28.254z"/>
    <path d="m184.651,293.34c1.273-0.812 1.981-2.272 1.829-3.775-0.767-7.576-4.799-14.411-11.065-18.753-6.27-4.344-14.097-5.719-21.478-3.772l-10.579,2.79c-7.563,1.998-15.268-2.295-17.542-9.779l-1.82-5.97c-0.645-2.113-2.88-3.304-4.993-2.66-2.113,0.644-3.304,2.879-2.66,4.992l1.819,5.967c2.947,9.696 11.766,15.945 21.427,15.945 1.916,0 3.866-0.246 5.808-0.759l1.558-.41c2.235,11.418 12.312,20.062 24.374,20.062 4.738,0 9.345-1.341 13.322-3.878zm-29.934-18.23l1.263-.334c5.11-1.35 10.534-0.397 14.877,2.613 3.62,2.508 6.164,6.217 7.215,10.423-2.112,0.926-4.403,1.407-6.743,1.407-8.342-0.001-15.288-6.1-16.612-14.109z"/>
    <path d="m335.1,251.42c-2.118-0.642-4.348,0.554-4.988,2.668l-1.807,5.962c-2.285,7.483-9.999,11.778-17.551,9.781l-10.587-2.802c-2.198-0.578-4.441-0.872-6.668-0.872-13.408,0-24.534,10.073-25.879,23.429-0.152,1.509 0.562,2.973 1.843,3.783 3.986,2.517 8.58,3.848 13.286,3.848 12.066,0 22.15-8.648 24.382-20.071l1.576,.418c11.735,3.102 23.703-3.566 27.251-15.187l1.81-5.97c0.641-2.113-0.554-4.346-2.668-4.987zm-52.351,37.798c-2.325,0-4.61-0.479-6.726-1.4 1.966-7.945 9.073-13.66 17.476-13.66 1.54,0 3.099,0.205 4.629,0.607l1.243,.328c-1.302,7.999-8.26,14.125-16.622,14.125z"/>
    <path d="m243.938,194.229l-14.06-14.06c-0.75-0.75-1.768-1.172-2.829-1.172h-0.001c-1.061,0-2.079,0.422-2.829,1.173l-14.05,14.06c-1.561,1.562-1.561,4.094 0.001,5.656l14.05,14.05c0.781,0.781 1.805,1.172 2.829,1.172 1.023,0 2.046-0.39 2.828-1.171l14.06-14.05c0.751-0.75 1.173-1.768 1.173-2.829 2.84217e-14-1.061-0.421-2.078-1.172-2.829zm-16.887,11.223l-8.395-8.395 8.395-8.401 8.401,8.401-8.401,8.395z"/>
    <path d="m268.069,139.75c-0.75-0.75-1.768-1.172-2.828-1.172-0.001,0-0.001,0-0.001,0-1.061,0-2.078,0.421-2.828,1.172l-15.71,15.71c-0.751,0.75-1.172,1.768-1.172,2.829 0,1.061 0.422,2.079 1.173,2.829l15.71,15.7c0.78,0.781 1.804,1.171 2.827,1.171s2.048-0.391 2.828-1.172l15.7-15.7c1.563-1.562 1.563-4.094 0.001-5.656l-15.7-15.711zm-2.83,28.582l-10.051-10.045 10.051-10.052 10.045,10.052-10.045,10.045z"/>
    <path d="m186.041,176.816c0.781,0.781 1.805,1.172 2.829,1.172 1.023,0 2.046-0.39 2.828-1.171l15.71-15.7c0.75-0.75 1.172-1.768 1.172-2.829 0-1.061-0.421-2.079-1.171-2.829l-15.71-15.71c-0.75-0.75-1.768-1.172-2.829-1.172s-2.079,0.422-2.829,1.172l-15.7,15.71c-1.562,1.562-1.561,4.094 0,5.656l15.7,15.701zm2.83-28.581l10.051,10.052-10.051,10.045-10.045-10.045 10.045-10.052z"/>
    <path d="m265.241,255.238c1.061,0 2.078-0.422 2.828-1.172l15.7-15.71c1.562-1.562 1.562-4.094-0.001-5.656l-15.7-15.7c-1.563-1.562-4.095-1.562-5.655-0.001l-15.71,15.7c-0.751,0.75-1.173,1.768-1.173,2.829 0,1.061 0.421,2.079 1.172,2.829l15.71,15.71c0.749,0.749 1.767,1.171 2.829,1.171zm-.002-29.754l10.045,10.045-10.045,10.051-10.051-10.051 10.051-10.045z"/>
    <path d="m186.041,254.065c0.75,0.75 1.768,1.172 2.829,1.172 1.061,0 2.078-0.421 2.829-1.172l15.71-15.71c0.75-0.75 1.171-1.768 1.171-2.829 0-1.061-0.422-2.079-1.172-2.829l-15.71-15.7c-1.563-1.561-4.094-1.561-5.656,0.001l-15.7,15.7c-1.562,1.562-1.562,4.094 0,5.656l15.699,15.711zm2.83-28.581l10.051,10.045-10.051,10.051-10.045-10.051 10.045-10.045z"/>
    <path d="m96.22,252c-0.75-0.751-1.768-1.172-2.829-1.173-1.061,0-2.078,0.421-2.829,1.172l-15.71,15.71c-0.75,0.75-1.171,1.768-1.171,2.828s0.421,2.078 1.171,2.828l15.71,15.71c0.75,0.75 1.768,1.172 2.829,1.172 1.062,0 2.079-0.422 2.829-1.173l15.7-15.71c1.561-1.562 1.561-4.093 0-5.655l-15.7-15.709zm-2.831,28.59l-10.053-10.052 10.053-10.052 10.046,10.052-10.046,10.052z"/>
    <path d="m363.548,251.999c-0.75-0.75-1.768-1.172-2.829-1.172-1.061,0-2.078,0.422-2.828,1.172l-15.7,15.71c-1.562,1.562-1.562,4.093 0,5.655l15.7,15.71c0.75,0.75 1.768,1.172 2.828,1.172 0.001,0 0.001,0 0.001,0 1.061,0 2.078-0.421 2.828-1.172l15.71-15.71c1.563-1.562 1.563-4.095 0-5.657l-15.71-15.708zm-2.827,28.591l-10.046-10.052 10.046-10.052 10.052,10.052-10.052,10.052z"/>
    <path d="m133.538,178.097c0.003,0 0.006,0 0.009,0 4.69,0 9.415-2.034 12.961-5.581 3.22-3.22 5.182-7.355 5.524-11.643 0.361-4.527-1.1-8.68-4.114-11.694-3.015-3.015-7.168-4.476-11.69-4.113-4.286,0.343-8.419,2.309-11.634,5.53-3.226,3.22-5.192,7.353-5.535,11.639-0.363,4.524 1.098,8.676 4.109,11.687 2.683,2.69 6.366,4.173 10.37,4.175zm-6.505-15.222c0.192-2.39 1.333-4.74 3.218-6.621 1.876-1.88 4.226-3.021 6.616-3.212 0.23-0.019 0.458-0.028 0.682-0.028 1.871,0 3.525,0.635 4.712,1.823 1.33,1.33 1.967,3.248 1.796,5.401-0.191,2.393-1.33,4.745-3.207,6.622-2.057,2.058-4.719,3.238-7.304,3.237-0.001,0-0.003,0-0.005,0-1.319-0.001-3.208-0.318-4.714-1.828-1.329-1.33-1.966-3.245-1.794-5.394z"/>
    <path d="m329.521,150.602c-3.22-3.226-7.353-5.192-11.639-5.535-4.521-0.363-8.677,1.098-11.69,4.112-3.014,3.014-4.476,7.167-4.114,11.694 0.342,4.288 2.304,8.423 5.524,11.643 3.546,3.547 8.27,5.581 12.961,5.581 0.002,0 0.006,0 0.008,0 4.004-0.002 7.688-1.484 10.367-4.17 3.015-3.015 4.476-7.167 4.113-11.691-0.344-4.286-2.309-8.42-5.53-11.634zm-4.242,17.67c-1.504,1.507-3.393,1.824-4.712,1.824-0.002,0-0.003,0-0.005,0-2.584,0-5.246-1.18-7.304-3.237-1.877-1.877-3.016-4.228-3.206-6.622-0.172-2.153 0.466-4.072 1.796-5.401 1.188-1.188 2.842-1.823 4.713-1.823 0.224,0 0.452,0.009 0.683,0.028 2.39,0.191 4.739,1.332 6.621,3.218 1.88,1.876 3.021,4.226 3.212,6.616 0.171,2.149-0.466,4.064-1.798,5.397z"/>
    <path d="m124.591,243.516c3.221,3.22 7.354,5.182 11.638,5.524 0.452,0.036 0.898,0.054 1.342,0.054 3.999,0 7.634-1.455 10.347-4.168 6.039-6.039 5.408-16.506-1.407-23.334-0.001-0.001-0.001-0.002-0.002-0.003-3.22-3.22-7.355-5.182-11.643-5.524-4.525-0.362-8.681,1.101-11.693,4.114-3.015,3.015-4.476,7.168-4.113,11.695 0.342,4.29 2.308,8.425 5.531,11.642zm4.237-17.68c1.188-1.188 2.845-1.823 4.72-1.823 0.224,0 0.451,0.009 0.681,0.027 2.393,0.191 4.743,1.328 6.619,3.203 3.702,3.709 4.335,9.103 1.413,12.026-1.33,1.33-3.245,1.968-5.396,1.796-2.39-0.191-4.74-1.329-6.62-3.209-1.88-1.876-3.021-4.228-3.212-6.621-0.172-2.151 0.465-4.069 1.795-5.399z"/>
    <path d="m316.538,249.094c0.443,0 0.891-0.018 1.342-0.054 4.285-0.342 8.418-2.303 11.635-5.521 3.227-3.22 5.192-7.355 5.536-11.645 0.362-4.527-1.099-8.681-4.113-11.695-3.014-3.013-7.169-4.471-11.693-4.114-4.288,0.342-8.423,2.303-11.643,5.524-0.001,0.001-0.002,0.002-0.003,0.002-6.815,6.828-7.446,17.295-1.407,23.334 2.713,2.714 6.347,4.169 10.346,4.169zm-3.277-21.85c1.876-1.875 4.227-3.013 6.619-3.204 2.152-0.171 4.071,0.467 5.401,1.796s1.967,3.247 1.795,5.4c-0.191,2.393-1.332,4.744-3.215,6.623-1.877,1.877-4.227,3.015-6.617,3.206-2.151,0.173-4.065-0.467-5.396-1.796-2.923-2.922-2.289-8.317 1.413-12.025z"/>
  </g>
</svg>
