<?xml version="1.0" encoding="iso-8859-1"?>
<!-- Generator: Adobe Illustrator 19.0.0, SVG Export Plug-In . SVG Version: 6.00 Build 0)  -->
<svg version="1.1" id="Capa_1" xmlns="http://www.w3.org/2000/svg" xmlns:xlink="http://www.w3.org/1999/xlink" x="0px" y="0px"
	 viewBox="0 0 231.236 231.236" style="enable-background:new 0 0 231.236 231.236;" xml:space="preserve">
<path d="M203.118,112.908V71.776L115.618,0l-87.5,71.776v41.132l26.235-21.384l11.401,81.713H40.118v24h53v34h45v-34h54v-24h-25.896
	l11.06-81.658L203.118,112.908z M115.988,166.418c-5.029,0-9.106-4.077-9.106-9.107s4.077-9.107,9.106-9.107
	c5.03,0,9.107,4.077,9.107,9.107S121.018,166.418,115.988,166.418z M115.988,133.726c-16.782,0-30.387-13.605-30.387-30.387
	s13.605-30.387,30.387-30.387c16.782,0,30.387,13.605,30.387,30.387S132.771,133.726,115.988,133.726z"/>
<g>
</g>
<g>
</g>
<g>
</g>
<g>
</g>
<g>
</g>
<g>
</g>
<g>
</g>
<g>
</g>
<g>
</g>
<g>
</g>
<g>
</g>
<g>
</g>
<g>
</g>
<g>
</g>
<g>
</g>
</svg>
