<?xml version='1.0' encoding='iso-8859-1'?>
<!DOCTYPE svg PUBLIC '-//W3C//DTD SVG 1.1//EN' 'http://www.w3.org/Graphics/SVG/1.1/DTD/svg11.dtd'>
<svg version="1.1" xmlns="http://www.w3.org/2000/svg" viewBox="0 0 480.159 480.159" xmlns:xlink="http://www.w3.org/1999/xlink" enable-background="new 0 0 480.159 480.159">
  <g>
    <path d="m319.672,249.109c-2.32,2.32-3.66,5.54-3.66,8.84 0,3.29 1.34,6.51 3.66,8.83 2.33,2.33 5.55,3.67 8.84,3.67 3.3,0 6.52-1.34 8.84-3.67 2.33-2.32 3.66-5.54 3.66-8.83 0-3.3-1.33-6.52-3.66-8.84-2.33-2.33-5.55-3.67-8.84-3.67s-6.509,1.34-8.84,3.67z"/>
    <path d="m151.643,245.449c-3.29,0-6.51,1.33-8.84,3.66-2.32,2.32-3.66,5.54-3.66,8.84 0,3.29 1.34,6.51 3.66,8.83 2.33,2.33 5.55,3.66 8.84,3.66 3.29,0 6.51-1.33 8.84-3.66 2.33-2.32 3.66-5.54 3.66-8.83 0-3.29-1.33-6.52-3.66-8.84-2.331-2.33-5.551-3.66-8.84-3.66z"/>
    <path d="m373.791,205.566c-8.596-16.718-20.428-31.844-34.583-44.3 10.381-15.883 19.192-36.092 25.277-58.201 7.523-27.335 8.638-49.795 3.311-66.756-5.146-16.386-16.289-27.956-32.222-33.459-12.824-4.43-25.463-3.683-36.551,2.157-17.466,9.2-30.437,29.952-39.654,63.442-5.222,18.974-8.102,38.305-8.398,55.863-7.254-0.523-14.526-0.523-21.78,0-0.297-17.557-3.176-36.889-8.398-55.863-9.217-33.49-22.188-54.241-39.654-63.442-11.089-5.841-23.728-6.587-36.551-2.158-15.934,5.503-27.076,17.073-32.222,33.46-5.326,16.96-4.212,39.42 3.311,66.756 6.084,22.109 14.896,42.318 25.277,58.201-14.156,12.456-25.988,27.582-34.584,44.3-10.827,21.058-16.55,44.784-16.55,68.614 0,39.808 15.725,72.341 45.474,94.081 26.26,19.191 62.495,29.334 104.788,29.334s78.527-10.144 104.787-29.334c29.75-21.74 45.474-54.273 45.474-94.081-0.002-23.83-5.725-47.556-16.552-68.614zm-43.675,142.511c-21.949,16.04-53.083,24.519-90.037,24.519s-68.087-8.479-90.037-24.519c-23.374-17.081-35.225-41.943-35.225-73.897 0-40.022 18.452-76.69 50.625-100.603 2.722-2.023 4.505-5.065 4.94-8.429 0.436-3.363-0.515-6.759-2.632-9.408-11.457-14.334-21.391-35.397-27.972-59.309-6.227-22.625-7.426-40.333-3.563-52.631 2.79-8.885 8.043-14.388 16.533-17.32 2.87-0.991 5.567-1.487 8.123-1.487 3.059,0 5.914,0.711 8.615,2.134 7.471,3.936 18.255,15.45 27.202,47.957 6.026,21.897 8.566,44.067 7.151,62.426-0.297,3.847 1.2,7.615 4.055,10.211 2.855,2.595 6.749,3.728 10.551,3.065 14.23-2.476 29.039-2.476 43.269,0 3.805,0.663 7.696-0.469 10.551-3.065 2.855-2.595 4.352-6.364 4.055-10.211-1.415-18.359 1.125-40.529 7.151-62.426 8.946-32.507 19.73-44.021 27.202-47.957 4.959-2.613 10.434-2.824 16.738-0.646 8.489,2.932 13.743,8.436 16.533,17.32 3.863,12.299 2.664,30.006-3.563,52.631-6.581,23.912-16.515,44.975-27.972,59.309-2.118,2.649-3.068,6.045-2.632,9.408 0.435,3.363 2.218,6.406 4.94,8.429 32.172,23.912 50.625,60.58 50.625,100.603-0.001,31.952-11.852,56.815-35.226,73.896z"/>
    <path d="m255.494,262.4h-31.085c-6.903,0-12.5,5.596-12.5,12.5s5.597,12.5 12.5,12.5h3.042v3.042c0,6.904 5.596,12.5 12.5,12.5s12.5-5.596 12.5-12.5v-3.042h3.042c6.903,0 12.5-5.596 12.5-12.5s-5.595-12.5-12.499-12.5z"/>
    <path d="m306.966,402.968c-3.563-2.303-8.052-2.64-11.921-0.896l-54.965,24.78-54.966-24.78c-3.868-1.744-8.357-1.406-11.921,0.896s-5.716,6.256-5.716,10.499v54.191c0,4.243 2.152,8.197 5.716,10.499 2.053,1.326 4.413,2.001 6.785,2.001 1.745,0 3.497-0.365 5.136-1.104l54.966-24.779 54.965,24.779c1.64,0.739 3.391,1.104 5.136,1.104 2.372,0 4.731-0.674 6.785-2.001 3.564-2.303 5.716-6.256 5.716-10.499v-54.191c-5.68434e-14-4.242-2.152-8.196-5.716-10.499zm-114.489,45.344v-15.498l17.188,7.749-17.188,7.749zm95.205,0l-17.188-7.749 17.188-7.749v15.498z"/>
  </g>
</svg>
