<?xml version='1.0' encoding='iso-8859-1'?>
<!DOCTYPE svg PUBLIC '-//W3C//DTD SVG 1.1//EN' 'http://www.w3.org/Graphics/SVG/1.1/DTD/svg11.dtd'>
<svg version="1.1" xmlns="http://www.w3.org/2000/svg" viewBox="0 0 465.55 465.55" xmlns:xlink="http://www.w3.org/1999/xlink" enable-background="new 0 0 465.55 465.55">
  <g>
    <path d="m287.178,207.834c-2.32-2.32-5.55-3.66-8.84-3.66-3.29,0-6.51,1.34-8.83,3.66-2.33,2.33-3.67,5.55-3.67,8.84s1.34,6.51 3.67,8.84c2.32,2.33 5.54,3.66 8.83,3.66 3.29,0 6.52-1.33 8.84-3.66 2.33-2.33 3.66-5.55 3.66-8.84s-1.33-6.51-3.66-8.84z"/>
    <path d="m187.208,204.174c-3.29,0-6.51,1.34-8.84,3.66-2.33,2.33-3.66,5.55-3.66,8.84s1.33,6.51 3.66,8.84c2.33,2.33 5.55,3.66 8.84,3.66s6.51-1.33 8.84-3.66c2.33-2.33 3.66-5.55 3.66-8.84s-1.33-6.51-3.66-8.84c-2.33-2.32-5.55-3.66-8.84-3.66z"/>
    <path d="m439.324,246.503c-4.242-4.242-9.412-7.215-15.049-8.749v-46.254c0-105.593-85.907-191.5-191.5-191.5-105.593,0-191.5,85.907-191.5,191.5v46.265c-14.391,3.947-25,17.135-25,32.762v24.435c0,15.603 6.712,30.386 18.02,40.667 16.43,37.633 43.079,69.679 77.23,92.806 35.855,24.281 77.783,37.115 121.25,37.115 86.141,0 163.614-50.67 198.23-129.345 11.366-10.18 18.269-25.002 18.269-40.983v-24.695c0.001-9.075-3.533-17.607-9.95-24.024zm-206.549-221.503c91.809,0 166.5,74.691 166.5,166.5v45.053h-64.591c0.056-1.36 0.091-2.73 0.091-4.113 0-28.062-11.762-54.985-31.948-74.129 6.122-10.153 11.311-22.511 15-35.884 13.767-50.028-7.613-65.589-21.58-70.411-9.504-3.283-18.916-2.707-27.217,1.666-12.479,6.573-21.62,20.943-27.946,43.93-3.048,11.066-4.901,22.334-5.454,32.859-1.905-0.054-3.805-0.054-5.71,0-0.552-10.525-2.405-21.792-5.453-32.856-6.327-22.989-15.468-37.36-27.947-43.933-8.303-4.373-17.714-4.949-27.215-1.667-13.97,4.823-35.35,20.384-21.581,70.418 3.687,13.368 8.876,25.725 14.998,35.877-20.185,19.144-31.947,46.067-31.947,74.129 0,1.383 0.035,2.752 0.091,4.113h-64.591v-45.052c0-91.809 74.692-166.5 166.5-166.5zm-76.879,211.553c-0.074-1.351-0.121-2.719-0.121-4.113 0-24.604 11.342-47.147 31.117-61.848 2.721-2.023 4.503-5.064 4.939-8.426s-0.514-6.757-2.629-9.407c-6.969-8.725-13.303-22.201-17.375-36.965-4.756-17.284-3.908-26.791-2.359-31.722 1.38-4.395 3.847-6.993 7.999-8.426 3.805-1.315 5.954-0.608 7.403,0.155 2.695,1.419 9.601,7.034 15.494,28.449 3.786,13.745 5.384,27.612 4.499,39.045-0.297,3.846 1.197,7.614 4.05,10.21 2.854,2.597 6.746,3.729 10.546,3.071 8.78-1.521 17.852-1.521 26.632,0 3.8,0.657 7.692-0.475 10.546-3.071 2.853-2.596 4.348-6.364 4.05-10.21-0.885-11.434 0.712-25.3 4.499-39.048 5.893-21.413 12.798-27.027 15.494-28.446 1.447-0.763 3.599-1.47 7.405-0.155 4.15,1.433 6.616,4.031 7.997,8.426 1.549,4.932 2.397,14.438-2.356,31.715-4.075,14.772-10.408,28.248-17.377,36.973-2.116,2.649-3.065,6.044-2.629,9.407s2.218,6.403 4.939,8.426c19.776,14.701 31.118,37.244 31.118,61.848 0,1.394-0.047,2.762-0.121,4.113h-153.76zm-114.621,33.972c-7.10543e-15-4.948 4.025-8.974 8.974-8.974h365.052c2.397,0 4.651,0.934 6.346,2.628s2.628,3.948 2.628,6.345v24.695c0,12.613-7.816,23.875-19.468,28.032l-.236,.083c-21.476,7.543-45.244,1.557-60.554-15.254-2.369-2.601-5.724-4.083-9.242-4.083s-6.873,1.482-9.242,4.083c-10.835,11.897-25.666,18.45-41.758,18.45-16.093,0-30.923-6.552-41.759-18.45-2.369-2.601-5.724-4.083-9.242-4.083s-6.873,1.482-9.242,4.083c-10.835,11.897-25.666,18.45-41.758,18.45-16.093,0-30.923-6.552-41.759-18.45-2.369-2.601-5.724-4.083-9.242-4.083-3.518,0-6.873,1.482-9.242,4.083-14.991,16.465-38.359,22.587-59.531,15.604-0.829-0.274-2.718-1.025-6.045-2.979-9.055-5.321-14.68-15.186-14.68-25.744v-24.436zm191.5,170.024c-66.734,0-127.506-34.314-162.165-89.539 21.501,2.412 43.223-3.824 60.168-17.417 14.364,11.512 32.375,17.939 50.997,17.939 0.001,0-0.001,0 0,0 18.622,0 36.636-6.429 51-17.941 14.365,11.514 32.377,17.941 51,17.941 0.001,0-0.001,0 0,0 18.617,0 36.626-6.425 50.989-17.933 14.565,11.714 32.581,17.958 50.986,17.958 3.053,0 6.116-0.187 9.177-0.534-34.673,55.205-95.477,89.526-162.152,89.526z"/>
    <path d="m79.778,305.004c3.29,0 6.51-1.34 8.84-3.67 2.32-2.32 3.66-5.54 3.66-8.83s-1.34-6.52-3.66-8.84c-2.33-2.33-5.55-3.66-8.84-3.66-3.3,0-6.52,1.33-8.84,3.66-2.33,2.32-3.66,5.55-3.66,8.84s1.33,6.51 3.66,8.83c2.32,2.33 5.55,3.67 8.84,3.67z"/>
    <path d="m385.778,305.004c3.29,0 6.51-1.34 8.84-3.66 2.32-2.33 3.66-5.55 3.66-8.84 0-3.3-1.34-6.52-3.66-8.84-2.33-2.33-5.55-3.66-8.84-3.66s-6.51,1.33-8.84,3.66c-2.33,2.32-3.66,5.54-3.66,8.84 0,3.29 1.33,6.51 3.66,8.84 2.32,2.32 5.55,3.66 8.84,3.66z"/>
    <path d="m181.778,305.004c3.29,0 6.51-1.34 8.83-3.66 2.33-2.33 3.67-5.55 3.67-8.84 0-3.3-1.34-6.52-3.67-8.84-2.32-2.33-5.54-3.66-8.83-3.66-3.3,0-6.52,1.33-8.84,3.66-2.33,2.32-3.66,5.54-3.66,8.84 0,3.29 1.33,6.51 3.66,8.84 2.32,2.32 5.55,3.66 8.84,3.66z"/>
    <path d="m283.778,305.004c3.29,0 6.51-1.34 8.84-3.67 2.32-2.32 3.66-5.54 3.66-8.83s-1.34-6.52-3.66-8.84c-2.33-2.33-5.55-3.66-8.84-3.66s-6.52,1.33-8.84,3.66c-2.33,2.32-3.66,5.55-3.66,8.84s1.33,6.51 3.66,8.83c2.32,2.33 5.55,3.67 8.84,3.67z"/>
  </g>
</svg>
