<?xml version="1.0" encoding="iso-8859-1"?>
<!-- Generator: Adobe Illustrator 18.0.0, SVG Export Plug-In . SVG Version: 6.00 Build 0)  -->
<!DOCTYPE svg PUBLIC "-//W3C//DTD SVG 1.1//EN" "http://www.w3.org/Graphics/SVG/1.1/DTD/svg11.dtd">
<svg version="1.1" id="Capa_1" xmlns="http://www.w3.org/2000/svg" xmlns:xlink="http://www.w3.org/1999/xlink" x="0px" y="0px"
	 viewBox="0 0 424.121 424.121" style="enable-background:new 0 0 424.121 424.121;" xml:space="preserve">
<g>
	<g>
		<path d="M274.043,236.715c-15.746-6.362-34.555-5.52-54.39,2.428c-15.828,6.342-32.118,17.055-48.647,31.948l23.394-55.495
			c0.016-0.036,0.03-0.072,0.045-0.108c0.432-1.081,1.258-1.93,2.326-2.389c1.069-0.462,2.254-0.477,3.335-0.044
			c2.231,0.89,3.323,3.432,2.434,5.665c-1.227,3.078,0.273,6.568,3.352,7.795c3.077,1.23,6.567-0.273,7.795-3.352
			c3.34-8.378-0.757-17.912-9.134-21.255c-4.059-1.618-8.504-1.559-12.518,0.164c-3.996,1.717-7.088,4.88-8.713,8.91l-18.729,44.429
			l5.81-47.863c0.592-4.306-0.52-8.586-3.135-12.061c-2.628-3.49-6.457-5.749-10.783-6.36c-4.33-0.607-8.633,0.501-12.125,3.129
			c-3.491,2.628-5.75,6.457-6.36,10.784c-0.462,3.281,1.822,6.316,5.104,6.779c3.281,0.461,6.317-1.823,6.779-5.104
			c0.162-1.152,0.764-2.173,1.694-2.873c0.931-0.699,2.079-0.993,3.23-0.833c1.153,0.162,2.173,0.765,2.873,1.694
			c0.7,0.93,0.996,2.076,0.832,3.229c-0.005,0.039-0.011,0.078-0.015,0.117l-7.258,59.787
			c-6.949-21.138-15.768-38.526-26.356-51.893c-13.27-16.752-29.176-26.821-46.001-29.121c-21.821-2.985-43.27,7.902-53.37,27.084
			c-8.879,16.866-7.127,35.989,4.443,52.486c-18.236,8.571-29.255,24.298-29.925,43.348c-0.763,21.665,12.447,41.765,32.869,50.015
			c6.975,2.817,14.548,4.222,22.548,4.222c10.059,0,20.792-2.222,31.841-6.649c20.364-8.159,41.491-23.557,62.911-45.79
			c7.548,29.936,18.238,53.793,31.86,70.989c13.269,16.751,29.176,26.821,46,29.12c2.4,0.328,4.796,0.488,7.172,0.488
			c19.232,0,37.211-10.5,46.199-27.572c8.879-16.866,7.127-35.988-4.443-52.484c18.236-8.572,29.255-24.3,29.925-43.35
			C307.675,265.065,294.465,244.965,274.043,236.715z M37.396,346.63c-15.761-6.367-25.957-21.826-25.372-38.467
			c0.586-16.646,11.35-29.574,29.532-35.471c3.152-1.022,4.878-4.406,3.856-7.558c-0.272-0.837-0.713-1.57-1.269-2.182l0.002-0.002
			c-12.852-14.148-15.773-30.715-8.014-45.454c7.757-14.733,24.286-23.078,41.127-20.784c14.8,2.023,50.942,15.741,69.681,98.784
			C89.43,358.268,51.246,352.223,37.396,346.63z M294.92,286.308c-0.585,16.646-11.348,29.575-29.529,35.473l0.001,0.01
			c-0.786,0.255-1.534,0.664-2.185,1.256c-2.453,2.229-2.635,6.023-0.406,8.476c12.851,14.147,15.772,30.714,8.013,45.451
			c-7.757,14.734-24.288,23.094-41.128,20.785c-14.8-2.022-50.942-15.742-69.681-98.784c57.509-62.771,95.693-56.727,109.543-51.133
			C285.309,254.208,295.506,269.667,294.92,286.308z"/>
		<path d="M423.398,90.918c-2.584-12.774-11.422-22.295-24.202-26.583c5.229-12.426,3.927-25.352-3.95-35.735
			c-9.408-12.399-25.871-17.591-40.965-12.917c-9.857,3.052-30.81,14.393-39.453,56.014l-9.262-31.589
			c-0.012-0.037-0.023-0.075-0.035-0.113c-0.174-0.554,0.137-1.146,0.689-1.32c0.553-0.171,1.147,0.136,1.322,0.692
			c0.994,3.16,4.365,4.918,7.523,3.923c3.162-0.994,4.918-4.363,3.924-7.524c-2.16-6.867-9.502-10.698-16.371-8.537
			c-6.845,2.154-10.67,9.459-8.555,16.305l5.386,18.37l-10.223-16.185c-1.807-2.953-4.65-5.034-8.015-5.863
			c-3.385-0.831-6.895-0.298-9.877,1.507c-2.984,1.805-5.086,4.663-5.92,8.049c-0.833,3.387-0.298,6.894,1.508,9.878
			c1.715,2.834,5.404,3.742,8.238,2.027c2.836-1.716,3.744-5.404,2.027-8.24c-0.186-0.308-0.168-0.604-0.121-0.796
			c0.048-0.193,0.17-0.464,0.479-0.65c0.309-0.187,0.603-0.169,0.797-0.122c0.193,0.048,0.463,0.17,0.65,0.479
			c0.02,0.033,17.642,27.932,17.642,27.932c-36.946-21.026-59.306-12.801-68.11-7.422c-13.484,8.237-20.471,24.021-17.385,39.277
			c2.584,12.775,11.422,22.296,24.203,26.584c-5.23,12.426-3.928,25.352,3.949,35.735c7.104,9.362,18.228,14.614,29.749,14.614
			c3.737,0,7.519-0.553,11.216-1.697c11.163-3.456,36.557-17.544,42.185-74.213c25.516,18.338,45.282,23.598,59.549,23.597
			c11.588-0.001,19.552-3.466,24.023-6.196C419.498,121.959,426.484,106.175,423.398,90.918z M276.708,175.546
			c-10.292,3.185-21.485-0.313-27.855-8.707c-6.341-8.358-6.195-19.014,0.4-29.235c1.797-2.784,0.996-6.498-1.789-8.295
			c-0.739-0.477-1.545-0.765-2.361-0.888v-0.004c-12.029-1.808-20.121-8.741-22.201-19.023c-2.09-10.328,2.684-21.041,11.879-26.658
			c8.29-5.065,32.141-12.918,76.322,21.396C307.648,159.965,285.988,172.673,276.708,175.546z M399.758,119.956
			c-8.29,5.066-32.143,12.92-76.324-21.395c3.457-55.835,25.116-68.543,34.397-71.416c10.294-3.187,21.486,0.313,27.855,8.708
			c6.341,8.357,6.195,19.013-0.4,29.234l0.004,0.003c-0.448,0.693-0.765,1.488-0.895,2.358c-0.492,3.277,1.766,6.333,5.042,6.825
			c12.028,1.808,20.12,8.741,22.2,19.023C413.727,103.626,408.953,114.34,399.758,119.956z"/>
	</g>
</g>
<g>
</g>
<g>
</g>
<g>
</g>
<g>
</g>
<g>
</g>
<g>
</g>
<g>
</g>
<g>
</g>
<g>
</g>
<g>
</g>
<g>
</g>
<g>
</g>
<g>
</g>
<g>
</g>
<g>
</g>
</svg>
