<?xml version="1.0" encoding="iso-8859-1"?>
<!-- Generator: Adobe Illustrator 18.0.0, SVG Export Plug-In . SVG Version: 6.00 Build 0)  -->
<!DOCTYPE svg PUBLIC "-//W3C//DTD SVG 1.1//EN" "http://www.w3.org/Graphics/SVG/1.1/DTD/svg11.dtd">
<svg version="1.1" id="Capa_1" xmlns="http://www.w3.org/2000/svg" xmlns:xlink="http://www.w3.org/1999/xlink" x="0px" y="0px"
	 viewBox="0 0 297 297" style="enable-background:new 0 0 297 297;" xml:space="preserve">
<g>
	<path d="M177.978,239.154c4.125,4.673,6.618,10.703,6.618,17.283v14.35c0,7.357-3.112,14.031-8.143,18.883l16.224,6.345
		c3.841,1.505,7.64,1.279,10.444-0.633c2.572-1.755,3.989-4.659,3.989-8.178v-47.181c0-3.518-1.417-6.423-3.99-8.18
		c-1.578-1.077-3.428-1.624-5.499-1.624c-1.605,0-3.267,0.333-4.942,0.987L177.978,239.154z"/>
	<path d="M156.54,283.879c7.891,0,14.31-5.873,14.31-13.092v-14.35c0-5.336-3.515-9.93-8.534-11.965
		c-4.462,0.926-9.082,1.415-13.814,1.415c-4.731,0-9.352-0.489-13.813-1.414c-5.02,2.034-8.534,6.628-8.534,11.964v14.35
		c0,7.219,6.42,13.092,14.311,13.092H156.54z"/>
	<path d="M148.501,230.22c20.001,0,33.195-9.477,33.195-9.477c12.779-9.933,21.024-25.439,21.024-42.845v-33.183
		c0-2.911,1.836-5.508,4.581-6.479c15.531-5.494,25.966-20.26,25.966-36.74c0-21.487-17.471-38.968-38.947-38.968
		c-21.475,0-38.946,17.48-38.946,38.968c0,3.796-3.077,6.873-6.873,6.873s-6.873-3.077-6.873-6.873
		c0-21.487-17.472-38.968-38.946-38.968c-21.476,0-38.948,17.48-38.948,38.968c0,16.48,10.436,31.246,25.967,36.74
		c2.745,0.971,4.581,3.567,4.581,6.479v33.183c0,17.406,8.245,32.911,21.023,42.844C115.305,220.741,128.5,230.22,148.501,230.22z
		 M107.546,106.352c-1.286,1.286-3.054,2.014-4.86,2.014c-1.816,0-3.584-0.736-4.86-2.014c-1.285-1.276-2.013-3.044-2.013-4.859
		c0-1.808,0.728-3.574,2.013-4.86c1.276-1.276,3.044-2.003,4.86-2.003c1.807,0,3.574,0.727,4.86,2.003
		c1.276,1.286,2.013,3.053,2.013,4.86C109.559,103.308,108.823,105.075,107.546,106.352z M155.374,172.143v36.314
		c0,3.796-3.077,6.872-6.873,6.872s-6.873-3.076-6.873-6.872v-36.314c-8.855-2.899-15.272-11.24-15.272-21.056
		c0-10.325,8.04-10.624,8.957-10.624c2.486,0,4.658,0.928,6.958,1.912c2.017,0.862,4.303,1.839,6.229,1.839
		c1.927,0,4.213-0.977,6.229-1.839c2.3-0.982,4.472-1.912,6.958-1.912c0.917,0,8.957,0.299,8.957,10.624
		C170.645,160.902,164.229,169.243,155.374,172.143z M199.181,106.352c-1.277,1.286-3.045,2.014-4.86,2.014
		c-1.817,0-3.584-0.736-4.86-2.014c-1.276-1.276-2.013-3.044-2.013-4.859c0-1.808,0.736-3.574,2.013-4.86
		c1.276-1.276,3.043-2.003,4.86-2.003c1.806,0,3.583,0.727,4.86,2.003c1.275,1.286,2.012,3.053,2.012,4.86
		C201.193,103.308,200.456,105.075,199.181,106.352z"/>
	<path d="M268.035,77.742c-1.862-30.446-14.063-51.333-37.141-63.696C207.79,1.668,176.28,0,148.501,0S89.212,1.668,66.107,14.046
		c-23.077,12.363-35.277,33.25-37.14,63.696C13.016,82.326,1.224,98.089,1.224,116.776c0,19.923,13.402,36.522,30.962,39.793
		c4.368,30.37,13.375,53.62,27.435,70.898c4.892,6.011,10.409,11.28,16.525,15.817v-3.262c0-8.08,3.64-15.199,9.986-19.531
		c2.145-1.464,4.526-2.523,7.041-3.182c-7.944-11.127-12.638-24.729-12.638-39.413v-28.57
		c-18.457-8.556-30.547-27.199-30.547-47.831c0-29.066,23.639-52.713,52.693-52.713c19.606,0,36.745,10.768,45.819,26.702
		c9.074-15.935,26.213-26.702,45.819-26.702c29.055,0,52.693,23.647,52.693,52.713c0,20.632-12.09,39.275-30.547,47.831v28.57
		c0,14.684-4.693,28.285-12.638,39.412c2.516,0.66,4.898,1.718,7.042,3.183c6.346,4.332,9.985,11.451,9.985,19.531v3.262
		c6.116-4.537,11.634-9.807,16.525-15.817c14.06-17.278,23.066-40.528,27.435-70.898c17.559-3.271,30.96-19.87,30.96-39.793
		C295.777,98.089,283.986,82.326,268.035,77.742z"/>
	<path d="M104.325,231.205c-1.673-0.652-3.336-0.984-4.939-0.984c-2.073,0-3.925,0.547-5.505,1.624
		c-2.572,1.757-3.989,4.661-3.989,8.179v47.181c0,3.517,1.417,6.421,3.99,8.177c2.803,1.913,6.605,2.14,10.444,0.636l16.225-6.345
		c-5.03-4.854-8.143-11.527-8.143-18.885v-14.35c0-6.579,2.493-12.61,6.618-17.283L104.325,231.205z"/>
</g>
<g>
</g>
<g>
</g>
<g>
</g>
<g>
</g>
<g>
</g>
<g>
</g>
<g>
</g>
<g>
</g>
<g>
</g>
<g>
</g>
<g>
</g>
<g>
</g>
<g>
</g>
<g>
</g>
<g>
</g>
</svg>
