<?xml version="1.0" encoding="iso-8859-1"?>
<!-- Generator: Adobe Illustrator 19.0.0, SVG Export Plug-In . SVG Version: 6.00 Build 0)  -->
<svg version="1.1" id="Capa_1" xmlns="http://www.w3.org/2000/svg" xmlns:xlink="http://www.w3.org/1999/xlink" x="0px" y="0px"
	 viewBox="0 0 472.632 472.632" style="enable-background:new 0 0 472.632 472.632;" xml:space="preserve">
<path id="XMLID_252_" d="M275.264,82.617c0-4.971,4.029-9,9-9h1.768c4.971,0,9,4.029,9,9s-4.029,9-9,9h-1.768
	C279.293,91.617,275.264,87.588,275.264,82.617z M438.539,469.055c-1.701,2.251-4.359,3.574-7.181,3.574h-82.267
	c-0.137,0.003-0.272,0.003-0.407,0H313.47c-0.067,0.002-0.136,0.002-0.204,0.002c-0.067,0-0.136,0-0.204-0.002h-87.029
	c-0.136,0.003-0.271,0.003-0.407,0h-35.213c-0.135,0.004-0.27,0.004-0.406,0H107.74c-2.821,0-5.479-1.323-7.181-3.574
	c-1.701-2.252-2.248-5.17-1.477-7.885l26.074-91.808c1.099-3.87,4.634-6.541,8.657-6.541h7.074v-20.053
	c0-0.705,0.015-1.406,0.044-2.104c-12.886-3.165-24.854-9.872-34.329-19.349c-13.813-13.813-21.422-32.132-21.422-51.584V79.084
	c0-3.183-1.27-6.205-3.576-8.51c-2.308-2.309-5.331-3.579-8.514-3.579H62.734c-16.796,0-30.46-13.664-30.46-30.459
	c0-16.796,13.664-30.46,30.46-30.46h10.357c19.452,0,37.772,7.608,51.588,21.423C138.493,41.312,146.1,59.632,146.1,79.084v190.647
	c0,1.641,0.338,3.239,0.981,4.719c0.062,0.127,0.12,0.256,0.176,0.386c0.593,1.242,1.406,2.394,2.42,3.406
	c1.419,1.42,3.109,2.447,4.941,3.027l1.166-7.672c-0.003-0.098-0.005-0.196-0.005-0.295c0-1.04,0.177-2.038,0.501-2.968
	l14.324-94.237c2.447-16.114,10.815-29.376,22.473-36.653c-5.209-8.397-8.293-18.404-9.069-27.218
	c-0.127-0.604-0.194-1.229-0.194-1.871c0-0.253,0.011-0.503,0.031-0.75c-0.021-0.567-0.031-1.127-0.031-1.681V84.799
	c0-7.495,3.599-14.5,9.389-18.971c0.436-5.703,2.812-11.212,6.928-15.905c1.492-1.702,3.169-3.256,4.993-4.647v-20.52
	C205.124,11.105,216.229,0,229.879,0c13.651,0,24.757,11.105,24.757,24.756v12.538h28.93V24.756C283.566,11.105,294.671,0,308.322,0
	c13.651,0,24.758,11.105,24.758,24.756v19.86c2.174,1.555,4.154,3.332,5.888,5.309c4.115,4.694,6.491,10.204,6.927,15.904
	c5.789,4.471,9.387,11.476,9.387,18.97v23.126c0,0.554-0.01,1.113-0.031,1.681c0.021,0.247,0.031,0.497,0.031,0.75
	c0,0.642-0.067,1.268-0.194,1.871c-0.776,8.813-3.859,18.819-9.067,27.217c11.656,7.276,20.025,20.538,22.476,36.654l10.085,66.356
	c0.007,0.047,0.015,0.094,0.021,0.14l4.313,28.385c0.166,0.623,0.267,1.272,0.295,1.94l6.353,41.8
	c5.456,7.999,8.647,17.658,8.647,28.05v20.053h7.074c4.023,0,7.559,2.671,8.657,6.541l26.074,91.808
	C440.787,463.885,440.24,466.803,438.539,469.055z M348.298,310.86c-1.666,0-3.32,0.131-4.95,0.389
	c7.024,8.601,11.24,19.577,11.24,31.521v20.051h20.157c0.139-0.004,0.275-0.004,0.412,0h5.052v-20.053
	c0-4.979-0.993-9.773-3.19-13.899c-1.871-3.514-5.586-8.084-6.387-8.87C364.873,314.349,356.986,310.86,348.298,310.86z
	 M357.809,225.588h-26.705c-14.397,0-26.111,11.714-26.111,26.112v41.161c7.71,0.048,15.011,1.854,21.521,5.034
	c6.77-3.307,14.202-5.035,21.784-5.035c7.262,0,14.167,1.56,20.397,4.359l-2.268-14.917h-10.41c-4.971,0-9-4.029-9-9s4.029-9,9-9
	h7.675l-1.734-11.415h-28.055c-4.971,0-9-4.029-9-9s4.029-9,9-9h25.319L357.809,225.588z M295.678,362.821v-9.199
	c0-4.971,4.029-9,9-9s9,4.029,9,9v9.199h22.91v-20.051c0-11.106-5.702-20.905-14.334-26.623c-0.395-0.209-0.774-0.449-1.137-0.719
	c-4.804-2.898-10.43-4.568-16.438-4.568c-2.218,0-4.385,0.228-6.477,0.66c-0.194,0.049-0.392,0.092-0.59,0.128
	c-8.411,1.908-15.571,7.146-20.014,14.25c-0.2,0.4-0.43,0.786-0.689,1.155c-2.638,4.643-4.146,10.007-4.146,15.717v20.051
	 M301.566,37.294h8.236c1.774,0,3.538,0.116,5.277,0.342v-12.88c0-3.726-3.031-6.756-6.758-6.756c-3.726,0-6.756,3.03-6.756,6.756
	V37.294z M223.124,37.761c2.027-0.308,4.092-0.467,6.17-0.467h7.343V24.756c0-3.726-3.03-6.756-6.756-6.756s-6.757,3.03-6.757,6.756
	V37.761z M201.814,101.355h25.367c4.971,0,9,4.029,9,9s-4.029,9-9,9h-23.574c2.032,6.739,5.61,13.002,9.778,16.776
	c0.149,0.123,0.295,0.251,0.436,0.383c0.188,0.16,0.375,0.315,0.564,0.465h18.898c4.971,0,9,4.029,9,9s-4.029,9-9,9h-11.095
	l2.105,13.033c0.014,0.086,0.026,0.172,0.038,0.258c1.001,7.588,7.094,15.754,18.104,15.754h18.112v-45.835h-2.461
	c-4.971,0-9-4.029-9-9s4.029-9,9-9h22.921c4.971,0,9,4.029,9,9s-4.029,9-9,9h-2.46v45.835h18.111
	c11.012,0,17.104-8.166,18.104-15.753c0.012-0.086,0.024-0.173,0.038-0.259l2.106-13.033h-8.324c-4.971,0-9-4.029-9-9s4.029-9,9-9
	h16.129c0.179-0.142,0.356-0.287,0.533-0.438c0.159-0.15,0.323-0.296,0.493-0.435c4.155-3.776,7.721-10.026,9.748-16.751h-23.575
	c-4.971,0-9-4.029-9-9s4.029-9,9-9h25.368V84.799c0-2.428-1.539-4.653-3.829-5.538c-3.881-1.499-6.229-5.462-5.679-9.586
	l0.133-0.995c0.309-2.342-0.522-4.664-2.473-6.888c-0.925-1.055-2.04-2.01-3.293-2.843c-1.544-0.339-2.939-1.074-4.074-2.094
	c-2.586-1.001-5.437-1.562-8.264-1.562h-17.102c-0.09,0.002-0.18,0.002-0.27,0h-46.66c-0.09,0.002-0.18,0.002-0.27,0h-16.208
	c-3.738,0-7.516,0.979-10.672,2.662c-0.124,0.072-0.249,0.141-0.377,0.206c-1.782,0.998-3.351,2.225-4.581,3.629
	c-1.95,2.224-2.782,4.547-2.472,6.903l0.131,0.989c0.546,4.121-1.802,8.079-5.679,9.577c-2.291,0.885-3.83,3.11-3.83,5.538V101.355z
	 M184.025,207.588h23.943c24.323,0,44.112,19.789,44.112,44.112v44.441c6.496,2.486,12.454,6.314,17.437,11.236
	c4.927-4.895,10.869-8.771,17.476-11.283V251.7c0-24.323,19.788-44.112,44.111-44.112h23.97l-4.374-28.785
	c-1.734-11.407-7.54-20.524-15.401-24.788l-2.707,16.747c-2.456,18.124-17.545,31.263-35.931,31.263h-54.224
	c-18.382,0-33.472-13.139-35.932-31.26l-2.705-16.75c-7.863,4.264-13.668,13.381-15.399,24.787L184.025,207.588z M254.764,362.821
	v-20.051c0-7.192,1.528-14.033,4.279-20.217c-6.037-7.308-15.1-11.693-24.622-11.693c-6.003,0-11.623,1.665-16.424,4.559
	c-0.371,0.277-0.762,0.523-1.167,0.738c-8.625,5.718-14.322,15.512-14.322,26.611v20.053h20.021v-9.199c0-4.971,4.029-9,9-9
	s9,4.029,9,9v9.199 M170.401,297.221c6.231-2.802,13.135-4.36,20.398-4.36c7.583,0,15.017,1.729,21.786,5.034
	c6.503-3.178,13.795-4.981,21.495-5.033V251.7c0-14.398-11.714-26.112-26.112-26.112h-26.68l-1.413,9.3h26.383c4.971,0,9,4.029,9,9
	s-4.029,9-9,9h-29.119l-1.735,11.415h12.199c4.971,0,9,4.029,9,9s-4.029,9-9,9h-14.935L170.401,297.221z M184.508,362.821v-20.053
	c0-11.942,4.218-22.92,11.241-31.52c-1.63-0.258-3.285-0.389-4.95-0.389c-8.285,0-15.86,3.157-21.522,8.37
	c-3.169,2.918-6.583,8.374-7.181,9.6c-2.055,4.214-3.208,8.944-3.208,13.938v20.053 M128.1,179.954V143.02h-24.919v36.935H128.1z
	 M103.181,197.954v36.935H128.1v-36.935H103.181z M128.1,125.02V88.084h-24.919v36.936H128.1z M91.311,27.174
	c-5.782-2.037-11.923-3.098-18.22-3.098H62.734c-6.87,0-12.46,5.59-12.46,12.46s5.59,12.459,12.46,12.459h10.357
	c1.486,0,2.956,0.108,4.401,0.322L91.311,27.174z M101.801,70.084h25.564c-1.853-11.234-7.166-21.608-15.414-29.856
	c-1.55-1.549-3.174-2.995-4.864-4.334l-13.342,21.38c0.197,0.188,0.394,0.379,0.588,0.572
	C97.83,61.341,100.363,65.527,101.801,70.084z M106.855,289.511l21.647-14.868c-0.267-1.609-0.402-3.251-0.402-4.911v-16.843
	h-24.919v16.843C103.181,276.598,104.442,283.277,106.855,289.511z M144.923,323.11c1.271-2.955,2.817-5.76,4.61-8.389l2.366-15.564
	c-5.606-1.202-10.771-4.007-14.951-8.188c-0.058-0.058-0.115-0.115-0.172-0.173l-20.717,14.229c1.032,1.227,2.123,2.415,3.271,3.563
	C126.412,315.669,135.328,320.699,144.923,323.11z M178.302,454.629l-20.963-73.808h-16.726l-20.962,73.808H178.302z
	 M239.986,380.821h-63.935l20.963,73.808h22.011L239.986,380.821z M258.698,380.821l-20.961,73.808h63.622l-20.962-73.807
	 M363.044,380.821h-17.329c-0.042,0.001-0.085,0.001-0.127,0.001h-46.479l20.962,73.807h22.013L363.044,380.821z M419.446,454.629
	l-20.962-73.808h-16.728l-20.961,73.808H419.446z M252.126,91.617h1.769c4.971,0,9-4.029,9-9s-4.029-9-9-9h-1.769
	c-4.971,0-9,4.029-9,9S247.156,91.617,252.126,91.617z"/>
<g>
</g>
<g>
</g>
<g>
</g>
<g>
</g>
<g>
</g>
<g>
</g>
<g>
</g>
<g>
</g>
<g>
</g>
<g>
</g>
<g>
</g>
<g>
</g>
<g>
</g>
<g>
</g>
<g>
</g>
</svg>
