<?xml version='1.0' encoding='iso-8859-1'?>
<svg version="1.1" xmlns="http://www.w3.org/2000/svg" viewBox="0 0 296.666 296.666" xmlns:xlink="http://www.w3.org/1999/xlink" enable-background="new 0 0 296.666 296.666">
  <g>
    <g>
      <path d="m247.355,131.372c14.35-3.65 24.963-16.484 24.963-31.973 0-18.318-14.847-33.082-33.165-33.082-15.974,0-29.305,11.33-32.458,26.365-18.17-13.397-40.607-21.652-64.895-21.652-55.096,0-100.692,41.318-108.46,93.318h-0.271c-18.234,0-33.069,14.804-33.069,33s14.835,33 33.069,33h114.931v-16h-114.931c-9.412,0-16.736-7.292-16.736-16.666 0-9.374 7.324-16.334 16.736-16.334h263.597l-49.311-49.976zm-25.687,33.315c-4.418,0-8-3.582-8-8s3.582-8 8-8 8,3.582 8,8c0,4.418-3.582,8-8,8z"/>
    </g>
  </g>
</svg>
