<?xml version='1.0' encoding='iso-8859-1'?>
<!DOCTYPE svg PUBLIC '-//W3C//DTD SVG 1.1//EN' 'http://www.w3.org/Graphics/SVG/1.1/DTD/svg11.dtd'>
<svg version="1.1" xmlns="http://www.w3.org/2000/svg" viewBox="0 0 512 512" xmlns:xlink="http://www.w3.org/1999/xlink" enable-background="new 0 0 512 512">
  <g>
    <path d="m16,320c19.205,0 36.26-8.679 48-22.118 11.74,13.439 28.795,22.118 48,22.118s36.26-8.679 48-22.118c11.74,13.439 28.795,22.118 48,22.118s36.26-8.679 48-22.118c11.74,13.439 28.795,22.118 48,22.118s36.26-8.679 48-22.118c11.74,13.439 28.795,22.118 48,22.118s36.26-8.679 48-22.118c11.74,13.439 28.795,22.118 48,22.118 8.836,0 16-7.164 16-16s-7.164-16-16-16c-17.648,0-32-14.352-32-32 0-8.836-7.164-16-16-16s-16,7.164-16,16c0,17.648-14.352,32-32,32s-32-14.352-32-32v-2c0-118.5-120.387-190-215.703-190-5.594,0-10.773,2.922-13.68,7.695-2.898,4.781-3.094,10.727-0.516,15.688 0.541,1.033 47.242,92.48 22.722,152.783-0.288-0.016-0.531-0.166-0.823-0.166-8.836,0-16,7.164-16,16 0,17.648-14.352,32-32,32s-32-14.352-32-32c0-8.836-7.164-16-16-16s-16,7.164-16,16c0,17.648-14.352,32-32,32-8.836,0-16,7.164-16,16s7.164,16 16,16z"/>
    <path d="m496,416c-17.648,0-32-14.352-32-32 0-8.836-7.164-16-16-16s-16,7.164-16,16c0,17.648-14.352,32-32,32s-32-14.352-32-32c0-8.836-7.164-16-16-16s-16,7.164-16,16c0,17.648-14.352,32-32,32s-32-14.352-32-32c0-8.836-7.164-16-16-16s-16,7.164-16,16c0,17.648-14.352,32-32,32s-32-14.352-32-32c0-8.836-7.164-16-16-16s-16,7.164-16,16c0,17.648-14.352,32-32,32s-32-14.352-32-32c0-8.836-7.164-16-16-16s-16,7.164-16,16c0,17.648-14.352,32-32,32-8.836,0-16,7.164-16,16s7.164,16 16,16c19.205,0 36.26-8.679 48-22.118 11.74,13.439 28.795,22.118 48,22.118s36.26-8.679 48-22.118c11.74,13.439 28.795,22.118 48,22.118s36.26-8.679 48-22.118c11.74,13.439 28.795,22.118 48,22.118s36.26-8.679 48-22.118c11.74,13.439 28.795,22.118 48,22.118s36.26-8.679 48-22.118c11.74,13.439 28.795,22.118 48,22.118 8.836,0 16-7.164 16-16s-7.164-16-16-16z"/>
  </g>
</svg>
